<svg width="2304" height="394" viewBox="0 0 2304 394" fill="none" xmlns="http://www.w3.org/2000/svg">
<g clip-path="url(#clip0)">
<path d="M853.2 2.79998C853.1 4.69998 850.3 17 846.9 30.3C841.5 51.8 840.7 56.2 839.6 71.2C838.5 86.8 838.2 88.2 836.1 89.6C821.2 100.1 803.4 120.7 784.5 149.8C784.4 149.9 781.6 150.7 778.4 151.6C775.2 152.4 769.5 154.5 765.7 156.2C762 157.9 758.7 159.1 758.5 158.8C758.2 158.5 758.2 156.4 758.6 154L759.3 149.8L765.7 150.2C772.5 150.6 772.2 149.7 765.2 148.5C762.8 148.1 760.6 147.2 760.4 146.6C760.1 145.9 760.8 139.4 762 132C763.1 124.4 764 113.8 764 107.2V95.7L768.8 91.2C773 87.3 782.4 79.8 787.6 76.2C791.6 73.5 784.5 76.1 774.8 81L765 85.8V82.8C765 80 765.2 79.8 767.8 80.3L770.5 80.9L767.6 79.7C764.8 78.5 764.8 78.5 765.2 71.8C765.5 68 765.3 65 764.9 65C764.4 65 764 66.1 764 67.4C764 69.8 762.2 76 761.1 77.2C760.8 77.6 756.4 77.2 751.5 76.3C734.6 73.4 717.2 76.4 703.1 84.7C689.7 92.7 675 109.3 665.6 127C657.9 141.6 656.4 140.7 660.8 124.1C662.6 117.6 664 111.9 664 111.4C664 110.9 662.7 112.8 661.2 115.6C656.1 125.2 652.5 131 651.8 131C651.1 131 650.4 98.8 651 93.6C651.1 92.5 650.7 92.1 650.1 92.4C649.5 92.8 649 94.3 649 95.8C649 97.3 646.6 107.9 643.7 119.4L638.4 140.3L634.7 141.6C632.6 142.4 631 142.5 631 141.9C631 141.4 631.9 136.9 633 131.9C635.2 122.2 635.2 119.1 633.1 126.2C632.4 128.6 629.7 133.9 627.2 138.1C622.9 145.3 622.3 145.9 615.6 149.1C608.3 152.6 598.8 159 593.3 164.3L590 167.4V164.9C590 163.6 590.7 158.4 591.6 153.5C593.2 144 594.9 132.3 595 130.3C595 128.7 598.7 126.3 605.7 123.4C612.7 120.6 610.6 120.2 602.4 122.9C599.2 124 596.5 124.8 596.4 124.7C596.4 124.6 596.7 114.8 597.1 103C597.5 91.2 597.9 77.4 597.8 72.5V63.5L596.5 69.5C595.8 72.8 594.6 76.8 594 78.5C589.1 90.8 580.5 117.8 579.6 124L578.5 131.4L572.3 135.3L566.1 139.1L560.1 137.9C556.7 137.3 554 136.4 554 135.9C554 135.5 560.1 119.5 567.5 100.5C579.2 70.2 581.8 62.6 587.5 40.3C591.1 26.2 593.9 14.6 593.7 14.3C593.4 14.1 592.8 15.2 592.2 16.9C591.6 18.5 585.4 29.1 578.5 40.4L565.8 60.9L551.5 98.6L537.3 136.2L532.9 138.2C530.5 139.2 527 141.6 525.2 143.3C522.1 146.3 521.4 146.5 514.7 146.6C509.4 146.6 506.4 147.2 503.4 148.8C499.2 150.9 491.2 159 485 167.3C483.1 169.8 481.3 172 481 172C480.7 172 480.9 164.9 481.4 156.3C482.2 142.2 482.5 140.4 484.4 138.8L486.5 137.1L484.3 137.7C482.6 138.1 482.2 137.8 482.5 136.3C482.7 135.3 483.1 130 483.3 124.5L483.8 114.5L482 121C481.1 124.6 478.9 130.6 477.3 134.5C474.6 141 473.9 141.7 468.4 144.8C465.2 146.6 460.8 149.3 458.8 150.7L455 153.3L444.8 150.5C439.1 148.9 434.1 147.3 433.7 147C431.9 145.4 441 133.1 452.5 121.6C464.6 109.4 477.2 99.6 486.8 95C489.6 93.6 491.9 92.2 492 91.8C492 90.9 476.4 95.8 470.6 98.6C467.9 99.9 465.5 100.8 465.3 100.6C464.6 99.9 483.4 82.9 489.3 79C492.5 76.8 494.8 75 494.2 75C491.3 75 475.9 82.6 467.9 88.1C459 94.1 443.9 109 433.2 122.4C428 128.9 418.9 139.4 413.1 145.8C407.3 152.1 400.4 159.9 397.8 163.1C393.2 168.7 393 168.8 389.5 168C387.5 167.5 385.7 167 385.5 166.8C384.9 166.2 386.1 162 386.9 162C387.3 162 388.5 161.3 389.6 160.4C391.4 158.9 391.4 158.9 389.3 159.5C387.7 159.9 387 159.7 387 158.7C387 157.6 391.8 133.7 393.7 125.2C394.6 121.5 393.1 122.8 392.1 126.7C391.5 128.8 386.2 138.6 380.2 148.5L369.4 166.5H353.7C345.1 166.5 338 166.4 338 166.3C338 166.2 339.4 163.9 341.1 161.2L344.2 156.2L349.8 157.5C358.6 159.5 365.2 160.1 369 159.1C373.2 158.1 372.1 157.6 361.7 156C357.4 155.4 352.3 154.3 350.4 153.7L347 152.5L351.3 147.3C356 141.6 367.2 131.4 373.8 126.8C376.2 125.2 381.8 122 386.3 119.9C393.4 116.5 393.9 115.8 388 117.8C383.9 119.2 389.6 115.5 398.5 111C404 108.3 408.2 106 407.8 106C405.3 106 388.6 110.5 383.1 112.7C370.1 117.9 353.8 128.3 339.4 140.8L331.3 147.8L325.9 146.9C315.1 145.1 305.3 148.3 299.2 155.7C296.2 159.2 292.9 161.4 282.5 166.4C275.4 169.9 266.9 173.7 263.8 174.9C257 177.3 242.7 184.4 238.7 187.2C237.1 188.3 235.7 189.1 235.5 188.9C235 188.3 248.9 171.8 259.7 160.1L269.3 149.8L274.3 150.3C277.1 150.5 278.6 150.4 277.8 149.9C277.1 149.4 275.6 149 274.4 149C273.3 149 272.1 148.7 271.8 148.4C270.8 147.5 287.6 132.3 298.3 124.3C303.8 120.3 313.3 114.4 319.4 111.4C328.1 107.1 329.6 106 326.5 106.6C305 110.3 283 121.6 261.7 140L255.8 145H248.5C238.1 145 226.7 147.4 218.1 151.5C214.1 153.4 211.2 154.4 211.8 153.7C214 151.1 232.6 142.1 241 139.6C245.7 138.2 248.3 137.1 246.8 137.1C241.2 136.9 218.1 142.2 210 145.5C205.4 147.4 201.4 148.8 201.3 148.6C201.1 148.4 202.1 143 203.4 136.4C204.8 129.9 205.7 124.4 205.5 124.1C205.2 123.9 205 124.3 204.9 125.1C204.9 125.9 204.5 125.7 204 124.5C203.3 122.7 203.2 122.8 202.5 125.5C202.1 127.1 198.2 134.9 193.7 142.6C187.2 154.1 185.4 156.6 183.9 156.3C181.6 155.7 181.7 157.5 183.5 135.1C185 117.8 185 111.1 183.6 119.9C183.3 122.1 179.9 131 176.1 139.7C169.4 154.8 169 155.5 164.8 157.6C162.4 158.8 157.6 162.8 154 166.4C150.5 170 147.3 173 147 173C146.6 173 146.9 169.5 147.6 165.2C148.3 161 148.9 156.9 148.9 156.1C149 155.1 150.2 154.9 154.3 155.3L159.5 155.9L154.8 154.4C151.3 153.3 150 152.4 150 151C150 150 153.1 128.1 156.9 102.3C163.8 55.7 163.8 55.4 164.3 29C164.6 14.4 164.6 3.79998 164.3 5.49998C164.1 7.09998 160.1 19.7 155.5 33.5L147.2 58.5L140.9 104.3L134.6 150.1L130 149.5C121.4 148.3 107.4 151.1 94.6 156.5C93 157.2 92.8 157 93.3 155.7C94.3 153 95.9 129.1 96.3 110L96.7 92.5L95 99C94 102.6 90.5 113.6 87.1 123.5C82.1 137.8 80.4 144.3 78.9 154.9L77 168.2L70.1 175.5C66.3 179.5 60.9 186.1 58 190.2L52.8 197.5L53.5 189.5C53.8 185.1 55.2 167.5 56.6 150.5C58.8 122.6 59 116.5 58.3 89.5C57.8 68.2 57.3 60.8 56.7 64C56.3 66.5 53.2 79.3 50 92.5L44.1 116.5L41.5 152C40.1 171.5 38.1 197.6 37 210L35.2 232.5L28.6 251.5C21.2 273 15.7 293.7 11 318.5C9.2 327.9 7.1 336 6.4 336.6C5.4 337.4 5 340 5 344.7C5 348.6 3.9 361.1 2.5 372.6C1.1 384.1 0 396.1 0 399.2C0 404.4 0.2 405 2.1 405C3.2 405 4.9 405.4 5.8 405.9C6.7 406.3 9.6 407 12.2 407.3C16.5 407.9 17 407.8 17 406C17 404.4 17.7 404 20 404C21.7 404 23 404.4 23 405C23 406.1 29.4 408 33.3 408C35.4 408 36 407.5 36 405.9C36 403.8 36.3 403.8 45.3 404.3C55.8 405 57.4 405.3 61.3 406.9C64.9 408.3 64.7 408.4 65.3 406C65.8 404.2 66.7 404 73.4 404C78.6 404 82.6 404.6 86.2 406C90.6 407.7 91.7 407.8 92.4 406.7C93.1 405.6 94.2 405.5 98.8 406.6C103.9 407.8 104.2 407.8 104.7 405.9C105.2 404 105.9 403.9 116.9 404.3C123.3 404.5 130.3 405.1 132.5 405.7C134.7 406.3 138.6 407.1 141.3 407.5C145.6 408.1 146 407.9 146 406.1C146 404.1 146.6 404 155.3 404C160.4 404 165 404.4 165.6 404.9C167.2 406.4 175 407.9 175.6 406.8C175.9 406.3 176.9 406.2 177.9 406.5C178.8 406.9 184.2 407.4 189.8 407.6C199.5 408 200.2 407.9 200.7 406C201.2 404.1 202.1 404 215.9 404C227.8 404 231.6 404.4 236.4 406C242.2 408 243.9 407.7 244 404.7C244 404.3 253.8 404 265.8 404C284.8 404 288.4 404.3 293.3 405.9C297.3 407.3 299 407.5 299.3 406.7C299.6 405.8 300.7 405.8 304.1 406.7C308.2 407.8 308.6 407.7 310.1 405.8C311.6 403.8 312.4 403.7 320.5 404.4C325.4 404.7 329.8 405.4 330.4 405.9C331 406.3 333.4 407 335.7 407.4C339.1 407.9 340.1 407.7 340.9 406.3C341.8 404.6 342.1 404.6 346.6 406.3C351.2 408 351.3 408 352.7 406C354 404.1 355.2 404 369.1 404C381.5 404 385.1 404.3 390.1 406C395.8 407.9 396.3 408 397.4 406.4C398.4 405.2 399.1 405 400.6 405.7C401.6 406.3 403.7 407 405.2 407.4C407.3 407.9 408 407.6 408.5 406C409.1 404.2 410 404 419.4 404C427.1 404 431.2 404.5 435.5 406C438.7 407.1 441.4 408 441.5 408C441.7 408 442 407.1 442.3 406C442.8 404.1 443.7 404 471.8 404C496.3 404 500.9 404.2 502 405.5C503.4 407.2 508 407.5 508 405.9C508 405.3 508.7 405.6 509.6 406.4C511.9 408.8 515 408.4 515 405.9C515 403.9 515.4 403.8 527.3 404.1C534.7 404.4 540.3 405 541.1 405.7C541.9 406.3 545.1 407.1 548.3 407.5C553.7 408.2 554 408.1 554 406.1C554 404.1 554.4 404 568.9 404C578.9 404 586.1 404.5 590.6 405.6C594.3 406.4 600.8 407.3 605.2 407.5C612.6 407.9 613 407.8 613 405.9C613 404 613.5 403.9 617.3 404.3C619.6 404.6 625.3 405.6 629.9 406.5C635.9 407.6 638.5 407.8 639 407C639.5 406.2 640.5 406.2 642.4 407C645.9 408.3 645.7 408.4 646.3 405.9C646.9 403.8 647.2 403.7 660.2 404.2C667.5 404.5 674.6 405.2 676 405.7C677.4 406.3 680.4 407 682.8 407.4C686.6 408 687 407.8 687 406C687 404.4 687.7 404 690.4 404C692.3 404 694.1 404.4 694.4 404.9C694.7 405.4 696.6 406.1 698.6 406.4C700.5 406.8 702.7 407.3 703.5 407.6C704.2 407.9 705.1 407.3 705.5 406.1C706 404.3 706.4 404.2 709.3 405.5C711.1 406.2 714.4 407.1 716.6 407.5C720.3 408.1 720.8 407.9 721.3 405.9C721.9 403.8 722.3 403.8 730.4 404.2C735 404.4 739.4 405.1 740.2 405.7C740.9 406.3 743.4 407 745.6 407.4C749.3 407.9 749.8 407.7 750.3 405.9C750.8 404 751.4 403.8 754.7 404.4C756.8 404.7 759.4 405.1 760.5 405.3C761.6 405.4 762.7 405.8 763 406.1C763.3 406.4 764.7 407 766.3 407.4C768.6 407.9 769 407.7 769 405.9C769 403.7 769.2 403.7 779.6 404.3C785.4 404.6 790.7 405.3 791.3 405.8C792 406.3 794.4 407 796.7 407.4C800.3 407.9 801.1 407.7 802 406C803.1 404 809 403 809 404.9C809 405.4 811.8 406.3 815.3 406.9C823.4 408.3 823 408.4 823 405.9C823 403.8 823.3 403.7 831.1 404.3C835.6 404.6 839.6 405.2 839.9 405.8C840.2 406.3 842.6 407 845.3 407.3C849.1 407.8 850 407.7 850 406.4C850 405.4 850.6 405 851.8 405.4C857.8 407.2 862.5 407.8 863.1 406.8C863.6 406 864.7 406 866.9 406.8C869.6 407.8 870.2 407.6 871.3 406C872.8 403.5 875.2 403.5 882.5 406C885.7 407.1 888.4 408 888.5 408C888.7 408 889 407.1 889.3 406C890 403.4 892.5 403.5 899.1 406L904.3 408.1L905.7 406C907 404.1 908.1 404 926.3 404C941.7 404 946.8 404.4 952 405.8C959.8 408 964.9 407.9 966.2 405.7C967 404.2 969.6 404 989 404C1006.6 404 1011.1 404.3 1011.7 405.4C1012.2 406.2 1015.1 407.1 1018.8 407.5C1024.7 408.2 1025 408.1 1025 406.1C1025 404.9 1025.5 404 1026 404C1026.6 404 1027 404.4 1027 405C1027 406 1033.3 408 1036.7 408C1038 408 1039.1 407.2 1039.5 406C1040.3 403.6 1045.6 403.2 1047.4 405.4C1048 406.2 1051 407.1 1054.1 407.5C1059.2 408.1 1059.8 407.9 1060.3 406.1C1060.8 404.2 1061.6 404 1069.5 404C1075.9 404 1078.5 404.4 1079.7 405.5C1080.5 406.3 1082.4 407 1083.8 406.9C1085.3 406.9 1088.4 407.2 1090.8 407.6C1094.6 408.2 1095 408.1 1095 406.1C1095 404.4 1095.5 404.1 1097.3 404.5C1112.5 408 1112.3 408 1113.5 406.3C1114.6 404.8 1115.1 404.8 1119.3 406.3C1123.8 407.8 1124 407.8 1125 405.9C1126.4 403.3 1134.2 403.3 1141.2 406C1144.1 407.1 1146.6 408 1146.6 408C1146.7 408 1147 407.1 1147.3 406C1147.8 404.1 1148.7 404 1159.4 404H1171V374.3V344.6L1175.2 337.6C1180.1 329.2 1194.8 307.2 1196 306.5C1196.4 306.2 1198.8 308.4 1201.4 311.4C1205.1 315.8 1213.3 322 1215.3 322C1215.5 322 1212.5 317 1208.4 310.8L1201.1 299.6L1205.1 294.8C1218.8 278.5 1227.5 271.3 1231 273.5C1232.6 274.5 1240.8 287.1 1249 301C1258.8 317.8 1264.4 325.5 1269.3 329.1C1271.5 330.7 1273.5 331.9 1273.7 331.7C1274.3 331.1 1255.9 297.8 1251 290.5C1244.8 281.4 1240.5 277.4 1229.6 270.6C1216.2 262.3 1214.3 262.7 1200.6 277.1L1191.9 286.2L1190.2 283.9C1187 279.2 1178.9 271.3 1175.5 269.4C1173.6 268.4 1172.2 267.1 1172.4 266.5C1172.7 266 1174.3 261.1 1176.1 255.7C1178.4 249.1 1179.9 246 1181 246C1182.1 246 1182.2 245.8 1181.2 245.2C1180.2 244.5 1180.2 243.3 1181.2 239.1L1182.4 233.9L1187.7 234.6C1190.6 234.9 1193 235 1193 234.7C1193 234.4 1194.5 230.6 1196.4 226.1L1199.9 218.1L1194.2 220.9C1191.1 222.5 1187.5 224.1 1186.3 224.5C1184.2 225.1 1184.1 224.9 1184.7 221.8C1185.1 220 1186.8 211.5 1188.5 203C1190.3 194.5 1191.6 187.4 1191.5 187.2C1191.4 187.1 1190.5 189.1 1189.5 191.6C1187.8 196.1 1175 218.3 1174.5 217.8C1174.3 217.6 1174.8 214.6 1175.6 211C1177.4 202.4 1177.3 200.6 1175.2 205.6C1172 213.4 1164.6 225.1 1163.3 224.6C1160.3 223.4 1148.9 221.8 1147.5 222.4C1146.5 222.7 1146 222.3 1146 221.1C1146 218.2 1161.9 202.9 1171.4 196.5C1176.2 193.4 1183 189.5 1186.8 187.9C1196.4 183.8 1192 184.3 1178 189C1165.6 193.1 1157.3 196.9 1150.8 201.4L1147 203.9V200.2C1147 198.2 1147.3 193.5 1147.6 189.8C1148.2 184.4 1148.7 183 1150.4 182.1C1152.4 181.1 1152.4 181.1 1150 181.4C1147.7 181.7 1145.1 182.5 1142.5 183.8C1138.9 185.6 1144.8 181.3 1152 176.9C1156.7 174.1 1159.6 172 1158.5 172.4C1149 175.1 1139.8 178.4 1136.3 180.4C1133.9 181.8 1132 182.5 1132 182.1C1132 180.6 1149.6 164.4 1154.9 161C1157.7 159.1 1159.8 157.5 1159.7 157.3C1158.9 156.6 1144.4 163.3 1138.9 166.9C1132.5 171.2 1132.4 171.1 1134.1 162.8C1134.9 158.8 1135.8 156.9 1137.4 156.2C1139.1 155.3 1139.2 155.1 1137.8 155.1C1135.5 155 1135.5 154.3 1138.9 137C1140.5 129 1141.7 122.4 1141.5 122.2C1141.3 122 1140.6 123.6 1140 125.7C1138.5 130.3 1122.5 158.3 1120.3 160.2C1118.9 161.3 1118.8 161.1 1119.3 158.5C1119.7 156.8 1120.9 150.1 1122.1 143.5C1124.2 132 1124.5 131.3 1129.1 125.4C1142.3 108.7 1158 97.9 1175.6 93.5C1182.9 91.7 1199.7 91.1 1206 92.5C1207.9 92.9 1209.2 92.9 1208.9 92.6C1207.9 91.6 1189.1 87.3 1182.3 86.6C1178.8 86.2 1172.4 86.4 1167.9 87C1152.6 89.1 1140.9 94.8 1128.8 105.9L1121.9 112.3L1115.2 109.7C1108 106.8 1098.6 104.5 1090.5 103.4L1085.6 102.8L1088 100.9C1093.1 96.9 1108.2 90.1 1115.5 88.5C1120.9 87.3 1126.3 86.9 1134.9 87.1C1141.5 87.3 1146.7 87.4 1146.6 87.2C1146.4 87.1 1142.1 86 1136.9 84.9C1123.1 81.8 1106 81.7 1096 84.8C1086.2 87.9 1078.2 92.4 1069.3 99.9L1062 106V97.1V88.2L1068.3 83.2C1071.7 80.5 1075.6 77.7 1076.8 77.1C1078.1 76.4 1079 75.7 1078.8 75.4C1078.3 75 1069.1 78.4 1065 80.5C1062.4 81.8 1062.2 81.8 1061.6 79.7C1061.3 78.5 1061 73.4 1060.9 68.5C1060.7 60 1060.7 59.8 1060 65C1058.8 73.5 1055.3 86.3 1053.8 87.1C1051.7 88.3 1044.6 94.1 1037.7 100.3L1031.2 106.1L1025.4 104.8L1019.5 103.5L1025.5 99.7C1028.8 97.6 1033.2 95.2 1035.2 94.2C1037.3 93.3 1039 92.2 1039 91.8C1039 90.7 1022.9 96 1014.4 99.9C1010 102 1004 104 1001.1 104.4C994.8 105.2 984.5 109 977.2 113.1C974.3 114.7 971.5 115.8 971 115.5C970.4 115.1 970 115.5 970 116.3C970 117.1 968.8 118.6 967.3 119.6C965.7 120.6 962.1 123.6 959.1 126.4L953.7 131.5L954.4 128C954.8 126.1 955.3 123.6 955.6 122.5C956 120.3 955.3 121.8 951.5 130.6C950.2 133.5 946.5 139.1 943.2 143.1C935.2 152.9 925.9 167.1 918.5 180.7C912.8 191.2 912.2 191.9 907.1 194.4C904.2 195.9 901.6 196.9 901.4 196.8C901.2 196.6 901.4 193.1 901.7 189.1C902.3 182.4 902.7 181.3 906.9 175.7C914.3 165.8 929.8 150.3 938.7 143.8C943.3 140.5 947 137.6 947 137.5C947 136.7 934.3 142.2 928.2 145.5C912.5 154.2 895.1 170.6 878.7 192.4C876.7 195.1 875 197 875 196.6C875 194.2 885.3 168.2 890.5 157.5C899.4 139.3 907.6 127.2 918.9 116C937 98 953.5 91.3 978 91.9C981.6 92 985.9 92.3 987.5 92.6C994.5 94 988.5 91.7 978.9 89.4C968.8 86.9 967.6 86.8 934 86.7C896.2 86.6 893.6 86.9 881.3 92.5C872.1 96.7 866.5 100.7 857.8 108.9L850.8 115.5L851.5 104.5C853 83.3 852.7 84.1 859.2 79.6C862.4 77.4 864.8 75.5 864.6 75.3C864.4 75.1 862.2 75.9 859.6 77C857 78.1 854.7 79 854.5 79C854.3 79 854.4 68.8 854.6 56.2C855 37.9 853.7 -9.30003 853.2 2.79998ZM759.5 80C759.9 80.6 759.4 83.4 758.4 86.3C757 90.6 754.8 93.3 745 103C738.5 109.4 729.3 120 724.1 127C719 133.9 713.9 140.1 712.7 140.8C711.2 141.6 708.6 141.9 705 141.5C698.9 140.8 677.7 137 677.2 136.5C676.5 135.8 685.1 122 691.1 114.1C708 91.6 729.1 80.2 755.7 79.1C757.4 79.1 759.2 79.5 759.5 80ZM896.4 98.8C888.9 103.8 884 108.3 877.8 115.8C873.2 121.3 870 124 865.7 126.2C862.4 127.8 859.7 129 859.5 128.8C858.7 128 870.5 115 876.5 110C882.6 104.9 897.2 96 899.5 96C900.1 96 898.7 97.2 896.4 98.8ZM836 120C834.6 136.9 834 141.2 832.2 144.5C829.6 149.4 829.6 148 832 136.5C833 131.6 833.7 127.4 833.6 127.2C833.4 127.1 832.3 129.6 831.1 132.7C828.3 140.3 820.7 152.5 818.9 152.3C816.2 152 802.5 149.6 802.1 149.4C801.5 148.9 812.2 132 820.1 120.9C827.5 110.5 837.1 98.6 837.5 99.2C837.6 99.4 836.9 108.7 836 120ZM1050.3 105.8C1048.6 112.4 1048.5 112.5 1044.5 111L1041.9 110L1046.6 104.5C1049.2 101.4 1051.4 99.1 1051.6 99.3C1051.8 99.4 1051.2 102.4 1050.3 105.8ZM906.9 108.2C896.5 118.2 885.4 134 877.3 150.5C874.4 156.3 872.9 158.2 870.6 159C869 159.5 867.5 160 867.3 160C867.1 160 868.7 156.5 870.9 152.2C879.6 135 893.1 117.5 905.3 107.8C911.7 102.8 912.4 103 906.9 108.2ZM1019.1 120.7C1010.1 131.9 1000 146.9 991.4 161.7C986 170.9 985.1 171.9 981.5 173C979.3 173.7 975.3 175.4 972.5 176.9C969.8 178.3 967.2 179.6 966.8 179.8C966.5 180 966.6 178.4 967.1 176.3C967.6 174.2 968 170.5 968 168C968.1 158.6 968.9 156.6 977.6 145.7C982.2 139.9 990.7 130.2 996.5 124.2C1008 112.2 1009.6 111.4 1021.7 111.1L1027 111L1019.1 120.7ZM1115 112.1C1117.7 112.7 1120 113.5 1120 113.8C1119.9 114.2 1118.7 115.9 1117.2 117.6C1115.2 119.9 1112.6 121.4 1107.3 122.9C1090.2 128 1075.1 135.5 1064.9 144.1L1060 148.2L1060.6 141.8C1060.9 138.4 1061.3 134.1 1061.6 132.3C1062.2 128.2 1070.3 117.2 1073.8 115.8C1084.5 111.5 1103.9 109.7 1115 112.1ZM1047.2 113.9C1047.6 114.3 1045.3 116.5 1042.1 118.8C1038.9 121.2 1034.1 125.2 1031.5 127.6C1025.5 133.4 1025.9 132.3 1033.9 121C1040.1 112.2 1040.4 111.9 1043.4 112.6C1045.1 112.9 1046.8 113.5 1047.2 113.9ZM747 122C746.5 125 745.6 131.4 745 136.1L743.8 144.7L736.2 145.3C731.9 145.5 728.4 145.6 728.2 145.5C728 145.3 729.7 142.2 732 138.5C737 130.4 747.1 115.8 747.5 116.2C747.7 116.4 747.4 119 747 122ZM1108.6 129.2C1103.3 136.9 1094.3 153.8 1090 164.1C1087 171.6 1086.8 171.8 1082.4 172.9C1080 173.5 1075.5 175.1 1072.5 176.5L1067 178.9L1062.5 176.9C1059.9 175.7 1058 174.2 1058 173.3C1058 170.7 1062.5 165.6 1068.4 161.5C1074.3 157.4 1075.2 155.8 1070.1 158.5C1068.4 159.3 1067 159.8 1067 159.4C1067 157.9 1078.2 145.1 1083.2 140.9C1092.9 132.8 1108.3 123.1 1111.7 123C1112.4 123 1111 125.8 1108.6 129.2ZM859.4 142.6C857.1 146.9 853.8 153.2 852.3 156.6C850.8 160.1 849.2 163 848.7 163C847.3 163 846.8 160 847.5 155.4C848 151.6 849.4 149.5 855.1 142.9C859 138.6 862.5 135 863 135C863.4 135 861.8 138.4 859.4 142.6ZM1036.2 146.7C1034.6 149.9 1032.3 155 1031.1 158.1C1028.9 163.6 1028.7 163.8 1023.9 164.7C1021.2 165.3 1019 165.5 1019 165.3C1019 163.7 1037.3 141 1038.6 141C1038.9 141 1037.7 143.6 1036.2 146.7ZM558.5 143C560.6 143 560.1 143.7 555.1 148.5C551.9 151.5 548.8 154 548.2 154C546.7 154 546.7 153.9 548.6 148.8C550.5 144 552.7 141.7 554.8 142.5C555.6 142.8 557.2 143 558.5 143ZM703.1 144.3L711.7 144.5L710.2 146.8C709.4 148 706.6 150.2 703.9 151.6C698.4 154.6 682.4 172.7 672.5 187C669.2 191.7 665.1 197.3 663.3 199.6C661.5 201.9 657.9 206.8 655.4 210.6C650.9 217.5 650.9 217.5 651.6 213.5C652.7 207.5 657.7 188 658.3 187.3C658.6 187 661 187.5 663.6 188.4C670 190.6 670.2 189.8 664 187.1C661.3 185.9 659 184.4 659 183.7C659 181.7 665.5 162.3 669 154C670.7 149.9 672.4 145.7 672.7 144.8C673.4 142.5 675 142.3 685.5 143.3C690.4 143.8 698.4 144.2 703.1 144.3ZM573.4 167.6C571.6 180 569.6 190.8 568.9 191.6C568.2 192.4 564.5 195.2 560.7 197.8C552.9 203 541.5 213.9 534.4 223.1C531.8 226.3 529.5 228.9 529.3 228.7C527.7 227 548.9 176 551.2 176C551.7 176 551.9 175.7 551.6 175.2C551.4 174.8 553.3 171.3 555.8 167.5C559.1 162.7 561.4 160.2 563.5 159.5C565.2 159 566.7 158.3 567 157.9C567.3 157.6 568.4 156.8 569.5 156.1C571.2 155.1 570.9 155 567.5 155.5L563.6 156.2L568.5 150.8C574 144.9 575.1 144 576.1 144.5C576.4 144.8 575.2 155.1 573.4 167.6ZM637.5 152.2C637 156.3 635.3 160.3 630.4 168.6C626.9 174.6 624 178.8 624 177.9C624 175.7 628.9 151.8 629.5 151.2C630.6 150.1 637.5 146.2 637.8 146.5C638 146.7 637.9 149.3 637.5 152.2ZM469.4 153.2C468.2 155.9 467.3 156.6 465.8 156.2C464 155.8 464.2 155.4 467.1 152.4C468.9 150.5 470.5 149.2 470.7 149.4C470.9 149.6 470.3 151.3 469.4 153.2ZM240.4 160.2C235.5 165.3 231.3 169.5 231 169.5C230.7 169.5 227.5 168.8 223.8 168.1C215.8 166.4 216 165.9 226 160C231.8 156.6 245.6 151.1 248.4 151C248.9 151 245.3 155.2 240.4 160.2ZM743 152.5C743 154.1 741.3 154.4 738.4 153.3C736.8 152.7 736.8 152.6 738.6 151.9C741.6 150.7 743 150.9 743 152.5ZM317.1 162.4C312.8 166.8 308.8 170 307.2 170.3C305.7 170.6 304.4 170.7 304.3 170.6C304.2 170.5 306 167.9 308.4 164.8C311.4 161.1 314.6 158.4 318.1 156.6C321 155.2 323.6 154.2 323.8 154.5C324.1 154.7 321 158.3 317.1 162.4ZM443.7 155.1C447.2 155.7 450 156.4 450 156.7C450 157 446.8 160.2 442.9 163.8C435.3 170.8 424.8 183 415.7 195.1C410.8 201.5 400 211.4 401.1 208.3C401.3 207.7 404.6 200.7 408.4 192.6C415 178.7 415.4 178.1 417.9 178.6C420.4 179.1 420.5 179.1 418.3 177.8C416.1 176.5 416.1 176.5 422.1 165.2L428.1 154H432.7C435.3 154 440.2 154.5 443.7 155.1ZM133.5 157.7C132.6 162.6 129 188.2 129 189.3C129 190.2 124.4 190.5 113.2 190.5C100.8 190.6 96.6 191 93.1 192.3C90.7 193.3 88.5 193.9 88.3 193.6C88.1 193.4 88.5 189.1 89.2 184.1L90.4 174.9L96.4 170.3C104 164.5 116.9 158.4 125.2 156.6C134.1 154.6 134 154.6 133.5 157.7ZM815.5 155.9C810.1 157.2 807.6 159.1 795.7 170.9L783.9 182.5L790.4 170C794.4 162.3 797.7 157 799.2 156.3C800.5 155.5 805 155.1 810 155.1C815.8 155.2 817.5 155.4 815.5 155.9ZM514.8 156.8C514.7 157.2 512.6 160.7 510.2 164.7C506.4 171 505.3 172 501.2 173.4C498.7 174.3 496.5 175 496.3 175C495.3 175 505.2 163 508.9 159.7C512.6 156.4 515.7 154.8 514.8 156.8ZM738.1 158.1L741.8 159L739.1 165.5C736.9 171 736.2 172 734.5 171.5C733.4 171.2 728.3 170.7 723.3 170.3L714 169.7L716.7 164.8C721.2 156.5 726.1 155 738.1 158.1ZM466 161C466 162.2 464.8 163.6 462.8 164.6C461 165.5 456.7 168.2 453.2 170.6C446 175.6 446.2 174.8 454.3 165.6C459 160.3 460.7 159 463.1 159C465.3 159 466 159.5 466 161ZM871.4 163.7C870.5 165.8 869.5 167.9 869 168.3C868.1 169.3 864 168.3 864 167.1C864 166.5 871.9 160 872.6 160C872.8 160 872.2 161.7 871.4 163.7ZM525.8 166.8C525.1 168.6 524.2 170 523.7 170C523.2 170 523 169.7 523.2 169.2C526.6 162.3 527.9 161 525.8 166.8ZM285.8 172.2C282.4 176.8 278.9 181.1 278 181.7C275.7 183.7 266 188.3 265.5 187.8C264.6 186.9 278.3 173.9 282.1 171.9C284.3 170.8 286 169.7 286 169.4C286 169.1 285.4 169.2 284.8 169.5C284.1 169.9 285.1 168.8 287 167.1C292.8 161.9 292.4 163.6 285.8 172.2ZM775 165.5C775 165.8 773 169.6 770.6 173.8C768.2 178 765.1 183.6 763.9 186.2C762 190.2 760.9 191.2 757.3 192.4L753 193.9L753.6 188.2C754.4 180.8 755.5 179.2 765.3 171.5C772.9 165.5 775 164.2 775 165.5ZM608.4 169.5C607.5 170.9 605.7 174.9 604.5 178.3C602.3 184.5 602.2 184.5 598 184.8C594.2 185.1 594 185 594.9 183.3C595.9 181.3 608.9 167 609.6 167C609.9 167 609.3 168.1 608.4 169.5ZM219.9 183.1L210.1 194.6L200.3 198.3C191.1 201.8 188 202.6 188 201.6C188 201.3 188.9 199.5 190.1 197.6C191.9 194.5 192.6 194.1 194.8 194.6C196.3 195 198.3 195.7 199.3 196.2C200.3 196.7 201.4 196.9 201.8 196.6C202.1 196.2 200.5 195.2 198.2 194.3C195.9 193.4 194 192.4 194 192C194 190.8 201.1 181.7 206.2 176.4L211.1 171.3L220.4 171.4L229.7 171.5L219.9 183.1ZM461.6 175.2C461.1 178.2 460.1 179 454.3 181.9L447.6 185.2L451.4 180.8C455.7 175.9 461.3 171 461.9 171.5C462.1 171.7 462 173.4 461.6 175.2ZM865.3 178.9C863.9 182.5 861.1 190.8 859.1 197.4C855.7 208.3 855.2 209.3 852.2 210.6C849.5 211.7 849 211.7 849 210.5C849 209.2 858.6 179.5 860.8 173.9C861.7 171.8 862.3 171.4 864.8 171.8L867.8 172.2L865.3 178.9ZM347.6 173.5C346.5 174.3 344.9 175 344.1 174.9C343.2 174.9 343.9 174.2 345.5 173.5C349.4 171.7 350 171.7 347.6 173.5ZM384.9 179.9C383 182.6 381.4 184.7 381.2 184.5C381.1 184.4 381.5 182.2 382.2 179.7C383.1 176.3 384 175 385.4 174.8C386.6 174.6 387.7 174.5 387.9 174.7C388.1 174.8 386.8 177.2 384.9 179.9ZM735.6 177.5C735.2 179.4 732.5 184.2 729.5 188.2C726.5 192.2 724 195.8 724 196.1C724 196.5 720.6 195.4 716.5 193.7C709.1 190.6 708.9 190.5 709.4 187.5L709.9 184.5L708.8 187.2C708.1 188.8 707.3 190 706.9 190C705 190 705.1 187.8 707.2 183.6C709.1 179.6 710.1 178.8 714.4 177.4C717.2 176.4 723 175.4 727.5 175C731.9 174.6 735.7 174.2 735.9 174.1C736.1 174.1 735.9 175.6 735.6 177.5ZM341.9 175.7C341.9 176.6 328.9 185.2 328.4 184.7C327.4 183.8 331.7 179.7 335.8 177.5C340.8 174.9 342 174.6 341.9 175.7ZM522 176.6C522 178.1 519.8 180.9 517.5 182.4L514.9 184.1L516.6 180.8C518.2 177.6 519.7 176 521.3 176C521.7 176 522 176.3 522 176.6ZM1022.1 184.2L1019.3 192.5L1013.9 193.1C1010.9 193.5 1007 194.1 1005.3 194.4L1002 195L1005.2 188.6C1008.4 182.1 1011.2 179.6 1018 177.3C1025.1 175 1025.2 175.1 1022.1 184.2ZM1062.7 178.1L1065.5 179.2L1062 181C1057.4 183.5 1057.3 183.5 1057.8 180C1058.3 176.7 1058.6 176.5 1062.7 178.1ZM1083.2 181.4C1082 184.5 1077.8 189.7 1069.4 198.4C1062.7 205.2 1056.9 210.6 1056.6 210.3C1056.3 209.9 1056 206.7 1056 203V196.3L1061.8 191.8C1068.4 186.5 1082.9 177 1084.1 177C1084.6 177 1084.2 179 1083.2 181.4ZM160.5 181.2C159.7 184.8 158.5 186 155.7 186C154.2 186 154.5 185.3 157.2 182C159 179.8 160.6 178 160.8 178C161 178 160.8 179.5 160.5 181.2ZM297.2 184.7C294.5 188.5 291.1 191.5 290.4 190.7C289.6 189.9 293.6 184.8 296.3 183.3C299.3 181.6 299.4 181.7 297.2 184.7ZM1140.9 199.9C1135.8 212.2 1131.2 219.8 1132.4 214C1133.4 208.9 1134 194.5 1133 196.5C1132.5 197.6 1132.1 199.3 1132.1 200.3C1132 203.2 1117.7 234.3 1114.6 238.3C1113 240.4 1111.5 241.9 1111.3 241.6C1111.1 241.4 1113.9 231.8 1117.5 220.4C1125 196.8 1125.3 196.3 1138.6 188.4C1143.9 185.2 1145.6 184.6 1145.8 185.8C1146 186.6 1143.8 192.9 1140.9 199.9ZM457.3 197.7C456.1 204.8 455 210.6 455 210.7C455 210.8 453.6 211.7 451.9 212.5L448.8 214.2L449.4 205.3C449.8 198.4 449.7 197.3 449 200.5C448.4 202.7 446.8 207.3 445.4 210.6L442.8 216.8L436.8 214.9C433.5 213.9 430.6 212.9 430.3 212.6C429.2 211.5 456.7 185.1 459.1 185C459.4 185 458.6 190.7 457.3 197.7ZM830.2 188.2C829.4 189 829.3 188.6 829.7 186.9C830.1 185.6 830.5 185.1 830.8 185.9C831 186.6 830.7 187.7 830.2 188.2ZM899.6 188.7C895.9 198.8 894.2 201.7 891.5 202.2C889.6 202.6 889 202.4 889.4 201.4C890.1 199.5 899.9 185 900.5 185C900.7 185 900.3 186.7 899.6 188.7ZM358.6 193C357.3 196.8 355.8 199.2 354.6 199.6C353.6 199.9 350.7 202.3 348.2 204.9C345.7 207.4 344.1 208.8 344.5 208C346.5 204.5 359.8 187 360.5 187C360.6 187 359.8 189.7 358.6 193ZM492.6 196.8L488.2 205.5L483.4 205.1L478.6 204.8L487.2 196.4C492 191.8 496.2 188 496.5 188C496.8 188 495 191.9 492.6 196.8ZM944.9 196.2C944 200.1 943.6 200.7 941.9 200.3C940.1 199.8 940.1 199.5 941.3 197.6C942.1 196.5 943.2 194.4 943.9 193.2C945.7 189.8 946 190.8 944.9 196.2ZM128 192.9C128 193.4 125.2 194.9 121.8 196.3L115.5 198.7L111.7 196.8C109.5 195.7 108 194.7 108.3 194.4C109.8 192.9 128 191.5 128 192.9ZM290 192.6C290 193.6 284.5 201 283.8 201C283.4 201 284.3 199 285.8 196.5C288.2 192.5 290 190.8 290 192.6ZM336.3 199.9C333.4 203.5 330.7 205.9 329.5 205.9C328 205.9 329.2 204.4 334 200C337.6 196.7 340.6 194 340.8 194C340.9 194 338.9 196.7 336.3 199.9ZM716.4 197.1L720.2 200.3L713.3 203C709.6 204.4 706.4 205.6 706.2 205.5C706.1 205.4 706.4 203.1 707 200.4C708.7 193.1 710.6 192.4 716.4 197.1ZM72.3 200.1C71.8 202.4 69.8 205 66.5 208C63.2 211 62.1 211.7 63.1 210C64 208.6 66.5 204.7 68.6 201.2C72.7 194.7 73.5 194.4 72.3 200.1ZM124.5 198.5C122.9 199.8 120.9 200.9 120.1 201C118.4 201 119 200.3 122.7 197.9C126.8 195.3 127.9 195.6 124.5 198.5ZM1014.4 204.8C1010.7 210.1 1010.5 210.3 1010.2 207.7C1009.5 201.8 1010.3 199.7 1014 198.5C1016.1 197.8 1017.6 197.7 1017.9 198.2C1018.1 198.7 1016.5 201.7 1014.4 204.8ZM201.6 206.2C198.2 210.8 192.8 218.1 189.7 222.5C186.7 226.9 183 231.6 181.5 233L178.8 235.5L179.4 233C179.8 231.6 180.7 227.4 181.5 223.7C183 216.1 185.1 213 188.6 213C189.9 213 191.1 212.6 191.4 212.1C191.8 211.6 191 211.4 189.8 211.7C187.8 212.1 188 211.7 191 209C195.1 205.3 205.8 198 207.1 198C207.6 198 205.1 201.7 201.6 206.2ZM253.8 207C250.2 212.2 247.2 215.6 246.7 215.1C245.4 213.8 247.6 210.3 253.8 203.7C256.8 200.6 259.5 198 259.6 198C259.8 198 257.2 202 253.8 207ZM754.4 205.7C752.4 210 750.6 213.7 750.3 214C750.1 214.2 750.2 212 750.5 209C751.1 204.5 751.8 203 754.3 200.7C756 199.2 757.5 198 757.7 198C757.8 198 756.3 201.5 754.4 205.7ZM144.3 202.6C143.2 204.3 142.4 204.8 142.2 204C141.9 203.3 142.5 202.1 143.6 201.3C146.2 199.4 146.3 199.6 144.3 202.6ZM1006.5 206.6L1004.1 212.5L1004 207.2C1004 202.6 1004.3 201.8 1006.3 201.1C1007.5 200.6 1008.6 200.3 1008.7 200.4C1008.9 200.6 1007.9 203.3 1006.5 206.6ZM88.8 204.1C87.5 205.9 86.4 206.6 86.1 205.9C85.9 205.2 86.7 203.8 88 202.8C91.2 200.2 91.4 200.6 88.8 204.1ZM117.2 202.6C117.5 202.9 114.3 206.6 110.1 210.8C100.2 220.8 87.1 238.2 81.6 248.8C80.6 250.7 79.7 252 79.5 251.8C79.3 251.7 79.6 249.2 80 246.3C81.6 236.8 99.6 213.3 112 204.6C115.7 201.9 116.4 201.7 117.2 202.6ZM714.4 213.2C709.3 223.2 702 232.3 702 228.7C702 225 704.3 217 705.3 217C706.1 217 706.1 216.7 705.2 216.2C704.5 215.7 704.2 214.7 704.5 213.9C705 212.6 717.7 203.1 719.1 203C719.4 203 717.3 207.6 714.4 213.2ZM998.6 211.6C995.7 218.2 994.7 219.6 992.6 219.8L990.1 220.1L993.2 213C995.3 208.3 997.2 205.4 998.9 204.5C1000.3 203.8 1001.6 203.3 1001.7 203.4C1001.9 203.6 1000.5 207.2 998.6 211.6ZM591.8 215.7C588.2 226.2 580.4 242 578.9 242C578.6 242 579.2 236.3 580.3 229.2L582.2 216.5L588.3 210.2C591.7 206.8 594.8 204 595.2 204C595.6 204 594.1 209.3 591.8 215.7ZM888 205.4C888 205.6 887.2 206.4 886.3 207.1C884.7 208.4 884.6 208.3 885.9 206.7C887.2 205.1 888 204.6 888 205.4ZM829.4 210.8C829 212.8 828.3 213.7 827.4 213.3C826.3 212.9 826.3 212.3 827.6 209.8C829.5 206.2 830.2 206.6 829.4 210.8ZM327.4 211.2C326.2 213.2 319.8 222 319.6 222C319.5 222 319.6 220.3 319.8 218.2C320.3 214 323.4 210 326.2 210C327.5 210 327.9 210.4 327.4 211.2ZM792.3 215.6C791.4 218.3 788.4 223.2 785.7 226.5C779.8 233.7 778.1 235.3 780.1 232C787 220.5 793.5 210.2 793.7 210.4C793.9 210.5 793.2 212.9 792.3 215.6ZM483.5 216.1L480.9 221.2L476.7 220.5C474.4 220.1 472.3 219.6 472.2 219.5C472 219.3 472.1 217.8 472.5 216.2C473.2 213 476.6 211.3 482.8 211.1L486 211L483.5 216.1ZM506 218.2C504.8 221.7 503.4 225.5 502.9 226.7C502.3 228.3 501.5 228.7 500 228.3C498.2 227.8 497.9 227.2 498.4 224.7C499 221.6 506.9 210.5 507.8 211.5C508.1 211.7 507.3 214.8 506 218.2ZM1041 212C1041 212.5 1040.5 213 1039.9 213C1039.4 213 1039.2 212.5 1039.5 212C1039.8 211.4 1040.3 211 1040.6 211C1040.8 211 1041 211.4 1041 212ZM298.1 218.3C297.1 219.2 297 219.1 297.6 217.7C297.9 216.7 298.5 216.2 298.8 216.5C299.1 216.8 298.8 217.6 298.1 218.3ZM68.8 226C68.2 230.3 66.7 234.2 64.7 237.5C63 240.2 58.3 248.8 54.3 256.5L46.9 270.5L47.5 264.5C48.2 257.9 50.5 251.2 55.8 240.5C59 234 69 218.6 69.5 219.2C69.7 219.4 69.3 222.4 68.8 226ZM437.8 220.5C438 220.7 434.4 224.6 429.9 229.3C425.3 233.9 418.7 241.5 415.4 246.3C409.4 254.7 409.2 254.8 408.1 252.4C407.5 251 407 249.4 407 248.7C407 246.9 419.8 224 422.4 221.1C424.3 219 425 218.8 431 219.4C434.5 219.8 437.6 220.3 437.8 220.5ZM243.4 221.5C243.8 222.7 236.3 240 234.7 241.7C234.5 241.8 234.7 239.3 235.2 235.9C235.9 230.4 240.5 220 242.1 220C242.5 220 243 220.7 243.4 221.5ZM1040 224.6C1040 225.7 1039.5 226 1038.4 225.6C1037.5 225.3 1036.6 225 1036.4 225C1036.1 225 1036.2 224.5 1036.5 224C1037.5 222.4 1040 222.8 1040 224.6ZM881.6 228.2C880.2 230.6 878 234.5 876.5 237L873.9 241.5L874.5 237C875 233.6 876.2 231.5 879.3 228.2C881.6 225.9 883.6 224 883.8 224C883.9 224 883 225.9 881.6 228.2ZM724.6 231.4C724 234.4 722.3 238.2 720.8 240.1L718 243.5L719.9 238.5C722.7 231.1 725 226 725.4 226C725.6 226 725.2 228.4 724.6 231.4ZM849 235.4C847.8 240.6 846.3 244.1 843.9 247.1C842.1 249.4 840.4 250.8 840.2 250.2C840 249.6 840.6 245.7 841.5 241.5C843 235 843.7 233.6 846.8 231C848.8 229.3 850.5 228 850.6 228C850.7 228 850 231.3 849 235.4ZM1161 230.5C1161 231 1159 234.5 1157.4 236.9C1156.9 237.5 1147 233.8 1147 233C1147 231.7 1152.1 230.2 1156.8 230.1C1159.1 230 1161 230.2 1161 230.5ZM470.8 234C469.4 236.2 468.4 235.9 469.3 233.5C469.7 232.7 470.4 232 471 232C471.6 232 471.6 232.7 470.8 234ZM1039 233.5C1039 235.2 1038.8 235.3 1036.6 234.4C1034.3 233.5 1034.6 232 1037 232C1038.1 232 1039 232.7 1039 233.5ZM988.8 234.8C988.7 235.2 987.7 237.6 986.7 240.1C985.2 243.9 984.4 244.7 982.9 244.3C981.8 244 981.1 243.2 981.4 242.6C981.7 242 982.4 239.8 983.1 237.7C984.1 234.8 984.8 234 986.7 234C988.1 234 989 234.3 988.8 234.8ZM499 236.3C499 237.7 495.7 246 495.1 246C494.7 246 494.8 243.7 495.4 241C496 238.1 496.9 236 497.7 236C498.4 236 499 236.1 499 236.3ZM1034.9 240.1C1033.6 242.7 1032.9 242.2 1033.7 239.2C1034 238 1034.6 237.3 1035.1 237.6C1035.6 237.9 1035.5 239 1034.9 240.1ZM201.1 240.9C196.7 249 188.5 273.8 186 286.3C185 291.3 183.4 294.1 175.7 304.5C170.6 311.3 166.4 316.8 166.3 316.7C165.9 316.2 172.2 294.6 175.5 285.1C181 269.3 187.2 257.3 194.7 247.7C201.6 238.9 202.9 237.5 201.1 240.9ZM1151.1 240.2C1154.8 241.2 1154.9 241.5 1153.7 243.4C1152.9 244.6 1151 249.3 1149.5 254C1147.6 259.6 1145.5 263.9 1143.1 266.7C1141.1 268.9 1139.4 270.7 1139.2 270.5C1138.9 270.2 1143.7 242.8 1144.5 240.2C1145 238.7 1146.2 238.7 1151.1 240.2ZM984 248.2C984 250.2 976.2 261.5 975.3 260.7C975.1 260.4 976.1 257.1 977.6 253.1C979.6 247.7 980.7 246 982.1 246C983.4 246 984 246.7 984 248.2ZM491.9 255.9C489 263.9 488.4 263.2 491.1 255.1C492.3 251.7 493.4 249.1 493.7 249.4C494 249.6 493.2 252.6 491.9 255.9ZM404.3 264.1C402.3 267.8 401.1 269 399.3 269C398.1 269 397 268.8 397 268.5C397 268.2 398.4 265.2 400.1 261.9C403 256 403.2 255.9 405 257.5C406.9 259.3 406.9 259.4 404.3 264.1ZM327.1 263C326 266 324.7 268.6 324.1 268.8C323.5 269 323 268.9 323 268.6C323 267.7 328.4 257 328.7 257.3C328.8 257.5 328.1 260.1 327.1 263ZM693.3 267.2C690.4 277.2 683.6 305 682 314C680.5 321.7 675.8 330 672.8 330C671.4 330 671 329.5 671.4 328.5C671.7 327.7 676.6 312.5 682.4 294.8C694.4 257.8 694 259 695 259C695.4 259 694.7 262.7 693.3 267.2ZM560 263C560 264.1 559.6 265 559.1 265C558.6 265 558.4 264.1 558.7 263C559 261.9 559.4 261 559.6 261C559.8 261 560 261.9 560 263ZM263.5 268.2C262.6 272.5 261.9 273.1 259.6 271.5C257.9 270.2 257.9 270 260.3 267.6C263.7 264.2 264.3 264.3 263.5 268.2ZM716.3 272.2C715 277.9 709.6 286.9 708.2 285.6C707.7 285 716.6 266 717.3 266C717.5 266 717.1 268.8 716.3 272.2ZM558.6 271.2C558.3 273.6 557.8 277.8 557.4 280.5C557 284.1 556 286.5 553.8 288.9C552.2 290.7 550.7 292 550.4 291.7C550.2 291.5 551.5 286 553.5 279.7C555.4 273.3 557 267.8 557 267.5C557 267.2 557.5 267 558.1 267C558.8 267 559 268.4 558.6 271.2ZM400 271.5C400 273.9 391.1 289.5 390.3 288.6C389.9 288.2 394.5 272.8 395.6 270.8C396 270.3 400 270.9 400 271.5ZM771.5 277.7C770.2 281.5 767 288.5 764.5 293.3C760 301.9 759.8 302.1 758.3 300C756.3 297.1 756.8 295.6 764.7 282.4C772.5 269.3 775.1 267.5 771.5 277.7ZM1181.6 284.2L1187.1 292L1180.7 300.2C1174 308.9 1164.3 323.2 1159.6 331.2C1157 335.7 1156.5 336 1152.8 336C1149.4 336 1148.9 335.7 1149.5 334.2C1149.9 333.3 1154.7 319.2 1160.1 303C1165.5 286.8 1170.3 272.8 1170.6 272C1171.3 270.2 1173.1 272.3 1181.6 284.2ZM606.4 280.2C606 282.6 603.4 289.9 600.5 296.5C597.7 303.1 594.2 311.5 592.9 315.2C591.6 319 590.2 322 589.8 322C589.3 322 589 321.7 589 321.4C589 320.5 606.4 276 606.7 276C606.9 276 606.7 277.9 606.4 280.2ZM256.9 295.6C255.9 300.2 254.5 305.1 253.8 306.5C252.4 309 252.4 309 248.2 301.5L244 293.9L248 287L252.1 280.2L255.4 283.8L258.7 287.4L256.9 295.6ZM1035 287.2C1035 289 1034.8 289.2 1034.1 288C1033.5 287.2 1033.4 286.2 1033.6 285.8C1034.5 284.4 1035 284.9 1035 287.2ZM1031.8 295.6L1034 300.1L1027.3 312.6C1020.9 324.4 1018.3 327.3 1018.7 321.9C1018.8 320.6 1019.2 315.6 1019.5 310.8C1020.1 302.5 1020.4 301.7 1024.3 296.5C1026.5 293.5 1028.6 291 1029 291C1029.3 291 1030.6 293 1031.8 295.6ZM103.1 315.5C100.5 328.2 100.1 329.5 98 329.8C96.6 330 95.9 329.7 96.2 328.8C97.1 325.2 105.4 301 105.6 301.3C105.8 301.4 104.6 307.8 103.1 315.5ZM242.4 305.2C243.5 307 245.6 310.4 247.2 312.8L250 317.1L246.9 326.1C243.9 334.7 243.6 335.1 241.1 334.6C239.7 334.3 235.4 333.8 231.7 333.5L224.8 332.8L225.5 329.2C226.2 325.6 238.7 302 240 302C240.3 302 241.4 303.5 242.4 305.2ZM75.5 306.7C75.1 307.7 73.2 312.5 71.4 317.5C68.9 324 68.2 325.4 68.6 322.5C69.1 318.9 74.8 305 75.8 305C76 305 75.9 305.8 75.5 306.7ZM553.3 310.7C552.3 317.5 552 318 549.5 318C546.4 318 546.4 317.9 549.6 311.9C552.5 306.7 554 306.2 553.3 310.7ZM756 310.2C756 310.9 755.5 312.2 755 313C754.2 314.2 754 313.9 754 311.7C754 310.2 754.5 309 755 309C755.6 309 756 309.6 756 310.2ZM922.9 319.6C922.3 323.4 921.7 326.6 921.6 326.7C921.6 326.8 920.3 327.1 918.7 327.5C916.5 328.1 916 327.9 916 326.4C916 324.7 923.2 311.9 923.8 312.5C924 312.6 923.6 315.9 922.9 319.6ZM888.5 338C888.2 338.5 887.5 339 886.9 339C886.4 339 886 338.5 886 338C886 337.4 886.7 337 887.6 337C888.4 337 888.8 337.4 888.5 338Z" fill="#FAFAFA"/>
<path d="M1992.2 1.95803C1992.1 3.85803 1989.3 16.158 1985.9 29.458C1980.5 50.958 1979.7 55.358 1978.6 70.358C1977.5 85.958 1977.2 87.358 1975.1 88.758C1960.2 99.258 1942.4 119.858 1923.5 148.958C1923.4 149.058 1920.6 149.858 1917.4 150.758C1914.2 151.558 1908.5 153.658 1904.7 155.358C1901 157.058 1897.7 158.258 1897.5 157.958C1897.2 157.658 1897.2 155.558 1897.6 153.158L1898.3 148.958L1904.7 149.358C1911.5 149.758 1911.2 148.858 1904.2 147.658C1901.8 147.258 1899.6 146.358 1899.4 145.758C1899.1 145.058 1899.8 138.558 1901 131.158C1902.1 123.558 1903 112.958 1903 106.358V94.858L1907.8 90.358C1912 86.458 1921.4 78.958 1926.6 75.358C1930.6 72.658 1923.5 75.2581 1913.8 80.1581L1904 84.9581V81.9581C1904 79.1581 1904.2 78.9581 1906.8 79.4581L1909.5 80.0581L1906.6 78.858C1903.8 77.658 1903.8 77.6581 1904.2 70.9581C1904.5 67.1581 1904.3 64.1581 1903.9 64.1581C1903.4 64.1581 1903 65.2581 1903 66.5581C1903 68.9581 1901.2 75.158 1900.1 76.358C1899.8 76.758 1895.4 76.3581 1890.5 75.4581C1873.6 72.5581 1856.2 75.558 1842.1 83.858C1828.7 91.858 1814 108.458 1804.6 126.158C1796.9 140.758 1795.4 139.858 1799.8 123.258C1801.6 116.758 1803 111.058 1803 110.558C1803 110.058 1801.7 111.958 1800.2 114.758C1795.1 124.358 1791.5 130.158 1790.8 130.158C1790.1 130.158 1789.4 97.958 1790 92.758C1790.1 91.658 1789.7 91.2581 1789.1 91.5581C1788.5 91.9581 1788 93.4581 1788 94.9581C1788 96.4581 1785.6 107.058 1782.7 118.558L1777.4 139.458L1773.7 140.758C1771.6 141.558 1770 141.658 1770 141.058C1770 140.558 1770.9 136.058 1772 131.058C1774.2 121.358 1774.2 118.258 1772.1 125.358C1771.4 127.758 1768.7 133.058 1766.2 137.258C1761.9 144.458 1761.3 145.058 1754.6 148.258C1747.3 151.758 1737.8 158.158 1732.3 163.458L1729 166.558V164.058C1729 162.758 1729.7 157.558 1730.6 152.658C1732.2 143.158 1733.9 131.458 1734 129.458C1734 127.858 1737.7 125.458 1744.7 122.558C1751.7 119.758 1749.6 119.358 1741.4 122.058C1738.2 123.158 1735.5 123.958 1735.4 123.858C1735.4 123.758 1735.7 113.958 1736.1 102.158C1736.5 90.3581 1736.9 76.5581 1736.8 71.6581V62.658L1735.5 68.6581C1734.8 71.9581 1733.6 75.9581 1733 77.6581C1728.1 89.9581 1719.5 116.958 1718.6 123.158L1717.5 130.558L1711.3 134.458L1705.1 138.258L1699.1 137.058C1695.7 136.458 1693 135.558 1693 135.058C1693 134.658 1699.1 118.658 1706.5 99.6581C1718.2 69.3581 1720.8 61.758 1726.5 39.458C1730.1 25.358 1732.9 13.758 1732.7 13.458C1732.4 13.258 1731.8 14.358 1731.2 16.058C1730.6 17.658 1724.4 28.258 1717.5 39.558L1704.8 60.058L1690.5 97.758L1676.3 135.358L1671.9 137.358C1669.5 138.358 1666 140.758 1664.2 142.458C1661.1 145.458 1660.4 145.658 1653.7 145.758C1648.4 145.758 1645.4 146.358 1642.4 147.958C1638.2 150.058 1630.2 158.158 1624 166.458C1622.1 168.958 1620.3 171.158 1620 171.158C1619.7 171.158 1619.9 164.058 1620.4 155.458C1621.2 141.358 1621.5 139.558 1623.4 137.958L1625.5 136.258L1623.3 136.858C1621.6 137.258 1621.2 136.958 1621.5 135.458C1621.7 134.458 1622.1 129.158 1622.3 123.658L1622.8 113.658L1621 120.158C1620.1 123.758 1617.9 129.758 1616.3 133.658C1613.6 140.158 1612.9 140.858 1607.4 143.958C1604.2 145.758 1599.8 148.458 1597.8 149.858L1594 152.458L1583.8 149.658C1578.1 148.058 1573.1 146.458 1572.7 146.158C1570.9 144.558 1580 132.258 1591.5 120.758C1603.6 108.558 1616.2 98.7581 1625.8 94.1581C1628.6 92.7581 1630.9 91.3581 1631 90.9581C1631 90.0581 1615.4 94.958 1609.6 97.758C1606.9 99.058 1604.5 99.958 1604.3 99.758C1603.6 99.058 1622.4 82.0581 1628.3 78.1581C1631.5 75.9581 1633.8 74.1581 1633.2 74.1581C1630.3 74.1581 1614.9 81.758 1606.9 87.258C1598 93.258 1582.9 108.158 1572.2 121.558C1567 128.058 1557.9 138.558 1552.1 144.958C1546.3 151.258 1539.4 159.058 1536.8 162.258C1532.2 167.858 1532 167.958 1528.5 167.158C1526.5 166.658 1524.7 166.158 1524.5 165.958C1523.9 165.358 1525.1 161.158 1525.9 161.158C1526.3 161.158 1527.5 160.458 1528.6 159.558C1530.4 158.058 1530.4 158.058 1528.3 158.658C1526.7 159.058 1526 158.858 1526 157.858C1526 156.758 1530.8 132.858 1532.7 124.358C1533.6 120.658 1532.1 121.958 1531.1 125.858C1530.5 127.958 1525.2 137.758 1519.2 147.658L1508.4 165.658H1492.7C1484.1 165.658 1477 165.558 1477 165.458C1477 165.358 1478.4 163.058 1480.1 160.358L1483.2 155.358L1488.8 156.658C1497.6 158.658 1504.2 159.258 1508 158.258C1512.2 157.258 1511.1 156.758 1500.7 155.158C1496.4 154.558 1491.3 153.458 1489.4 152.858L1486 151.658L1490.3 146.458C1495 140.758 1506.2 130.558 1512.8 125.958C1515.2 124.358 1520.8 121.158 1525.3 119.058C1532.4 115.658 1532.9 114.958 1527 116.958C1522.9 118.358 1528.6 114.658 1537.5 110.158C1543 107.458 1547.2 105.158 1546.8 105.158C1544.3 105.158 1527.6 109.658 1522.1 111.858C1509.1 117.058 1492.8 127.458 1478.4 139.958L1470.3 146.958L1464.9 146.058C1454.1 144.258 1444.3 147.458 1438.2 154.858C1435.2 158.358 1431.9 160.558 1421.5 165.558C1414.4 169.058 1405.9 172.858 1402.8 174.058C1396 176.458 1381.7 183.558 1377.7 186.358C1376.1 187.458 1374.7 188.258 1374.5 188.058C1374 187.458 1387.9 170.958 1398.7 159.258L1408.3 148.958L1413.3 149.458C1416.1 149.658 1417.6 149.558 1416.8 149.058C1416.1 148.558 1414.6 148.158 1413.4 148.158C1412.3 148.158 1411.1 147.858 1410.8 147.558C1409.8 146.658 1426.6 131.458 1437.3 123.458C1442.8 119.458 1452.3 113.558 1458.4 110.558C1467.1 106.258 1468.6 105.158 1465.5 105.758C1444 109.458 1422 120.758 1400.7 139.158L1394.8 144.158H1387.5C1377.1 144.158 1365.7 146.558 1357.1 150.658C1353.1 152.558 1350.2 153.558 1350.8 152.858C1353 150.258 1371.6 141.258 1380 138.758C1384.7 137.358 1387.3 136.258 1385.8 136.258C1380.2 136.058 1357.1 141.358 1349 144.658C1344.4 146.558 1340.4 147.958 1340.3 147.758C1340.1 147.558 1341.1 142.158 1342.4 135.558C1343.8 129.058 1344.7 123.558 1344.5 123.258C1344.2 123.058 1344 123.458 1343.9 124.258C1343.9 125.058 1343.5 124.858 1343 123.658C1342.3 121.858 1342.2 121.958 1341.5 124.658C1341.1 126.258 1337.2 134.058 1332.7 141.758C1326.2 153.258 1324.4 155.758 1322.9 155.458C1320.6 154.858 1320.7 156.658 1322.5 134.258C1324 116.958 1324 110.258 1322.6 119.058C1322.3 121.258 1318.9 130.158 1315.1 138.858C1308.4 153.958 1308 154.658 1303.8 156.758C1301.4 157.958 1296.6 161.958 1293 165.558C1289.5 169.158 1286.3 172.158 1286 172.158C1285.6 172.158 1285.9 168.658 1286.6 164.358C1287.3 160.158 1287.9 156.058 1287.9 155.258C1288 154.258 1289.2 154.058 1293.3 154.458L1298.5 155.058L1293.8 153.558C1290.3 152.458 1289 151.558 1289 150.158C1289 149.158 1292.1 127.258 1295.9 101.458C1302.8 54.8581 1302.8 54.558 1303.3 28.158C1303.6 13.558 1303.6 2.95803 1303.3 4.65803C1303.1 6.25803 1299.1 18.858 1294.5 32.658L1286.2 57.658L1279.9 103.458L1273.6 149.258L1269 148.658C1260.4 147.458 1246.4 150.258 1233.6 155.658C1232 156.358 1231.8 156.158 1232.3 154.858C1233.3 152.158 1234.9 128.258 1235.3 109.158L1235.7 91.6581L1234 98.1581C1233 101.758 1229.5 112.758 1226.1 122.658C1221.1 136.958 1219.4 143.458 1217.9 154.058L1216 167.358L1209.1 174.658C1205.3 178.658 1199.9 185.258 1197 189.358L1191.8 196.658L1192.5 188.658C1192.8 184.258 1194.2 166.658 1195.6 149.658C1197.8 121.758 1198 115.658 1197.3 88.6581C1196.8 67.3581 1196.3 59.958 1195.7 63.158C1195.3 65.658 1192.2 78.4581 1189 91.6581L1183.1 115.658L1180.5 151.158C1179.1 170.658 1177.1 196.758 1176 209.158L1174.2 231.658L1167.6 250.658C1160.2 272.158 1154.7 292.858 1150 317.658C1148.2 327.058 1146.1 335.158 1145.4 335.758C1144.4 336.558 1144 339.158 1144 343.858C1144 347.758 1142.9 360.258 1141.5 371.758C1140.1 383.258 1139 395.258 1139 398.358C1139 403.558 1139.2 404.158 1141.1 404.158C1142.2 404.158 1143.9 404.558 1144.8 405.058C1145.7 405.458 1148.6 406.158 1151.2 406.458C1155.5 407.058 1156 406.958 1156 405.158C1156 403.558 1156.7 403.158 1159 403.158C1160.7 403.158 1162 403.558 1162 404.158C1162 405.258 1168.4 407.158 1172.3 407.158C1174.4 407.158 1175 406.658 1175 405.058C1175 402.958 1175.3 402.958 1184.3 403.458C1194.8 404.158 1196.4 404.458 1200.3 406.058C1203.9 407.458 1203.7 407.558 1204.3 405.158C1204.8 403.358 1205.7 403.158 1212.4 403.158C1217.6 403.158 1221.6 403.758 1225.2 405.158C1229.6 406.858 1230.7 406.958 1231.4 405.858C1232.1 404.758 1233.2 404.658 1237.8 405.758C1242.9 406.958 1243.2 406.958 1243.7 405.058C1244.2 403.158 1244.9 403.058 1255.9 403.458C1262.3 403.658 1269.3 404.258 1271.5 404.858C1273.7 405.458 1277.6 406.258 1280.3 406.658C1284.6 407.258 1285 407.058 1285 405.258C1285 403.258 1285.6 403.158 1294.3 403.158C1299.4 403.158 1304 403.558 1304.6 404.058C1306.2 405.558 1314 407.058 1314.6 405.958C1314.9 405.458 1315.9 405.358 1316.9 405.658C1317.8 406.058 1323.2 406.558 1328.8 406.758C1338.5 407.158 1339.2 407.058 1339.7 405.158C1340.2 403.258 1341.1 403.158 1354.9 403.158C1366.8 403.158 1370.6 403.558 1375.4 405.158C1381.2 407.158 1382.9 406.858 1383 403.858C1383 403.458 1392.8 403.158 1404.8 403.158C1423.8 403.158 1427.4 403.458 1432.3 405.058C1436.3 406.458 1438 406.658 1438.3 405.858C1438.6 404.958 1439.7 404.958 1443.1 405.858C1447.2 406.958 1447.6 406.858 1449.1 404.958C1450.6 402.958 1451.4 402.858 1459.5 403.558C1464.4 403.858 1468.8 404.558 1469.4 405.058C1470 405.458 1472.4 406.158 1474.7 406.558C1478.1 407.058 1479.1 406.858 1479.9 405.458C1480.8 403.758 1481.1 403.758 1485.6 405.458C1490.2 407.158 1490.3 407.158 1491.7 405.158C1493 403.258 1494.2 403.158 1508.1 403.158C1520.5 403.158 1524.1 403.458 1529.1 405.158C1534.8 407.058 1535.3 407.158 1536.4 405.558C1537.4 404.358 1538.1 404.158 1539.6 404.858C1540.6 405.458 1542.7 406.158 1544.2 406.558C1546.3 407.058 1547 406.758 1547.5 405.158C1548.1 403.358 1549 403.158 1558.4 403.158C1566.1 403.158 1570.2 403.658 1574.5 405.158C1577.7 406.258 1580.4 407.158 1580.5 407.158C1580.7 407.158 1581 406.258 1581.3 405.158C1581.8 403.258 1582.7 403.158 1610.8 403.158C1635.3 403.158 1639.9 403.358 1641 404.658C1642.4 406.358 1647 406.658 1647 405.058C1647 404.458 1647.7 404.758 1648.6 405.558C1650.9 407.958 1654 407.558 1654 405.058C1654 403.058 1654.4 402.958 1666.3 403.258C1673.7 403.558 1679.3 404.158 1680.1 404.858C1680.9 405.458 1684.1 406.258 1687.3 406.658C1692.7 407.358 1693 407.258 1693 405.258C1693 403.258 1693.4 403.158 1707.9 403.158C1717.9 403.158 1725.1 403.658 1729.6 404.758C1733.3 405.558 1739.8 406.458 1744.2 406.658C1751.6 407.058 1752 406.958 1752 405.058C1752 403.158 1752.5 403.058 1756.3 403.458C1758.6 403.758 1764.3 404.758 1768.9 405.658C1774.9 406.758 1777.5 406.958 1778 406.158C1778.5 405.358 1779.5 405.358 1781.4 406.158C1784.9 407.458 1784.7 407.558 1785.3 405.058C1785.9 402.958 1786.2 402.858 1799.2 403.358C1806.5 403.658 1813.6 404.358 1815 404.858C1816.4 405.458 1819.4 406.158 1821.8 406.558C1825.6 407.158 1826 406.958 1826 405.158C1826 403.558 1826.7 403.158 1829.4 403.158C1831.3 403.158 1833.1 403.558 1833.4 404.058C1833.7 404.558 1835.6 405.258 1837.6 405.558C1839.5 405.958 1841.7 406.458 1842.5 406.758C1843.2 407.058 1844.1 406.458 1844.5 405.258C1845 403.458 1845.4 403.358 1848.3 404.658C1850.1 405.358 1853.4 406.258 1855.6 406.658C1859.3 407.258 1859.8 407.058 1860.3 405.058C1860.9 402.958 1861.3 402.958 1869.4 403.358C1874 403.558 1878.4 404.258 1879.2 404.858C1879.9 405.458 1882.4 406.158 1884.6 406.558C1888.3 407.058 1888.8 406.858 1889.3 405.058C1889.8 403.158 1890.4 402.958 1893.7 403.558C1895.8 403.858 1898.4 404.258 1899.5 404.458C1900.6 404.558 1901.7 404.958 1902 405.258C1902.3 405.558 1903.7 406.158 1905.3 406.558C1907.6 407.058 1908 406.858 1908 405.058C1908 402.858 1908.2 402.858 1918.6 403.458C1924.4 403.758 1929.7 404.458 1930.3 404.958C1931 405.458 1933.4 406.158 1935.7 406.558C1939.3 407.058 1940.1 406.858 1941 405.158C1942.1 403.158 1948 402.158 1948 404.058C1948 404.558 1950.8 405.458 1954.3 406.058C1962.4 407.458 1962 407.558 1962 405.058C1962 402.958 1962.3 402.858 1970.1 403.458C1974.6 403.758 1978.6 404.358 1978.9 404.958C1979.2 405.458 1981.6 406.158 1984.3 406.458C1988.1 406.958 1989 406.858 1989 405.558C1989 404.558 1989.6 404.158 1990.8 404.558C1996.8 406.358 2001.5 406.958 2002.1 405.958C2002.6 405.158 2003.7 405.158 2005.9 405.958C2008.6 406.958 2009.2 406.758 2010.3 405.158C2011.8 402.658 2014.2 402.658 2021.5 405.158C2024.7 406.258 2027.4 407.158 2027.5 407.158C2027.7 407.158 2028 406.258 2028.3 405.158C2029 402.558 2031.5 402.658 2038.1 405.158L2043.3 407.258L2044.7 405.158C2046 403.258 2047.1 403.158 2065.3 403.158C2080.7 403.158 2085.8 403.558 2091 404.958C2098.8 407.158 2103.9 407.058 2105.2 404.858C2106 403.358 2108.6 403.158 2128 403.158C2145.6 403.158 2150.1 403.458 2150.7 404.558C2151.2 405.358 2154.1 406.258 2157.8 406.658C2163.7 407.358 2164 407.258 2164 405.258C2164 404.058 2164.5 403.158 2165 403.158C2165.6 403.158 2166 403.558 2166 404.158C2166 405.158 2172.3 407.158 2175.7 407.158C2177 407.158 2178.1 406.358 2178.5 405.158C2179.3 402.758 2184.6 402.358 2186.4 404.558C2187 405.358 2190 406.258 2193.1 406.658C2198.2 407.258 2198.8 407.058 2199.3 405.258C2199.8 403.358 2200.6 403.158 2208.5 403.158C2214.9 403.158 2217.5 403.558 2218.7 404.658C2219.5 405.458 2221.4 406.158 2222.8 406.058C2224.3 406.058 2227.4 406.358 2229.8 406.758C2233.6 407.358 2234 407.258 2234 405.258C2234 403.558 2234.5 403.258 2236.3 403.658C2251.5 407.158 2251.3 407.158 2252.5 405.458C2253.6 403.958 2254.1 403.958 2258.3 405.458C2262.8 406.958 2263 406.958 2264 405.058C2265.4 402.458 2273.2 402.458 2280.2 405.158C2283.1 406.258 2285.6 407.158 2285.6 407.158C2285.7 407.158 2286 406.258 2286.3 405.158C2286.8 403.258 2287.7 403.158 2298.4 403.158H2310V373.458V343.758L2314.2 336.758C2319.1 328.358 2333.8 306.358 2335 305.658C2335.4 305.358 2337.8 307.558 2340.4 310.558C2344.1 314.958 2352.3 321.158 2354.3 321.158C2354.5 321.158 2351.5 316.158 2347.4 309.958L2340.1 298.758L2344.1 293.958C2357.8 277.658 2366.5 270.458 2370 272.658C2371.6 273.658 2379.8 286.258 2388 300.158C2397.8 316.958 2403.4 324.658 2408.3 328.258C2410.5 329.858 2412.5 331.058 2412.7 330.858C2413.3 330.258 2394.9 296.958 2390 289.658C2383.8 280.558 2379.5 276.558 2368.6 269.758C2355.2 261.458 2353.3 261.858 2339.6 276.258L2330.9 285.358L2329.2 283.058C2326 278.358 2317.9 270.458 2314.5 268.558C2312.6 267.558 2311.2 266.258 2311.4 265.658C2311.7 265.158 2313.3 260.258 2315.1 254.858C2317.4 248.258 2318.9 245.158 2320 245.158C2321.1 245.158 2321.2 244.958 2320.2 244.358C2319.2 243.658 2319.2 242.458 2320.2 238.258L2321.4 233.058L2326.7 233.758C2329.6 234.058 2332 234.158 2332 233.858C2332 233.558 2333.5 229.758 2335.4 225.258L2338.9 217.258L2333.2 220.058C2330.1 221.658 2326.5 223.258 2325.3 223.658C2323.2 224.258 2323.1 224.058 2323.7 220.958C2324.1 219.158 2325.8 210.658 2327.5 202.158C2329.3 193.658 2330.6 186.558 2330.5 186.358C2330.4 186.258 2329.5 188.258 2328.5 190.758C2326.8 195.258 2314 217.458 2313.5 216.958C2313.3 216.758 2313.8 213.758 2314.6 210.158C2316.4 201.558 2316.3 199.758 2314.2 204.758C2311 212.558 2303.6 224.258 2302.3 223.758C2299.3 222.558 2287.9 220.958 2286.5 221.558C2285.5 221.858 2285 221.458 2285 220.258C2285 217.358 2300.9 202.058 2310.4 195.658C2315.2 192.558 2322 188.658 2325.8 187.058C2335.4 182.958 2331 183.458 2317 188.158C2304.6 192.258 2296.3 196.058 2289.8 200.558L2286 203.058V199.358C2286 197.358 2286.3 192.658 2286.6 188.958C2287.2 183.558 2287.7 182.158 2289.4 181.258C2291.4 180.258 2291.4 180.258 2289 180.558C2286.7 180.858 2284.1 181.658 2281.5 182.958C2277.9 184.758 2283.8 180.458 2291 176.058C2295.7 173.258 2298.6 171.158 2297.5 171.558C2288 174.258 2278.8 177.558 2275.3 179.558C2272.9 180.958 2271 181.658 2271 181.258C2271 179.758 2288.6 163.558 2293.9 160.158C2296.7 158.258 2298.8 156.658 2298.7 156.458C2297.9 155.758 2283.4 162.458 2277.9 166.058C2271.5 170.358 2271.4 170.258 2273.1 161.958C2273.9 157.958 2274.8 156.058 2276.4 155.358C2278.1 154.458 2278.2 154.258 2276.8 154.258C2274.5 154.158 2274.5 153.458 2277.9 136.158C2279.5 128.158 2280.7 121.558 2280.5 121.358C2280.3 121.158 2279.6 122.758 2279 124.858C2277.5 129.458 2261.5 157.458 2259.3 159.358C2257.9 160.458 2257.8 160.258 2258.3 157.658C2258.7 155.958 2259.9 149.258 2261.1 142.658C2263.2 131.158 2263.5 130.458 2268.1 124.558C2281.3 107.858 2297 97.0581 2314.6 92.6581C2321.9 90.8581 2338.7 90.2581 2345 91.6581C2346.9 92.0581 2348.2 92.058 2347.9 91.758C2346.9 90.758 2328.1 86.458 2321.3 85.758C2317.8 85.358 2311.4 85.5581 2306.9 86.1581C2291.6 88.2581 2279.9 93.9581 2267.8 105.058L2260.9 111.458L2254.2 108.858C2247 105.958 2237.6 103.658 2229.5 102.558L2224.6 101.958L2227 100.058C2232.1 96.0581 2247.2 89.2581 2254.5 87.6581C2259.9 86.4581 2265.3 86.058 2273.9 86.258C2280.5 86.458 2285.7 86.558 2285.6 86.358C2285.4 86.258 2281.1 85.1581 2275.9 84.0581C2262.1 80.9581 2245 80.8581 2235 83.9581C2225.2 87.0581 2217.2 91.5581 2208.3 99.0581L2201 105.158V96.258V87.358L2207.3 82.358C2210.7 79.658 2214.6 76.858 2215.8 76.258C2217.1 75.558 2218 74.8581 2217.8 74.5581C2217.3 74.1581 2208.1 77.5581 2204 79.6581C2201.4 80.9581 2201.2 80.958 2200.6 78.858C2200.3 77.658 2200 72.5581 2199.9 67.6581C2199.7 59.1581 2199.7 58.9581 2199 64.1581C2197.8 72.6581 2194.3 85.458 2192.8 86.258C2190.7 87.458 2183.6 93.2581 2176.7 99.4581L2170.2 105.258L2164.4 103.958L2158.5 102.658L2164.5 98.858C2167.8 96.758 2172.2 94.358 2174.2 93.358C2176.3 92.458 2178 91.3581 2178 90.9581C2178 89.8581 2161.9 95.1581 2153.4 99.0581C2149 101.158 2143 103.158 2140.1 103.558C2133.8 104.358 2123.5 108.158 2116.2 112.258C2113.3 113.858 2110.5 114.958 2110 114.658C2109.4 114.258 2109 114.658 2109 115.458C2109 116.258 2107.8 117.758 2106.3 118.758C2104.7 119.758 2101.1 122.758 2098.1 125.558L2092.7 130.658L2093.4 127.158C2093.8 125.258 2094.3 122.758 2094.6 121.658C2095 119.458 2094.3 120.958 2090.5 129.758C2089.2 132.658 2085.5 138.258 2082.2 142.258C2074.2 152.058 2064.9 166.258 2057.5 179.858C2051.8 190.358 2051.2 191.058 2046.1 193.558C2043.2 195.058 2040.6 196.058 2040.4 195.958C2040.2 195.758 2040.4 192.258 2040.7 188.258C2041.3 181.558 2041.7 180.458 2045.9 174.858C2053.3 164.958 2068.8 149.458 2077.7 142.958C2082.3 139.658 2086 136.758 2086 136.658C2086 135.858 2073.3 141.358 2067.2 144.658C2051.5 153.358 2034.1 169.758 2017.7 191.558C2015.7 194.258 2014 196.158 2014 195.758C2014 193.358 2024.3 167.358 2029.5 156.658C2038.4 138.458 2046.6 126.358 2057.9 115.158C2076 97.1581 2092.5 90.4581 2117 91.0581C2120.6 91.1581 2124.9 91.458 2126.5 91.758C2133.5 93.158 2127.5 90.8581 2117.9 88.5581C2107.8 86.0581 2106.6 85.958 2073 85.858C2035.2 85.758 2032.6 86.0581 2020.3 91.6581C2011.1 95.8581 2005.5 99.8581 1996.8 108.058L1989.8 114.658L1990.5 103.658C1992 82.458 1991.7 83.258 1998.2 78.758C2001.4 76.558 2003.8 74.6581 2003.6 74.4581C2003.4 74.2581 2001.2 75.0581 1998.6 76.1581C1996 77.2581 1993.7 78.1581 1993.5 78.1581C1993.3 78.1581 1993.4 67.958 1993.6 55.358C1994 37.058 1992.7 -10.142 1992.2 1.95803ZM1898.5 79.1581C1898.9 79.7581 1898.4 82.5581 1897.4 85.4581C1896 89.7581 1893.8 92.4581 1884 102.158C1877.5 108.558 1868.3 119.158 1863.1 126.158C1858 133.058 1852.9 139.258 1851.7 139.958C1850.2 140.758 1847.6 141.058 1844 140.658C1837.9 139.958 1816.7 136.158 1816.2 135.658C1815.5 134.958 1824.1 121.158 1830.1 113.258C1847 90.758 1868.1 79.358 1894.7 78.258C1896.4 78.258 1898.2 78.6581 1898.5 79.1581ZM2035.4 97.9581C2027.9 102.958 2023 107.458 2016.8 114.958C2012.2 120.458 2009 123.158 2004.7 125.358C2001.4 126.958 1998.7 128.158 1998.5 127.958C1997.7 127.158 2009.5 114.158 2015.5 109.158C2021.6 104.058 2036.2 95.1581 2038.5 95.1581C2039.1 95.1581 2037.7 96.3581 2035.4 97.9581ZM1975 119.158C1973.6 136.058 1973 140.358 1971.2 143.658C1968.6 148.558 1968.6 147.158 1971 135.658C1972 130.758 1972.7 126.558 1972.6 126.358C1972.4 126.258 1971.3 128.758 1970.1 131.858C1967.3 139.458 1959.7 151.658 1957.9 151.458C1955.2 151.158 1941.5 148.758 1941.1 148.558C1940.5 148.058 1951.2 131.158 1959.1 120.058C1966.5 109.658 1976.1 97.758 1976.5 98.358C1976.6 98.558 1975.9 107.858 1975 119.158ZM2189.3 104.958C2187.6 111.558 2187.5 111.658 2183.5 110.158L2180.9 109.158L2185.6 103.658C2188.2 100.558 2190.4 98.2581 2190.6 98.4581C2190.8 98.5581 2190.2 101.558 2189.3 104.958ZM2045.9 107.358C2035.5 117.358 2024.4 133.158 2016.3 149.658C2013.4 155.458 2011.9 157.358 2009.6 158.158C2008 158.658 2006.5 159.158 2006.3 159.158C2006.1 159.158 2007.7 155.658 2009.9 151.358C2018.6 134.158 2032.1 116.658 2044.3 106.958C2050.7 101.958 2051.4 102.158 2045.9 107.358ZM2158.1 119.858C2149.1 131.058 2139 146.058 2130.4 160.858C2125 170.058 2124.1 171.058 2120.5 172.158C2118.3 172.858 2114.3 174.558 2111.5 176.058C2108.8 177.458 2106.2 178.758 2105.8 178.958C2105.5 179.158 2105.6 177.558 2106.1 175.458C2106.6 173.358 2107 169.658 2107 167.158C2107.1 157.758 2107.9 155.758 2116.6 144.858C2121.2 139.058 2129.7 129.358 2135.5 123.358C2147 111.358 2148.6 110.558 2160.7 110.258L2166 110.158L2158.1 119.858ZM2254 111.258C2256.7 111.858 2259 112.658 2259 112.958C2258.9 113.358 2257.7 115.058 2256.2 116.758C2254.2 119.058 2251.6 120.558 2246.3 122.058C2229.2 127.158 2214.1 134.658 2203.9 143.258L2199 147.358L2199.6 140.958C2199.9 137.558 2200.3 133.258 2200.6 131.458C2201.2 127.358 2209.3 116.358 2212.8 114.958C2223.5 110.658 2242.9 108.858 2254 111.258ZM2186.2 113.058C2186.6 113.458 2184.3 115.658 2181.1 117.958C2177.9 120.358 2173.1 124.358 2170.5 126.758C2164.5 132.558 2164.9 131.458 2172.9 120.158C2179.1 111.358 2179.4 111.058 2182.4 111.758C2184.1 112.058 2185.8 112.658 2186.2 113.058ZM1886 121.158C1885.5 124.158 1884.6 130.558 1884 135.258L1882.8 143.858L1875.2 144.458C1870.9 144.658 1867.4 144.758 1867.2 144.658C1867 144.458 1868.7 141.358 1871 137.658C1876 129.558 1886.1 114.958 1886.5 115.358C1886.7 115.558 1886.4 118.158 1886 121.158ZM2247.6 128.358C2242.3 136.058 2233.3 152.958 2229 163.258C2226 170.758 2225.8 170.958 2221.4 172.058C2219 172.658 2214.5 174.258 2211.5 175.658L2206 178.058L2201.5 176.058C2198.9 174.858 2197 173.358 2197 172.458C2197 169.858 2201.5 164.758 2207.4 160.658C2213.3 156.558 2214.2 154.958 2209.1 157.658C2207.4 158.458 2206 158.958 2206 158.558C2206 157.058 2217.2 144.258 2222.2 140.058C2231.9 131.958 2247.3 122.258 2250.7 122.158C2251.4 122.158 2250 124.958 2247.6 128.358ZM1998.4 141.758C1996.1 146.058 1992.8 152.358 1991.3 155.758C1989.8 159.258 1988.2 162.158 1987.7 162.158C1986.3 162.158 1985.8 159.158 1986.5 154.558C1987 150.758 1988.4 148.658 1994.1 142.058C1998 137.758 2001.5 134.158 2002 134.158C2002.4 134.158 2000.8 137.558 1998.4 141.758ZM2175.2 145.858C2173.6 149.058 2171.3 154.158 2170.1 157.258C2167.9 162.758 2167.7 162.958 2162.9 163.858C2160.2 164.458 2158 164.658 2158 164.458C2158 162.858 2176.3 140.158 2177.6 140.158C2177.9 140.158 2176.7 142.758 2175.2 145.858ZM1697.5 142.158C1699.6 142.158 1699.1 142.858 1694.1 147.658C1690.9 150.658 1687.8 153.158 1687.2 153.158C1685.7 153.158 1685.7 153.058 1687.6 147.958C1689.5 143.158 1691.7 140.858 1693.8 141.658C1694.6 141.958 1696.2 142.158 1697.5 142.158ZM1842.1 143.458L1850.7 143.658L1849.2 145.958C1848.4 147.158 1845.6 149.358 1842.9 150.758C1837.4 153.758 1821.4 171.858 1811.5 186.158C1808.2 190.858 1804.1 196.458 1802.3 198.758C1800.5 201.058 1796.9 205.958 1794.4 209.758C1789.9 216.658 1789.9 216.658 1790.6 212.658C1791.7 206.658 1796.7 187.158 1797.3 186.458C1797.6 186.158 1800 186.658 1802.6 187.558C1809 189.758 1809.2 188.958 1803 186.258C1800.3 185.058 1798 183.558 1798 182.858C1798 180.858 1804.5 161.458 1808 153.158C1809.7 149.058 1811.4 144.858 1811.7 143.958C1812.4 141.658 1814 141.458 1824.5 142.458C1829.4 142.958 1837.4 143.358 1842.1 143.458ZM1712.4 166.758C1710.6 179.158 1708.6 189.958 1707.9 190.758C1707.2 191.558 1703.5 194.358 1699.7 196.958C1691.9 202.158 1680.5 213.058 1673.4 222.258C1670.8 225.458 1668.5 228.058 1668.3 227.858C1666.7 226.158 1687.9 175.158 1690.2 175.158C1690.7 175.158 1690.9 174.858 1690.6 174.358C1690.4 173.958 1692.3 170.458 1694.8 166.658C1698.1 161.858 1700.4 159.358 1702.5 158.658C1704.2 158.158 1705.7 157.458 1706 157.058C1706.3 156.758 1707.4 155.958 1708.5 155.258C1710.2 154.258 1709.9 154.158 1706.5 154.658L1702.6 155.358L1707.5 149.958C1713 144.058 1714.1 143.158 1715.1 143.658C1715.4 143.958 1714.2 154.258 1712.4 166.758ZM1776.5 151.358C1776 155.458 1774.3 159.458 1769.4 167.758C1765.9 173.758 1763 177.958 1763 177.058C1763 174.858 1767.9 150.958 1768.5 150.358C1769.6 149.258 1776.5 145.358 1776.8 145.658C1777 145.858 1776.9 148.458 1776.5 151.358ZM1608.4 152.358C1607.2 155.058 1606.3 155.758 1604.8 155.358C1603 154.958 1603.2 154.558 1606.1 151.558C1607.9 149.658 1609.5 148.358 1609.7 148.558C1609.9 148.758 1609.3 150.458 1608.4 152.358ZM1379.4 159.358C1374.5 164.458 1370.3 168.658 1370 168.658C1369.7 168.658 1366.5 167.958 1362.8 167.258C1354.8 165.558 1355 165.058 1365 159.158C1370.8 155.758 1384.6 150.258 1387.4 150.158C1387.9 150.158 1384.3 154.358 1379.4 159.358ZM1882 151.658C1882 153.258 1880.3 153.558 1877.4 152.458C1875.8 151.858 1875.8 151.758 1877.6 151.058C1880.6 149.858 1882 150.058 1882 151.658ZM1456.1 161.558C1451.8 165.958 1447.8 169.158 1446.2 169.458C1444.7 169.758 1443.4 169.858 1443.3 169.758C1443.2 169.658 1445 167.058 1447.4 163.958C1450.4 160.258 1453.6 157.558 1457.1 155.758C1460 154.358 1462.6 153.358 1462.8 153.658C1463.1 153.858 1460 157.458 1456.1 161.558ZM1582.7 154.258C1586.2 154.858 1589 155.558 1589 155.858C1589 156.158 1585.8 159.358 1581.9 162.958C1574.3 169.958 1563.8 182.158 1554.7 194.258C1549.8 200.658 1539 210.558 1540.1 207.458C1540.3 206.858 1543.6 199.858 1547.4 191.758C1554 177.858 1554.4 177.258 1556.9 177.758C1559.4 178.258 1559.5 178.258 1557.3 176.958C1555.1 175.658 1555.1 175.658 1561.1 164.358L1567.1 153.158H1571.7C1574.3 153.158 1579.2 153.658 1582.7 154.258ZM1272.5 156.858C1271.6 161.758 1268 187.358 1268 188.458C1268 189.358 1263.4 189.658 1252.2 189.658C1239.8 189.758 1235.6 190.158 1232.1 191.458C1229.7 192.458 1227.5 193.058 1227.3 192.758C1227.1 192.558 1227.5 188.258 1228.2 183.258L1229.4 174.058L1235.4 169.458C1243 163.658 1255.9 157.558 1264.2 155.758C1273.1 153.758 1273 153.758 1272.5 156.858ZM1954.5 155.058C1949.1 156.358 1946.6 158.258 1934.7 170.058L1922.9 181.658L1929.4 169.158C1933.4 161.458 1936.7 156.158 1938.2 155.458C1939.5 154.658 1944 154.258 1949 154.258C1954.8 154.358 1956.5 154.558 1954.5 155.058ZM1653.8 155.958C1653.7 156.358 1651.6 159.858 1649.2 163.858C1645.4 170.158 1644.3 171.158 1640.2 172.558C1637.7 173.458 1635.5 174.158 1635.3 174.158C1634.3 174.158 1644.2 162.158 1647.9 158.858C1651.6 155.558 1654.7 153.958 1653.8 155.958ZM1877.1 157.258L1880.8 158.158L1878.1 164.658C1875.9 170.158 1875.2 171.158 1873.5 170.658C1872.4 170.358 1867.3 169.858 1862.3 169.458L1853 168.858L1855.7 163.958C1860.2 155.658 1865.1 154.158 1877.1 157.258ZM1605 160.158C1605 161.358 1603.8 162.758 1601.8 163.758C1600 164.658 1595.7 167.358 1592.2 169.758C1585 174.758 1585.2 173.958 1593.3 164.758C1598 159.458 1599.7 158.158 1602.1 158.158C1604.3 158.158 1605 158.658 1605 160.158ZM2010.4 162.858C2009.5 164.958 2008.5 167.058 2008 167.458C2007.1 168.458 2003 167.458 2003 166.258C2003 165.658 2010.9 159.158 2011.6 159.158C2011.8 159.158 2011.2 160.858 2010.4 162.858ZM1664.8 165.958C1664.1 167.758 1663.2 169.158 1662.7 169.158C1662.2 169.158 1662 168.858 1662.2 168.358C1665.6 161.458 1666.9 160.158 1664.8 165.958ZM1424.8 171.358C1421.4 175.958 1417.9 180.258 1417 180.858C1414.7 182.858 1405 187.458 1404.5 186.958C1403.6 186.058 1417.3 173.058 1421.1 171.058C1423.3 169.958 1425 168.858 1425 168.558C1425 168.258 1424.4 168.358 1423.8 168.658C1423.1 169.058 1424.1 167.958 1426 166.258C1431.8 161.058 1431.4 162.758 1424.8 171.358ZM1914 164.658C1914 164.958 1912 168.758 1909.6 172.958C1907.2 177.158 1904.1 182.758 1902.9 185.358C1901 189.358 1899.9 190.358 1896.3 191.558L1892 193.058L1892.6 187.358C1893.4 179.958 1894.5 178.358 1904.3 170.658C1911.9 164.658 1914 163.358 1914 164.658ZM1747.4 168.658C1746.5 170.058 1744.7 174.058 1743.5 177.458C1741.3 183.658 1741.2 183.658 1737 183.958C1733.2 184.258 1733 184.158 1733.9 182.458C1734.9 180.458 1747.9 166.158 1748.6 166.158C1748.9 166.158 1748.3 167.258 1747.4 168.658ZM1358.9 182.258L1349.1 193.758L1339.3 197.458C1330.1 200.958 1327 201.758 1327 200.758C1327 200.458 1327.9 198.658 1329.1 196.758C1330.9 193.658 1331.6 193.258 1333.8 193.758C1335.3 194.158 1337.3 194.858 1338.3 195.358C1339.3 195.858 1340.4 196.058 1340.8 195.758C1341.1 195.358 1339.5 194.358 1337.2 193.458C1334.9 192.558 1333 191.558 1333 191.158C1333 189.958 1340.1 180.858 1345.2 175.558L1350.1 170.458L1359.4 170.558L1368.7 170.658L1358.9 182.258ZM1600.6 174.358C1600.1 177.358 1599.1 178.158 1593.3 181.058L1586.6 184.358L1590.4 179.958C1594.7 175.058 1600.3 170.158 1600.9 170.658C1601.1 170.858 1601 172.558 1600.6 174.358ZM2004.3 178.058C2002.9 181.658 2000.1 189.958 1998.1 196.558C1994.7 207.458 1994.2 208.458 1991.2 209.758C1988.5 210.858 1988 210.858 1988 209.658C1988 208.358 1997.6 178.658 1999.8 173.058C2000.7 170.958 2001.3 170.558 2003.8 170.958L2006.8 171.358L2004.3 178.058ZM1486.6 172.658C1485.5 173.458 1483.9 174.158 1483.1 174.058C1482.2 174.058 1482.9 173.358 1484.5 172.658C1488.4 170.858 1489 170.858 1486.6 172.658ZM1523.9 179.058C1522 181.758 1520.4 183.858 1520.2 183.658C1520.1 183.558 1520.5 181.358 1521.2 178.858C1522.1 175.458 1523 174.158 1524.4 173.958C1525.6 173.758 1526.7 173.658 1526.9 173.858C1527.1 173.958 1525.8 176.358 1523.9 179.058ZM1874.6 176.658C1874.2 178.558 1871.5 183.358 1868.5 187.358C1865.5 191.358 1863 194.958 1863 195.258C1863 195.658 1859.6 194.558 1855.5 192.858C1848.1 189.758 1847.9 189.658 1848.4 186.658L1848.9 183.658L1847.8 186.358C1847.1 187.958 1846.3 189.158 1845.9 189.158C1844 189.158 1844.1 186.958 1846.2 182.758C1848.1 178.758 1849.1 177.958 1853.4 176.558C1856.2 175.558 1862 174.558 1866.5 174.158C1870.9 173.758 1874.7 173.358 1874.9 173.258C1875.1 173.258 1874.9 174.758 1874.6 176.658ZM1480.9 174.858C1480.9 175.758 1467.9 184.358 1467.4 183.858C1466.4 182.958 1470.7 178.858 1474.8 176.658C1479.8 174.058 1481 173.758 1480.9 174.858ZM1661 175.758C1661 177.258 1658.8 180.058 1656.5 181.558L1653.9 183.258L1655.6 179.958C1657.2 176.758 1658.7 175.158 1660.3 175.158C1660.7 175.158 1661 175.458 1661 175.758ZM2161.1 183.358L2158.3 191.658L2152.9 192.258C2149.9 192.658 2146 193.258 2144.3 193.558L2141 194.158L2144.2 187.758C2147.4 181.258 2150.2 178.758 2157 176.458C2164.1 174.158 2164.2 174.258 2161.1 183.358ZM2201.7 177.258L2204.5 178.358L2201 180.158C2196.4 182.658 2196.3 182.658 2196.8 179.158C2197.3 175.858 2197.6 175.658 2201.7 177.258ZM2222.2 180.558C2221 183.658 2216.8 188.858 2208.4 197.558C2201.7 204.358 2195.9 209.758 2195.6 209.458C2195.3 209.058 2195 205.858 2195 202.158V195.458L2200.8 190.958C2207.4 185.658 2221.9 176.158 2223.1 176.158C2223.6 176.158 2223.2 178.158 2222.2 180.558ZM1299.5 180.358C1298.7 183.958 1297.5 185.158 1294.7 185.158C1293.2 185.158 1293.5 184.458 1296.2 181.158C1298 178.958 1299.6 177.158 1299.8 177.158C1300 177.158 1299.8 178.658 1299.5 180.358ZM1436.2 183.858C1433.5 187.658 1430.1 190.658 1429.4 189.858C1428.6 189.058 1432.6 183.958 1435.3 182.458C1438.3 180.758 1438.4 180.858 1436.2 183.858ZM2279.9 199.058C2274.8 211.358 2270.2 218.958 2271.4 213.158C2272.4 208.058 2273 193.658 2272 195.658C2271.5 196.758 2271.1 198.458 2271.1 199.458C2271 202.358 2256.7 233.458 2253.6 237.458C2252 239.558 2250.5 241.058 2250.3 240.758C2250.1 240.558 2252.9 230.958 2256.5 219.558C2264 195.958 2264.3 195.458 2277.6 187.558C2282.9 184.358 2284.6 183.758 2284.8 184.958C2285 185.758 2282.8 192.058 2279.9 199.058ZM1596.3 196.858C1595.1 203.958 1594 209.758 1594 209.858C1594 209.958 1592.6 210.858 1590.9 211.658L1587.8 213.358L1588.4 204.458C1588.8 197.558 1588.7 196.458 1588 199.658C1587.4 201.858 1585.8 206.458 1584.4 209.758L1581.8 215.958L1575.8 214.058C1572.5 213.058 1569.6 212.058 1569.3 211.758C1568.2 210.658 1595.7 184.258 1598.1 184.158C1598.4 184.158 1597.6 189.858 1596.3 196.858ZM1969.2 187.358C1968.4 188.158 1968.3 187.758 1968.7 186.058C1969.1 184.758 1969.5 184.258 1969.8 185.058C1970 185.758 1969.7 186.858 1969.2 187.358ZM2038.6 187.858C2034.9 197.958 2033.2 200.858 2030.5 201.358C2028.6 201.758 2028 201.558 2028.4 200.558C2029.1 198.658 2038.9 184.158 2039.5 184.158C2039.7 184.158 2039.3 185.858 2038.6 187.858ZM1497.6 192.158C1496.3 195.958 1494.8 198.358 1493.6 198.758C1492.6 199.058 1489.7 201.458 1487.2 204.058C1484.7 206.558 1483.1 207.958 1483.5 207.158C1485.5 203.658 1498.8 186.158 1499.5 186.158C1499.6 186.158 1498.8 188.858 1497.6 192.158ZM1631.6 195.958L1627.2 204.658L1622.4 204.258L1617.6 203.958L1626.2 195.558C1631 190.958 1635.2 187.158 1635.5 187.158C1635.8 187.158 1634 191.058 1631.6 195.958ZM2083.9 195.358C2083 199.258 2082.6 199.858 2080.9 199.458C2079.1 198.958 2079.1 198.658 2080.3 196.758C2081.1 195.658 2082.2 193.558 2082.9 192.358C2084.7 188.958 2085 189.958 2083.9 195.358ZM1267 192.058C1267 192.558 1264.2 194.058 1260.8 195.458L1254.5 197.858L1250.7 195.958C1248.5 194.858 1247 193.858 1247.3 193.558C1248.8 192.058 1267 190.658 1267 192.058ZM1429 191.758C1429 192.758 1423.5 200.158 1422.8 200.158C1422.4 200.158 1423.3 198.158 1424.8 195.658C1427.2 191.658 1429 189.958 1429 191.758ZM1475.3 199.058C1472.4 202.658 1469.7 205.058 1468.5 205.058C1467 205.058 1468.2 203.558 1473 199.158C1476.6 195.858 1479.6 193.158 1479.8 193.158C1479.9 193.158 1477.9 195.858 1475.3 199.058ZM1855.4 196.258L1859.2 199.458L1852.3 202.158C1848.6 203.558 1845.4 204.758 1845.2 204.658C1845.1 204.558 1845.4 202.258 1846 199.558C1847.7 192.258 1849.6 191.558 1855.4 196.258ZM1211.3 199.258C1210.8 201.558 1208.8 204.158 1205.5 207.158C1202.2 210.158 1201.1 210.858 1202.1 209.158C1203 207.758 1205.5 203.858 1207.6 200.358C1211.7 193.858 1212.5 193.558 1211.3 199.258ZM1263.5 197.658C1261.9 198.958 1259.9 200.058 1259.1 200.158C1257.4 200.158 1258 199.458 1261.7 197.058C1265.8 194.458 1266.9 194.758 1263.5 197.658ZM2153.4 203.958C2149.7 209.258 2149.5 209.458 2149.2 206.858C2148.5 200.958 2149.3 198.858 2153 197.658C2155.1 196.958 2156.6 196.858 2156.9 197.358C2157.1 197.858 2155.5 200.858 2153.4 203.958ZM1340.6 205.358C1337.2 209.958 1331.8 217.258 1328.7 221.658C1325.7 226.058 1322 230.758 1320.5 232.158L1317.8 234.658L1318.4 232.158C1318.8 230.758 1319.7 226.558 1320.5 222.858C1322 215.258 1324.1 212.158 1327.6 212.158C1328.9 212.158 1330.1 211.758 1330.4 211.258C1330.8 210.758 1330 210.558 1328.8 210.858C1326.8 211.258 1327 210.858 1330 208.158C1334.1 204.458 1344.8 197.158 1346.1 197.158C1346.6 197.158 1344.1 200.858 1340.6 205.358ZM1392.8 206.158C1389.2 211.358 1386.2 214.758 1385.7 214.258C1384.4 212.958 1386.6 209.458 1392.8 202.858C1395.8 199.758 1398.5 197.158 1398.6 197.158C1398.8 197.158 1396.2 201.158 1392.8 206.158ZM1893.4 204.858C1891.4 209.158 1889.6 212.858 1889.3 213.158C1889.1 213.358 1889.2 211.158 1889.5 208.158C1890.1 203.658 1890.8 202.158 1893.3 199.858C1895 198.358 1896.5 197.158 1896.7 197.158C1896.8 197.158 1895.3 200.658 1893.4 204.858ZM1283.3 201.758C1282.2 203.458 1281.4 203.958 1281.2 203.158C1280.9 202.458 1281.5 201.258 1282.6 200.458C1285.2 198.558 1285.3 198.758 1283.3 201.758ZM2145.5 205.758L2143.1 211.658L2143 206.358C2143 201.758 2143.3 200.958 2145.3 200.258C2146.5 199.758 2147.6 199.458 2147.7 199.558C2147.9 199.758 2146.9 202.458 2145.5 205.758ZM1227.8 203.258C1226.5 205.058 1225.4 205.758 1225.1 205.058C1224.9 204.358 1225.7 202.958 1227 201.958C1230.2 199.358 1230.4 199.758 1227.8 203.258ZM1256.2 201.758C1256.5 202.058 1253.3 205.758 1249.1 209.958C1239.2 219.958 1226.1 237.358 1220.6 247.958C1219.6 249.858 1218.7 251.158 1218.5 250.958C1218.3 250.858 1218.6 248.358 1219 245.458C1220.6 235.958 1238.6 212.458 1251 203.758C1254.7 201.058 1255.4 200.858 1256.2 201.758ZM1853.4 212.358C1848.3 222.358 1841 231.458 1841 227.858C1841 224.158 1843.3 216.158 1844.3 216.158C1845.1 216.158 1845.1 215.858 1844.2 215.358C1843.5 214.858 1843.2 213.858 1843.5 213.058C1844 211.758 1856.7 202.258 1858.1 202.158C1858.4 202.158 1856.3 206.758 1853.4 212.358ZM2137.6 210.758C2134.7 217.358 2133.7 218.758 2131.6 218.958L2129.1 219.258L2132.2 212.158C2134.3 207.458 2136.2 204.558 2137.9 203.658C2139.3 202.958 2140.6 202.458 2140.7 202.558C2140.9 202.758 2139.5 206.358 2137.6 210.758ZM1730.8 214.858C1727.2 225.358 1719.4 241.158 1717.9 241.158C1717.6 241.158 1718.2 235.458 1719.3 228.358L1721.2 215.658L1727.3 209.358C1730.7 205.958 1733.8 203.158 1734.2 203.158C1734.6 203.158 1733.1 208.458 1730.8 214.858ZM2027 204.558C2027 204.758 2026.2 205.558 2025.3 206.258C2023.7 207.558 2023.6 207.458 2024.9 205.858C2026.2 204.258 2027 203.758 2027 204.558ZM1968.4 209.958C1968 211.958 1967.3 212.858 1966.4 212.458C1965.3 212.058 1965.3 211.458 1966.6 208.958C1968.5 205.358 1969.2 205.758 1968.4 209.958ZM1466.4 210.358C1465.2 212.358 1458.8 221.158 1458.6 221.158C1458.5 221.158 1458.6 219.458 1458.8 217.358C1459.3 213.158 1462.4 209.158 1465.2 209.158C1466.5 209.158 1466.9 209.558 1466.4 210.358ZM1931.3 214.758C1930.4 217.458 1927.4 222.358 1924.7 225.658C1918.8 232.858 1917.1 234.458 1919.1 231.158C1926 219.658 1932.5 209.358 1932.7 209.558C1932.9 209.658 1932.2 212.058 1931.3 214.758ZM1622.5 215.258L1619.9 220.358L1615.7 219.658C1613.4 219.258 1611.3 218.758 1611.2 218.658C1611 218.458 1611.1 216.958 1611.5 215.358C1612.2 212.158 1615.6 210.458 1621.8 210.258L1625 210.158L1622.5 215.258ZM1645 217.358C1643.8 220.858 1642.4 224.658 1641.9 225.858C1641.3 227.458 1640.5 227.858 1639 227.458C1637.2 226.958 1636.9 226.358 1637.4 223.858C1638 220.758 1645.9 209.658 1646.8 210.658C1647.1 210.858 1646.3 213.958 1645 217.358ZM2180 211.158C2180 211.658 2179.5 212.158 2178.9 212.158C2178.4 212.158 2178.2 211.658 2178.5 211.158C2178.8 210.558 2179.3 210.158 2179.6 210.158C2179.8 210.158 2180 210.558 2180 211.158ZM1437.1 217.458C1436.1 218.358 1436 218.258 1436.6 216.858C1436.9 215.858 1437.5 215.358 1437.8 215.658C1438.1 215.958 1437.8 216.758 1437.1 217.458ZM1207.8 225.158C1207.2 229.458 1205.7 233.358 1203.7 236.658C1202 239.358 1197.3 247.958 1193.3 255.658L1185.9 269.658L1186.5 263.658C1187.2 257.058 1189.5 250.358 1194.8 239.658C1198 233.158 1208 217.758 1208.5 218.358C1208.7 218.558 1208.3 221.558 1207.8 225.158ZM1576.8 219.658C1577 219.858 1573.4 223.758 1568.9 228.458C1564.3 233.058 1557.7 240.658 1554.4 245.458C1548.4 253.858 1548.2 253.958 1547.1 251.558C1546.5 250.158 1546 248.558 1546 247.858C1546 246.058 1558.8 223.158 1561.4 220.258C1563.3 218.158 1564 217.958 1570 218.558C1573.5 218.958 1576.6 219.458 1576.8 219.658ZM1382.4 220.658C1382.8 221.858 1375.3 239.158 1373.7 240.858C1373.5 240.958 1373.7 238.458 1374.2 235.058C1374.9 229.558 1379.5 219.158 1381.1 219.158C1381.5 219.158 1382 219.858 1382.4 220.658ZM2179 223.758C2179 224.858 2178.5 225.158 2177.4 224.758C2176.5 224.458 2175.6 224.158 2175.4 224.158C2175.1 224.158 2175.2 223.658 2175.5 223.158C2176.5 221.558 2179 221.958 2179 223.758ZM2020.6 227.358C2019.2 229.758 2017 233.658 2015.5 236.158L2012.9 240.658L2013.5 236.158C2014 232.758 2015.2 230.658 2018.3 227.358C2020.6 225.058 2022.6 223.158 2022.8 223.158C2022.9 223.158 2022 225.058 2020.6 227.358ZM1863.6 230.558C1863 233.558 1861.3 237.358 1859.8 239.258L1857 242.658L1858.9 237.658C1861.7 230.258 1864 225.158 1864.4 225.158C1864.6 225.158 1864.2 227.558 1863.6 230.558ZM1988 234.558C1986.8 239.758 1985.3 243.258 1982.9 246.258C1981.1 248.558 1979.4 249.958 1979.2 249.358C1979 248.758 1979.6 244.858 1980.5 240.658C1982 234.158 1982.7 232.758 1985.8 230.158C1987.8 228.458 1989.5 227.158 1989.6 227.158C1989.7 227.158 1989 230.458 1988 234.558ZM2300 229.658C2300 230.158 2298 233.658 2296.4 236.058C2295.9 236.658 2286 232.958 2286 232.158C2286 230.858 2291.1 229.358 2295.8 229.258C2298.1 229.158 2300 229.358 2300 229.658ZM1609.8 233.158C1608.4 235.358 1607.4 235.058 1608.3 232.658C1608.7 231.858 1609.4 231.158 1610 231.158C1610.6 231.158 1610.6 231.858 1609.8 233.158ZM2178 232.658C2178 234.358 2177.8 234.458 2175.6 233.558C2173.3 232.658 2173.6 231.158 2176 231.158C2177.1 231.158 2178 231.858 2178 232.658ZM2127.8 233.958C2127.7 234.358 2126.7 236.758 2125.7 239.258C2124.2 243.058 2123.4 243.858 2121.9 243.458C2120.8 243.158 2120.1 242.358 2120.4 241.758C2120.7 241.158 2121.4 238.958 2122.1 236.858C2123.1 233.958 2123.8 233.158 2125.7 233.158C2127.1 233.158 2128 233.458 2127.8 233.958ZM1638 235.458C1638 236.858 1634.7 245.158 1634.1 245.158C1633.7 245.158 1633.8 242.858 1634.4 240.158C1635 237.258 1635.9 235.158 1636.7 235.158C1637.4 235.158 1638 235.258 1638 235.458ZM2173.9 239.258C2172.6 241.858 2171.9 241.358 2172.7 238.358C2173 237.158 2173.6 236.458 2174.1 236.758C2174.6 237.058 2174.5 238.158 2173.9 239.258ZM1340.1 240.058C1335.7 248.158 1327.5 272.958 1325 285.458C1324 290.458 1322.4 293.258 1314.7 303.658C1309.6 310.458 1305.4 315.958 1305.3 315.858C1304.9 315.358 1311.2 293.758 1314.5 284.258C1320 268.458 1326.2 256.458 1333.7 246.858C1340.6 238.058 1341.9 236.658 1340.1 240.058ZM2290.1 239.358C2293.8 240.358 2293.9 240.658 2292.7 242.558C2291.9 243.758 2290 248.458 2288.5 253.158C2286.6 258.758 2284.5 263.058 2282.1 265.858C2280.1 268.058 2278.4 269.858 2278.2 269.658C2277.9 269.358 2282.7 241.958 2283.5 239.358C2284 237.858 2285.2 237.858 2290.1 239.358ZM2123 247.358C2123 249.358 2115.2 260.658 2114.3 259.858C2114.1 259.558 2115.1 256.258 2116.6 252.258C2118.6 246.858 2119.7 245.158 2121.1 245.158C2122.4 245.158 2123 245.858 2123 247.358ZM1630.9 255.058C1628 263.058 1627.4 262.358 1630.1 254.258C1631.3 250.858 1632.4 248.258 1632.7 248.558C1633 248.758 1632.2 251.758 1630.9 255.058ZM1543.3 263.258C1541.3 266.958 1540.1 268.158 1538.3 268.158C1537.1 268.158 1536 267.958 1536 267.658C1536 267.358 1537.4 264.358 1539.1 261.058C1542 255.158 1542.2 255.058 1544 256.658C1545.9 258.458 1545.9 258.558 1543.3 263.258ZM1466.1 262.158C1465 265.158 1463.7 267.758 1463.1 267.958C1462.5 268.158 1462 268.058 1462 267.758C1462 266.858 1467.4 256.158 1467.7 256.458C1467.8 256.658 1467.1 259.258 1466.1 262.158ZM1832.3 266.358C1829.4 276.358 1822.6 304.158 1821 313.158C1819.5 320.858 1814.8 329.158 1811.8 329.158C1810.4 329.158 1810 328.658 1810.4 327.658C1810.7 326.858 1815.6 311.658 1821.4 293.958C1833.4 256.958 1833 258.158 1834 258.158C1834.4 258.158 1833.7 261.858 1832.3 266.358ZM1699 262.158C1699 263.258 1698.6 264.158 1698.1 264.158C1697.6 264.158 1697.4 263.258 1697.7 262.158C1698 261.058 1698.4 260.158 1698.6 260.158C1698.8 260.158 1699 261.058 1699 262.158ZM1402.5 267.358C1401.6 271.658 1400.9 272.258 1398.6 270.658C1396.9 269.358 1396.9 269.158 1399.3 266.758C1402.7 263.358 1403.3 263.458 1402.5 267.358ZM1855.3 271.358C1854 277.058 1848.6 286.058 1847.2 284.758C1846.7 284.158 1855.6 265.158 1856.3 265.158C1856.5 265.158 1856.1 267.958 1855.3 271.358ZM1697.6 270.358C1697.3 272.758 1696.8 276.958 1696.4 279.658C1696 283.258 1695 285.658 1692.8 288.058C1691.2 289.858 1689.7 291.158 1689.4 290.858C1689.2 290.658 1690.5 285.158 1692.5 278.858C1694.4 272.458 1696 266.958 1696 266.658C1696 266.358 1696.5 266.158 1697.1 266.158C1697.8 266.158 1698 267.558 1697.6 270.358ZM1539 270.658C1539 273.058 1530.1 288.658 1529.3 287.758C1528.9 287.358 1533.5 271.958 1534.6 269.958C1535 269.458 1539 270.058 1539 270.658ZM1910.5 276.858C1909.2 280.658 1906 287.658 1903.5 292.458C1899 301.058 1898.8 301.258 1897.3 299.158C1895.3 296.258 1895.8 294.758 1903.7 281.558C1911.5 268.458 1914.1 266.658 1910.5 276.858ZM2320.6 283.358L2326.1 291.158L2319.7 299.358C2313 308.058 2303.3 322.358 2298.6 330.358C2296 334.858 2295.5 335.158 2291.8 335.158C2288.4 335.158 2287.9 334.858 2288.5 333.358C2288.9 332.458 2293.7 318.358 2299.1 302.158C2304.5 285.958 2309.3 271.958 2309.6 271.158C2310.3 269.358 2312.1 271.458 2320.6 283.358ZM1745.4 279.358C1745 281.758 1742.4 289.058 1739.5 295.658C1736.7 302.258 1733.2 310.658 1731.9 314.358C1730.6 318.158 1729.2 321.158 1728.8 321.158C1728.3 321.158 1728 320.858 1728 320.558C1728 319.658 1745.4 275.158 1745.7 275.158C1745.9 275.158 1745.7 277.058 1745.4 279.358ZM1395.9 294.758C1394.9 299.358 1393.5 304.258 1392.8 305.658C1391.4 308.158 1391.4 308.158 1387.2 300.658L1383 293.058L1387 286.158L1391.1 279.358L1394.4 282.958L1397.7 286.558L1395.9 294.758ZM2174 286.358C2174 288.158 2173.8 288.358 2173.1 287.158C2172.5 286.358 2172.4 285.358 2172.6 284.958C2173.5 283.558 2174 284.058 2174 286.358ZM2170.8 294.758L2173 299.258L2166.3 311.758C2159.9 323.558 2157.3 326.458 2157.7 321.058C2157.8 319.758 2158.2 314.758 2158.5 309.958C2159.1 301.658 2159.4 300.858 2163.3 295.658C2165.5 292.658 2167.6 290.158 2168 290.158C2168.3 290.158 2169.6 292.158 2170.8 294.758ZM1242.1 314.658C1239.5 327.358 1239.1 328.658 1237 328.958C1235.6 329.158 1234.9 328.858 1235.2 327.958C1236.1 324.358 1244.4 300.158 1244.6 300.458C1244.8 300.558 1243.6 306.958 1242.1 314.658ZM1381.4 304.358C1382.5 306.158 1384.6 309.558 1386.2 311.958L1389 316.258L1385.9 325.258C1382.9 333.858 1382.6 334.258 1380.1 333.758C1378.7 333.458 1374.4 332.958 1370.7 332.658L1363.8 331.958L1364.5 328.358C1365.2 324.758 1377.7 301.158 1379 301.158C1379.3 301.158 1380.4 302.658 1381.4 304.358ZM1214.5 305.858C1214.1 306.858 1212.2 311.658 1210.4 316.658C1207.9 323.158 1207.2 324.558 1207.6 321.658C1208.1 318.058 1213.8 304.158 1214.8 304.158C1215 304.158 1214.9 304.958 1214.5 305.858ZM1692.3 309.858C1691.3 316.658 1691 317.158 1688.5 317.158C1685.4 317.158 1685.4 317.058 1688.6 311.058C1691.5 305.858 1693 305.358 1692.3 309.858ZM1895 309.358C1895 310.058 1894.5 311.358 1894 312.158C1893.2 313.358 1893 313.058 1893 310.858C1893 309.358 1893.5 308.158 1894 308.158C1894.6 308.158 1895 308.758 1895 309.358ZM2061.9 318.758C2061.3 322.558 2060.7 325.758 2060.6 325.858C2060.6 325.958 2059.3 326.258 2057.7 326.658C2055.5 327.258 2055 327.058 2055 325.558C2055 323.858 2062.2 311.058 2062.8 311.658C2063 311.758 2062.6 315.058 2061.9 318.758ZM2027.5 337.158C2027.2 337.658 2026.5 338.158 2025.9 338.158C2025.4 338.158 2025 337.658 2025 337.158C2025 336.558 2025.7 336.158 2026.6 336.158C2027.4 336.158 2027.8 336.558 2027.5 337.158Z" fill="#FAFAFA"/>
</g>
<defs>
<clipPath id="clip0">
<rect width="2304" height="394" fill="white"/>
</clipPath>
</defs>
</svg>
