<svg width="1274" height="409" viewBox="0 0 1274 409" fill="none" xmlns="http://www.w3.org/2000/svg">
<path d="M853.2 2.79998C853.1 4.69998 850.3 17 846.9 30.3C841.5 51.8 840.7 56.2 839.6 71.2C838.5 86.8 838.2 88.2 836.1 89.6C821.2 100.1 803.4 120.7 784.5 149.8C784.4 149.9 781.6 150.7 778.4 151.6C775.2 152.4 769.5 154.5 765.7 156.2C762 157.9 758.7 159.1 758.5 158.8C758.2 158.5 758.2 156.4 758.6 154L759.3 149.8L765.7 150.2C772.5 150.6 772.2 149.7 765.2 148.5C762.8 148.1 760.6 147.2 760.4 146.6C760.1 145.9 760.8 139.4 762 132C763.1 124.4 764 113.8 764 107.2V95.7L768.8 91.2C773 87.3 782.4 79.8 787.6 76.2C791.6 73.5 784.5 76.1 774.8 81L765 85.8V82.8C765 80 765.2 79.8 767.8 80.3L770.5 80.9L767.6 79.7C764.8 78.5 764.8 78.5 765.2 71.8C765.5 68 765.3 65 764.9 65C764.4 65 764 66.1 764 67.4C764 69.8 762.2 76 761.1 77.2C760.8 77.6 756.4 77.2 751.5 76.3C734.6 73.4 717.2 76.4 703.1 84.7C689.7 92.7 675 109.3 665.6 127C657.9 141.6 656.4 140.7 660.8 124.1C662.6 117.6 664 111.9 664 111.4C664 110.9 662.7 112.8 661.2 115.6C656.1 125.2 652.5 131 651.8 131C651.1 131 650.4 98.8 651 93.6C651.1 92.5 650.7 92.1 650.1 92.4C649.5 92.8 649 94.3 649 95.8C649 97.3 646.6 107.9 643.7 119.4L638.4 140.3L634.7 141.6C632.6 142.4 631 142.5 631 141.9C631 141.4 631.9 136.9 633 131.9C635.2 122.2 635.2 119.1 633.1 126.2C632.4 128.6 629.7 133.9 627.2 138.1C622.9 145.3 622.3 145.9 615.6 149.1C608.3 152.6 598.8 159 593.3 164.3L590 167.4V164.9C590 163.6 590.7 158.4 591.6 153.5C593.2 144 594.9 132.3 595 130.3C595 128.7 598.7 126.3 605.7 123.4C612.7 120.6 610.6 120.2 602.4 122.9C599.2 124 596.5 124.8 596.4 124.7C596.4 124.6 596.7 114.8 597.1 103C597.5 91.2 597.9 77.4 597.8 72.5V63.5L596.5 69.5C595.8 72.8 594.6 76.8 594 78.5C589.1 90.8 580.5 117.8 579.6 124L578.5 131.4L572.3 135.3L566.1 139.1L560.1 137.9C556.7 137.3 554 136.4 554 135.9C554 135.5 560.1 119.5 567.5 100.5C579.2 70.2 581.8 62.6 587.5 40.3C591.1 26.2 593.9 14.6 593.7 14.3C593.4 14.1 592.8 15.2 592.2 16.9C591.6 18.5 585.4 29.1 578.5 40.4L565.8 60.9L551.5 98.6L537.3 136.2L532.9 138.2C530.5 139.2 527 141.6 525.2 143.3C522.1 146.3 521.4 146.5 514.7 146.6C509.4 146.6 506.4 147.2 503.4 148.8C499.2 150.9 491.2 159 485 167.3C483.1 169.8 481.3 172 481 172C480.7 172 480.9 164.9 481.4 156.3C482.2 142.2 482.5 140.4 484.4 138.8L486.5 137.1L484.3 137.7C482.6 138.1 482.2 137.8 482.5 136.3C482.7 135.3 483.1 130 483.3 124.5L483.8 114.5L482 121C481.1 124.6 478.9 130.6 477.3 134.5C474.6 141 473.9 141.7 468.4 144.8C465.2 146.6 460.8 149.3 458.8 150.7L455 153.3L444.8 150.5C439.1 148.9 434.1 147.3 433.7 147C431.9 145.4 441 133.1 452.5 121.6C464.6 109.4 477.2 99.6 486.8 95C489.6 93.6 491.9 92.2 492 91.8C492 90.9 476.4 95.8 470.6 98.6C467.9 99.9 465.5 100.8 465.3 100.6C464.6 99.9 483.4 82.9 489.3 79C492.5 76.8 494.8 75 494.2 75C491.3 75 475.9 82.6 467.9 88.1C459 94.1 443.9 109 433.2 122.4C428 128.9 418.9 139.4 413.1 145.8C407.3 152.1 400.4 159.9 397.8 163.1C393.2 168.7 393 168.8 389.5 168C387.5 167.5 385.7 167 385.5 166.8C384.9 166.2 386.1 162 386.9 162C387.3 162 388.5 161.3 389.6 160.4C391.4 158.9 391.4 158.9 389.3 159.5C387.7 159.9 387 159.7 387 158.7C387 157.6 391.8 133.7 393.7 125.2C394.6 121.5 393.1 122.8 392.1 126.7C391.5 128.8 386.2 138.6 380.2 148.5L369.4 166.5H353.7C345.1 166.5 338 166.4 338 166.3C338 166.2 339.4 163.9 341.1 161.2L344.2 156.2L349.8 157.5C358.6 159.5 365.2 160.1 369 159.1C373.2 158.1 372.1 157.6 361.7 156C357.4 155.4 352.3 154.3 350.4 153.7L347 152.5L351.3 147.3C356 141.6 367.2 131.4 373.8 126.8C376.2 125.2 381.8 122 386.3 119.9C393.4 116.5 393.9 115.8 388 117.8C383.9 119.2 389.6 115.5 398.5 111C404 108.3 408.2 106 407.8 106C405.3 106 388.6 110.5 383.1 112.7C370.1 117.9 353.8 128.3 339.4 140.8L331.3 147.8L325.9 146.9C315.1 145.1 305.3 148.3 299.2 155.7C296.2 159.2 292.9 161.4 282.5 166.4C275.4 169.9 266.9 173.7 263.8 174.9C257 177.3 242.7 184.4 238.7 187.2C237.1 188.3 235.7 189.1 235.5 188.9C235 188.3 248.9 171.8 259.7 160.1L269.3 149.8L274.3 150.3C277.1 150.5 278.6 150.4 277.8 149.9C277.1 149.4 275.6 149 274.4 149C273.3 149 272.1 148.7 271.8 148.4C270.8 147.5 287.6 132.3 298.3 124.3C303.8 120.3 313.3 114.4 319.4 111.4C328.1 107.1 329.6 106 326.5 106.6C305 110.3 283 121.6 261.7 140L255.8 145H248.5C238.1 145 226.7 147.4 218.1 151.5C214.1 153.4 211.2 154.4 211.8 153.7C214 151.1 232.6 142.1 241 139.6C245.7 138.2 248.3 137.1 246.8 137.1C241.2 136.9 218.1 142.2 210 145.5C205.4 147.4 201.4 148.8 201.3 148.6C201.1 148.4 202.1 143 203.4 136.4C204.8 129.9 205.7 124.4 205.5 124.1C205.2 123.9 205 124.3 204.9 125.1C204.9 125.9 204.5 125.7 204 124.5C203.3 122.7 203.2 122.8 202.5 125.5C202.1 127.1 198.2 134.9 193.7 142.6C187.2 154.1 185.4 156.6 183.9 156.3C181.6 155.7 181.7 157.5 183.5 135.1C185 117.8 185 111.1 183.6 119.9C183.3 122.1 179.9 131 176.1 139.7C169.4 154.8 169 155.5 164.8 157.6C162.4 158.8 157.6 162.8 154 166.4C150.5 170 147.3 173 147 173C146.6 173 146.9 169.5 147.6 165.2C148.3 161 148.9 156.9 148.9 156.1C149 155.1 150.2 154.9 154.3 155.3L159.5 155.9L154.8 154.4C151.3 153.3 150 152.4 150 151C150 150 153.1 128.1 156.9 102.3C163.8 55.7 163.8 55.4 164.3 29C164.6 14.4 164.6 3.79998 164.3 5.49998C164.1 7.09998 160.1 19.7 155.5 33.5L147.2 58.5L140.9 104.3L134.6 150.1L130 149.5C121.4 148.3 107.4 151.1 94.6 156.5C93 157.2 92.8 157 93.3 155.7C94.3 153 95.9 129.1 96.3 110L96.7 92.5L95 99C94 102.6 90.5 113.6 87.1 123.5C82.1 137.8 80.4 144.3 78.9 154.9L77 168.2L70.1 175.5C66.3 179.5 60.9 186.1 58 190.2L52.8 197.5L53.5 189.5C53.8 185.1 55.2 167.5 56.6 150.5C58.8 122.6 59 116.5 58.3 89.5C57.8 68.2 57.3 60.8 56.7 64C56.3 66.5 53.2 79.3 50 92.5L44.1 116.5L41.5 152C40.1 171.5 38.1 197.6 37 210L35.2 232.5L28.6 251.5C21.2 273 15.7 293.7 11 318.5C9.2 327.9 7.1 336 6.4 336.6C5.4 337.4 5 340 5 344.7C5 348.6 3.9 361.1 2.5 372.6C1.1 384.1 0 396.1 0 399.2C0 404.4 0.2 405 2.1 405C3.2 405 4.9 405.4 5.8 405.9C6.7 406.3 9.6 407 12.2 407.3C16.5 407.9 17 407.8 17 406C17 404.4 17.7 404 20 404C21.7 404 23 404.4 23 405C23 406.1 29.4 408 33.3 408C35.4 408 36 407.5 36 405.9C36 403.8 36.3 403.8 45.3 404.3C55.8 405 57.4 405.3 61.3 406.9C64.9 408.3 64.7 408.4 65.3 406C65.8 404.2 66.7 404 73.4 404C78.6 404 82.6 404.6 86.2 406C90.6 407.7 91.7 407.8 92.4 406.7C93.1 405.6 94.2 405.5 98.8 406.6C103.9 407.8 104.2 407.8 104.7 405.9C105.2 404 105.9 403.9 116.9 404.3C123.3 404.5 130.3 405.1 132.5 405.7C134.7 406.3 138.6 407.1 141.3 407.5C145.6 408.1 146 407.9 146 406.1C146 404.1 146.6 404 155.3 404C160.4 404 165 404.4 165.6 404.9C167.2 406.4 175 407.9 175.6 406.8C175.9 406.3 176.9 406.2 177.9 406.5C178.8 406.9 184.2 407.4 189.8 407.6C199.5 408 200.2 407.9 200.7 406C201.2 404.1 202.1 404 215.9 404C227.8 404 231.6 404.4 236.4 406C242.2 408 243.9 407.7 244 404.7C244 404.3 253.8 404 265.8 404C284.8 404 288.4 404.3 293.3 405.9C297.3 407.3 299 407.5 299.3 406.7C299.6 405.8 300.7 405.8 304.1 406.7C308.2 407.8 308.6 407.7 310.1 405.8C311.6 403.8 312.4 403.7 320.5 404.4C325.4 404.7 329.8 405.4 330.4 405.9C331 406.3 333.4 407 335.7 407.4C339.1 407.9 340.1 407.7 340.9 406.3C341.8 404.6 342.1 404.6 346.6 406.3C351.2 408 351.3 408 352.7 406C354 404.1 355.2 404 369.1 404C381.5 404 385.1 404.3 390.1 406C395.8 407.9 396.3 408 397.4 406.4C398.4 405.2 399.1 405 400.6 405.7C401.6 406.3 403.7 407 405.2 407.4C407.3 407.9 408 407.6 408.5 406C409.1 404.2 410 404 419.4 404C427.1 404 431.2 404.5 435.5 406C438.7 407.1 441.4 408 441.5 408C441.7 408 442 407.1 442.3 406C442.8 404.1 443.7 404 471.8 404C496.3 404 500.9 404.2 502 405.5C503.4 407.2 508 407.5 508 405.9C508 405.3 508.7 405.6 509.6 406.4C511.9 408.8 515 408.4 515 405.9C515 403.9 515.4 403.8 527.3 404.1C534.7 404.4 540.3 405 541.1 405.7C541.9 406.3 545.1 407.1 548.3 407.5C553.7 408.2 554 408.1 554 406.1C554 404.1 554.4 404 568.9 404C578.9 404 586.1 404.5 590.6 405.6C594.3 406.4 600.8 407.3 605.2 407.5C612.6 407.9 613 407.8 613 405.9C613 404 613.5 403.9 617.3 404.3C619.6 404.6 625.3 405.6 629.9 406.5C635.9 407.6 638.5 407.8 639 407C639.5 406.2 640.5 406.2 642.4 407C645.9 408.3 645.7 408.4 646.3 405.9C646.9 403.8 647.2 403.7 660.2 404.2C667.5 404.5 674.6 405.2 676 405.7C677.4 406.3 680.4 407 682.8 407.4C686.6 408 687 407.8 687 406C687 404.4 687.7 404 690.4 404C692.3 404 694.1 404.4 694.4 404.9C694.7 405.4 696.6 406.1 698.6 406.4C700.5 406.8 702.7 407.3 703.5 407.6C704.2 407.9 705.1 407.3 705.5 406.1C706 404.3 706.4 404.2 709.3 405.5C711.1 406.2 714.4 407.1 716.6 407.5C720.3 408.1 720.8 407.9 721.3 405.9C721.9 403.8 722.3 403.8 730.4 404.2C735 404.4 739.4 405.1 740.2 405.7C740.9 406.3 743.4 407 745.6 407.4C749.3 407.9 749.8 407.7 750.3 405.9C750.8 404 751.4 403.8 754.7 404.4C756.8 404.7 759.4 405.1 760.5 405.3C761.6 405.4 762.7 405.8 763 406.1C763.3 406.4 764.7 407 766.3 407.4C768.6 407.9 769 407.7 769 405.9C769 403.7 769.2 403.7 779.6 404.3C785.4 404.6 790.7 405.3 791.3 405.8C792 406.3 794.4 407 796.7 407.4C800.3 407.9 801.1 407.7 802 406C803.1 404 809 403 809 404.9C809 405.4 811.8 406.3 815.3 406.9C823.4 408.3 823 408.4 823 405.9C823 403.8 823.3 403.7 831.1 404.3C835.6 404.6 839.6 405.2 839.9 405.8C840.2 406.3 842.6 407 845.3 407.3C849.1 407.8 850 407.7 850 406.4C850 405.4 850.6 405 851.8 405.4C857.8 407.2 862.5 407.8 863.1 406.8C863.6 406 864.7 406 866.9 406.8C869.6 407.8 870.2 407.6 871.3 406C872.8 403.5 875.2 403.5 882.5 406C885.7 407.1 888.4 408 888.5 408C888.7 408 889 407.1 889.3 406C890 403.4 892.5 403.5 899.1 406L904.3 408.1L905.7 406C907 404.1 908.1 404 926.3 404C941.7 404 946.8 404.4 952 405.8C959.8 408 964.9 407.9 966.2 405.7C967 404.2 969.6 404 989 404C1006.6 404 1011.1 404.3 1011.7 405.4C1012.2 406.2 1015.1 407.1 1018.8 407.5C1024.7 408.2 1025 408.1 1025 406.1C1025 404.9 1025.5 404 1026 404C1026.6 404 1027 404.4 1027 405C1027 406 1033.3 408 1036.7 408C1038 408 1039.1 407.2 1039.5 406C1040.3 403.6 1045.6 403.2 1047.4 405.4C1048 406.2 1051 407.1 1054.1 407.5C1059.2 408.1 1059.8 407.9 1060.3 406.1C1060.8 404.2 1061.6 404 1069.5 404C1075.9 404 1078.5 404.4 1079.7 405.5C1080.5 406.3 1082.4 407 1083.8 406.9C1085.3 406.9 1088.4 407.2 1090.8 407.6C1094.6 408.2 1095 408.1 1095 406.1C1095 404.4 1095.5 404.1 1097.3 404.5C1112.5 408 1112.3 408 1113.5 406.3C1114.6 404.8 1115.1 404.8 1119.3 406.3C1123.8 407.8 1124 407.8 1125 405.9C1126.4 403.3 1134.2 403.3 1141.2 406C1144.1 407.1 1146.6 408 1146.6 408C1146.7 408 1147 407.1 1147.3 406C1147.8 404.1 1148.7 404 1159.4 404H1171V374.3V344.6L1175.2 337.6C1180.1 329.2 1194.8 307.2 1196 306.5C1196.4 306.2 1198.8 308.4 1201.4 311.4C1205.1 315.8 1213.3 322 1215.3 322C1215.5 322 1212.5 317 1208.4 310.8L1201.1 299.6L1205.1 294.8C1218.8 278.5 1227.5 271.3 1231 273.5C1232.6 274.5 1240.8 287.1 1249 301C1258.8 317.8 1264.4 325.5 1269.3 329.1C1271.5 330.7 1273.5 331.9 1273.7 331.7C1274.3 331.1 1255.9 297.8 1251 290.5C1244.8 281.4 1240.5 277.4 1229.6 270.6C1216.2 262.3 1214.3 262.7 1200.6 277.1L1191.9 286.2L1190.2 283.9C1187 279.2 1178.9 271.3 1175.5 269.4C1173.6 268.4 1172.2 267.1 1172.4 266.5C1172.7 266 1174.3 261.1 1176.1 255.7C1178.4 249.1 1179.9 246 1181 246C1182.1 246 1182.2 245.8 1181.2 245.2C1180.2 244.5 1180.2 243.3 1181.2 239.1L1182.4 233.9L1187.7 234.6C1190.6 234.9 1193 235 1193 234.7C1193 234.4 1194.5 230.6 1196.4 226.1L1199.9 218.1L1194.2 220.9C1191.1 222.5 1187.5 224.1 1186.3 224.5C1184.2 225.1 1184.1 224.9 1184.7 221.8C1185.1 220 1186.8 211.5 1188.5 203C1190.3 194.5 1191.6 187.4 1191.5 187.2C1191.4 187.1 1190.5 189.1 1189.5 191.6C1187.8 196.1 1175 218.3 1174.5 217.8C1174.3 217.6 1174.8 214.6 1175.6 211C1177.4 202.4 1177.3 200.6 1175.2 205.6C1172 213.4 1164.6 225.1 1163.3 224.6C1160.3 223.4 1148.9 221.8 1147.5 222.4C1146.5 222.7 1146 222.3 1146 221.1C1146 218.2 1161.9 202.9 1171.4 196.5C1176.2 193.4 1183 189.5 1186.8 187.9C1196.4 183.8 1192 184.3 1178 189C1165.6 193.1 1157.3 196.9 1150.8 201.4L1147 203.9V200.2C1147 198.2 1147.3 193.5 1147.6 189.8C1148.2 184.4 1148.7 183 1150.4 182.1C1152.4 181.1 1152.4 181.1 1150 181.4C1147.7 181.7 1145.1 182.5 1142.5 183.8C1138.9 185.6 1144.8 181.3 1152 176.9C1156.7 174.1 1159.6 172 1158.5 172.4C1149 175.1 1139.8 178.4 1136.3 180.4C1133.9 181.8 1132 182.5 1132 182.1C1132 180.6 1149.6 164.4 1154.9 161C1157.7 159.1 1159.8 157.5 1159.7 157.3C1158.9 156.6 1144.4 163.3 1138.9 166.9C1132.5 171.2 1132.4 171.1 1134.1 162.8C1134.9 158.8 1135.8 156.9 1137.4 156.2C1139.1 155.3 1139.2 155.1 1137.8 155.1C1135.5 155 1135.5 154.3 1138.9 137C1140.5 129 1141.7 122.4 1141.5 122.2C1141.3 122 1140.6 123.6 1140 125.7C1138.5 130.3 1122.5 158.3 1120.3 160.2C1118.9 161.3 1118.8 161.1 1119.3 158.5C1119.7 156.8 1120.9 150.1 1122.1 143.5C1124.2 132 1124.5 131.3 1129.1 125.4C1142.3 108.7 1158 97.9 1175.6 93.5C1182.9 91.7 1199.7 91.1 1206 92.5C1207.9 92.9 1209.2 92.9 1208.9 92.6C1207.9 91.6 1189.1 87.3 1182.3 86.6C1178.8 86.2 1172.4 86.4 1167.9 87C1152.6 89.1 1140.9 94.8 1128.8 105.9L1121.9 112.3L1115.2 109.7C1108 106.8 1098.6 104.5 1090.5 103.4L1085.6 102.8L1088 100.9C1093.1 96.9 1108.2 90.1 1115.5 88.5C1120.9 87.3 1126.3 86.9 1134.9 87.1C1141.5 87.3 1146.7 87.4 1146.6 87.2C1146.4 87.1 1142.1 86 1136.9 84.9C1123.1 81.8 1106 81.7 1096 84.8C1086.2 87.9 1078.2 92.4 1069.3 99.9L1062 106V97.1V88.2L1068.3 83.2C1071.7 80.5 1075.6 77.7 1076.8 77.1C1078.1 76.4 1079 75.7 1078.8 75.4C1078.3 75 1069.1 78.4 1065 80.5C1062.4 81.8 1062.2 81.8 1061.6 79.7C1061.3 78.5 1061 73.4 1060.9 68.5C1060.7 60 1060.7 59.8 1060 65C1058.8 73.5 1055.3 86.3 1053.8 87.1C1051.7 88.3 1044.6 94.1 1037.7 100.3L1031.2 106.1L1025.4 104.8L1019.5 103.5L1025.5 99.7C1028.8 97.6 1033.2 95.2 1035.2 94.2C1037.3 93.3 1039 92.2 1039 91.8C1039 90.7 1022.9 96 1014.4 99.9C1010 102 1004 104 1001.1 104.4C994.8 105.2 984.5 109 977.2 113.1C974.3 114.7 971.5 115.8 971 115.5C970.4 115.1 970 115.5 970 116.3C970 117.1 968.8 118.6 967.3 119.6C965.7 120.6 962.1 123.6 959.1 126.4L953.7 131.5L954.4 128C954.8 126.1 955.3 123.6 955.6 122.5C956 120.3 955.3 121.8 951.5 130.6C950.2 133.5 946.5 139.1 943.2 143.1C935.2 152.9 925.9 167.1 918.5 180.7C912.8 191.2 912.2 191.9 907.1 194.4C904.2 195.9 901.6 196.9 901.4 196.8C901.2 196.6 901.4 193.1 901.7 189.1C902.3 182.4 902.7 181.3 906.9 175.7C914.3 165.8 929.8 150.3 938.7 143.8C943.3 140.5 947 137.6 947 137.5C947 136.7 934.3 142.2 928.2 145.5C912.5 154.2 895.1 170.6 878.7 192.4C876.7 195.1 875 197 875 196.6C875 194.2 885.3 168.2 890.5 157.5C899.4 139.3 907.6 127.2 918.9 116C937 98 953.5 91.3 978 91.9C981.6 92 985.9 92.3 987.5 92.6C994.5 94 988.5 91.7 978.9 89.4C968.8 86.9 967.6 86.8 934 86.7C896.2 86.6 893.6 86.9 881.3 92.5C872.1 96.7 866.5 100.7 857.8 108.9L850.8 115.5L851.5 104.5C853 83.3 852.7 84.1 859.2 79.6C862.4 77.4 864.8 75.5 864.6 75.3C864.4 75.1 862.2 75.9 859.6 77C857 78.1 854.7 79 854.5 79C854.3 79 854.4 68.8 854.6 56.2C855 37.9 853.7 -9.30003 853.2 2.79998ZM759.5 80C759.9 80.6 759.4 83.4 758.4 86.3C757 90.6 754.8 93.3 745 103C738.5 109.4 729.3 120 724.1 127C719 133.9 713.9 140.1 712.7 140.8C711.2 141.6 708.6 141.9 705 141.5C698.9 140.8 677.7 137 677.2 136.5C676.5 135.8 685.1 122 691.1 114.1C708 91.6 729.1 80.2 755.7 79.1C757.4 79.1 759.2 79.5 759.5 80ZM896.4 98.8C888.9 103.8 884 108.3 877.8 115.8C873.2 121.3 870 124 865.7 126.2C862.4 127.8 859.7 129 859.5 128.8C858.7 128 870.5 115 876.5 110C882.6 104.9 897.2 96 899.5 96C900.1 96 898.7 97.2 896.4 98.8ZM836 120C834.6 136.9 834 141.2 832.2 144.5C829.6 149.4 829.6 148 832 136.5C833 131.6 833.7 127.4 833.6 127.2C833.4 127.1 832.3 129.6 831.1 132.7C828.3 140.3 820.7 152.5 818.9 152.3C816.2 152 802.5 149.6 802.1 149.4C801.5 148.9 812.2 132 820.1 120.9C827.5 110.5 837.1 98.6 837.5 99.2C837.6 99.4 836.9 108.7 836 120ZM1050.3 105.8C1048.6 112.4 1048.5 112.5 1044.5 111L1041.9 110L1046.6 104.5C1049.2 101.4 1051.4 99.1 1051.6 99.3C1051.8 99.4 1051.2 102.4 1050.3 105.8ZM906.9 108.2C896.5 118.2 885.4 134 877.3 150.5C874.4 156.3 872.9 158.2 870.6 159C869 159.5 867.5 160 867.3 160C867.1 160 868.7 156.5 870.9 152.2C879.6 135 893.1 117.5 905.3 107.8C911.7 102.8 912.4 103 906.9 108.2ZM1019.1 120.7C1010.1 131.9 1000 146.9 991.4 161.7C986 170.9 985.1 171.9 981.5 173C979.3 173.7 975.3 175.4 972.5 176.9C969.8 178.3 967.2 179.6 966.8 179.8C966.5 180 966.6 178.4 967.1 176.3C967.6 174.2 968 170.5 968 168C968.1 158.6 968.9 156.6 977.6 145.7C982.2 139.9 990.7 130.2 996.5 124.2C1008 112.2 1009.6 111.4 1021.7 111.1L1027 111L1019.1 120.7ZM1115 112.1C1117.7 112.7 1120 113.5 1120 113.8C1119.9 114.2 1118.7 115.9 1117.2 117.6C1115.2 119.9 1112.6 121.4 1107.3 122.9C1090.2 128 1075.1 135.5 1064.9 144.1L1060 148.2L1060.6 141.8C1060.9 138.4 1061.3 134.1 1061.6 132.3C1062.2 128.2 1070.3 117.2 1073.8 115.8C1084.5 111.5 1103.9 109.7 1115 112.1ZM1047.2 113.9C1047.6 114.3 1045.3 116.5 1042.1 118.8C1038.9 121.2 1034.1 125.2 1031.5 127.6C1025.5 133.4 1025.9 132.3 1033.9 121C1040.1 112.2 1040.4 111.9 1043.4 112.6C1045.1 112.9 1046.8 113.5 1047.2 113.9ZM747 122C746.5 125 745.6 131.4 745 136.1L743.8 144.7L736.2 145.3C731.9 145.5 728.4 145.6 728.2 145.5C728 145.3 729.7 142.2 732 138.5C737 130.4 747.1 115.8 747.5 116.2C747.7 116.4 747.4 119 747 122ZM1108.6 129.2C1103.3 136.9 1094.3 153.8 1090 164.1C1087 171.6 1086.8 171.8 1082.4 172.9C1080 173.5 1075.5 175.1 1072.5 176.5L1067 178.9L1062.5 176.9C1059.9 175.7 1058 174.2 1058 173.3C1058 170.7 1062.5 165.6 1068.4 161.5C1074.3 157.4 1075.2 155.8 1070.1 158.5C1068.4 159.3 1067 159.8 1067 159.4C1067 157.9 1078.2 145.1 1083.2 140.9C1092.9 132.8 1108.3 123.1 1111.7 123C1112.4 123 1111 125.8 1108.6 129.2ZM859.4 142.6C857.1 146.9 853.8 153.2 852.3 156.6C850.8 160.1 849.2 163 848.7 163C847.3 163 846.8 160 847.5 155.4C848 151.6 849.4 149.5 855.1 142.9C859 138.6 862.5 135 863 135C863.4 135 861.8 138.4 859.4 142.6ZM1036.2 146.7C1034.6 149.9 1032.3 155 1031.1 158.1C1028.9 163.6 1028.7 163.8 1023.9 164.7C1021.2 165.3 1019 165.5 1019 165.3C1019 163.7 1037.3 141 1038.6 141C1038.9 141 1037.7 143.6 1036.2 146.7ZM558.5 143C560.6 143 560.1 143.7 555.1 148.5C551.9 151.5 548.8 154 548.2 154C546.7 154 546.7 153.9 548.6 148.8C550.5 144 552.7 141.7 554.8 142.5C555.6 142.8 557.2 143 558.5 143ZM703.1 144.3L711.7 144.5L710.2 146.8C709.4 148 706.6 150.2 703.9 151.6C698.4 154.6 682.4 172.7 672.5 187C669.2 191.7 665.1 197.3 663.3 199.6C661.5 201.9 657.9 206.8 655.4 210.6C650.9 217.5 650.9 217.5 651.6 213.5C652.7 207.5 657.7 188 658.3 187.3C658.6 187 661 187.5 663.6 188.4C670 190.6 670.2 189.8 664 187.1C661.3 185.9 659 184.4 659 183.7C659 181.7 665.5 162.3 669 154C670.7 149.9 672.4 145.7 672.7 144.8C673.4 142.5 675 142.3 685.5 143.3C690.4 143.8 698.4 144.2 703.1 144.3ZM573.4 167.6C571.6 180 569.6 190.8 568.9 191.6C568.2 192.4 564.5 195.2 560.7 197.8C552.9 203 541.5 213.9 534.4 223.1C531.8 226.3 529.5 228.9 529.3 228.7C527.7 227 548.9 176 551.2 176C551.7 176 551.9 175.7 551.6 175.2C551.4 174.8 553.3 171.3 555.8 167.5C559.1 162.7 561.4 160.2 563.5 159.5C565.2 159 566.7 158.3 567 157.9C567.3 157.6 568.4 156.8 569.5 156.1C571.2 155.1 570.9 155 567.5 155.5L563.6 156.2L568.5 150.8C574 144.9 575.1 144 576.1 144.5C576.4 144.8 575.2 155.1 573.4 167.6ZM637.5 152.2C637 156.3 635.3 160.3 630.4 168.6C626.9 174.6 624 178.8 624 177.9C624 175.7 628.9 151.8 629.5 151.2C630.6 150.1 637.5 146.2 637.8 146.5C638 146.7 637.9 149.3 637.5 152.2ZM469.4 153.2C468.2 155.9 467.3 156.6 465.8 156.2C464 155.8 464.2 155.4 467.1 152.4C468.9 150.5 470.5 149.2 470.7 149.4C470.9 149.6 470.3 151.3 469.4 153.2ZM240.4 160.2C235.5 165.3 231.3 169.5 231 169.5C230.7 169.5 227.5 168.8 223.8 168.1C215.8 166.4 216 165.9 226 160C231.8 156.6 245.6 151.1 248.4 151C248.9 151 245.3 155.2 240.4 160.2ZM743 152.5C743 154.1 741.3 154.4 738.4 153.3C736.8 152.7 736.8 152.6 738.6 151.9C741.6 150.7 743 150.9 743 152.5ZM317.1 162.4C312.8 166.8 308.8 170 307.2 170.3C305.7 170.6 304.4 170.7 304.3 170.6C304.2 170.5 306 167.9 308.4 164.8C311.4 161.1 314.6 158.4 318.1 156.6C321 155.2 323.6 154.2 323.8 154.5C324.1 154.7 321 158.3 317.1 162.4ZM443.7 155.1C447.2 155.7 450 156.4 450 156.7C450 157 446.8 160.2 442.9 163.8C435.3 170.8 424.8 183 415.7 195.1C410.8 201.5 400 211.4 401.1 208.3C401.3 207.7 404.6 200.7 408.4 192.6C415 178.7 415.4 178.1 417.9 178.6C420.4 179.1 420.5 179.1 418.3 177.8C416.1 176.5 416.1 176.5 422.1 165.2L428.1 154H432.7C435.3 154 440.2 154.5 443.7 155.1ZM133.5 157.7C132.6 162.6 129 188.2 129 189.3C129 190.2 124.4 190.5 113.2 190.5C100.8 190.6 96.6 191 93.1 192.3C90.7 193.3 88.5 193.9 88.3 193.6C88.1 193.4 88.5 189.1 89.2 184.1L90.4 174.9L96.4 170.3C104 164.5 116.9 158.4 125.2 156.6C134.1 154.6 134 154.6 133.5 157.7ZM815.5 155.9C810.1 157.2 807.6 159.1 795.7 170.9L783.9 182.5L790.4 170C794.4 162.3 797.7 157 799.2 156.3C800.5 155.5 805 155.1 810 155.1C815.8 155.2 817.5 155.4 815.5 155.9ZM514.8 156.8C514.7 157.2 512.6 160.7 510.2 164.7C506.4 171 505.3 172 501.2 173.4C498.7 174.3 496.5 175 496.3 175C495.3 175 505.2 163 508.9 159.7C512.6 156.4 515.7 154.8 514.8 156.8ZM738.1 158.1L741.8 159L739.1 165.5C736.9 171 736.2 172 734.5 171.5C733.4 171.2 728.3 170.7 723.3 170.3L714 169.7L716.7 164.8C721.2 156.5 726.1 155 738.1 158.1ZM466 161C466 162.2 464.8 163.6 462.8 164.6C461 165.5 456.7 168.2 453.2 170.6C446 175.6 446.2 174.8 454.3 165.6C459 160.3 460.7 159 463.1 159C465.3 159 466 159.5 466 161ZM871.4 163.7C870.5 165.8 869.5 167.9 869 168.3C868.1 169.3 864 168.3 864 167.1C864 166.5 871.9 160 872.6 160C872.8 160 872.2 161.7 871.4 163.7ZM525.8 166.8C525.1 168.6 524.2 170 523.7 170C523.2 170 523 169.7 523.2 169.2C526.6 162.3 527.9 161 525.8 166.8ZM285.8 172.2C282.4 176.8 278.9 181.1 278 181.7C275.7 183.7 266 188.3 265.5 187.8C264.6 186.9 278.3 173.9 282.1 171.9C284.3 170.8 286 169.7 286 169.4C286 169.1 285.4 169.2 284.8 169.5C284.1 169.9 285.1 168.8 287 167.1C292.8 161.9 292.4 163.6 285.8 172.2ZM775 165.5C775 165.8 773 169.6 770.6 173.8C768.2 178 765.1 183.6 763.9 186.2C762 190.2 760.9 191.2 757.3 192.4L753 193.9L753.6 188.2C754.4 180.8 755.5 179.2 765.3 171.5C772.9 165.5 775 164.2 775 165.5ZM608.4 169.5C607.5 170.9 605.7 174.9 604.5 178.3C602.3 184.5 602.2 184.5 598 184.8C594.2 185.1 594 185 594.9 183.3C595.9 181.3 608.9 167 609.6 167C609.9 167 609.3 168.1 608.4 169.5ZM219.9 183.1L210.1 194.6L200.3 198.3C191.1 201.8 188 202.6 188 201.6C188 201.3 188.9 199.5 190.1 197.6C191.9 194.5 192.6 194.1 194.8 194.6C196.3 195 198.3 195.7 199.3 196.2C200.3 196.7 201.4 196.9 201.8 196.6C202.1 196.2 200.5 195.2 198.2 194.3C195.9 193.4 194 192.4 194 192C194 190.8 201.1 181.7 206.2 176.4L211.1 171.3L220.4 171.4L229.7 171.5L219.9 183.1ZM461.6 175.2C461.1 178.2 460.1 179 454.3 181.9L447.6 185.2L451.4 180.8C455.7 175.9 461.3 171 461.9 171.5C462.1 171.7 462 173.4 461.6 175.2ZM865.3 178.9C863.9 182.5 861.1 190.8 859.1 197.4C855.7 208.3 855.2 209.3 852.2 210.6C849.5 211.7 849 211.7 849 210.5C849 209.2 858.6 179.5 860.8 173.9C861.7 171.8 862.3 171.4 864.8 171.8L867.8 172.2L865.3 178.9ZM347.6 173.5C346.5 174.3 344.9 175 344.1 174.9C343.2 174.9 343.9 174.2 345.5 173.5C349.4 171.7 350 171.7 347.6 173.5ZM384.9 179.9C383 182.6 381.4 184.7 381.2 184.5C381.1 184.4 381.5 182.2 382.2 179.7C383.1 176.3 384 175 385.4 174.8C386.6 174.6 387.7 174.5 387.9 174.7C388.1 174.8 386.8 177.2 384.9 179.9ZM735.6 177.5C735.2 179.4 732.5 184.2 729.5 188.2C726.5 192.2 724 195.8 724 196.1C724 196.5 720.6 195.4 716.5 193.7C709.1 190.6 708.9 190.5 709.4 187.5L709.9 184.5L708.8 187.2C708.1 188.8 707.3 190 706.9 190C705 190 705.1 187.8 707.2 183.6C709.1 179.6 710.1 178.8 714.4 177.4C717.2 176.4 723 175.4 727.5 175C731.9 174.6 735.7 174.2 735.9 174.1C736.1 174.1 735.9 175.6 735.6 177.5ZM341.9 175.7C341.9 176.6 328.9 185.2 328.4 184.7C327.4 183.8 331.7 179.7 335.8 177.5C340.8 174.9 342 174.6 341.9 175.7ZM522 176.6C522 178.1 519.8 180.9 517.5 182.4L514.9 184.1L516.6 180.8C518.2 177.6 519.7 176 521.3 176C521.7 176 522 176.3 522 176.6ZM1022.1 184.2L1019.3 192.5L1013.9 193.1C1010.9 193.5 1007 194.1 1005.3 194.4L1002 195L1005.2 188.6C1008.4 182.1 1011.2 179.6 1018 177.3C1025.1 175 1025.2 175.1 1022.1 184.2ZM1062.7 178.1L1065.5 179.2L1062 181C1057.4 183.5 1057.3 183.5 1057.8 180C1058.3 176.7 1058.6 176.5 1062.7 178.1ZM1083.2 181.4C1082 184.5 1077.8 189.7 1069.4 198.4C1062.7 205.2 1056.9 210.6 1056.6 210.3C1056.3 209.9 1056 206.7 1056 203V196.3L1061.8 191.8C1068.4 186.5 1082.9 177 1084.1 177C1084.6 177 1084.2 179 1083.2 181.4ZM160.5 181.2C159.7 184.8 158.5 186 155.7 186C154.2 186 154.5 185.3 157.2 182C159 179.8 160.6 178 160.8 178C161 178 160.8 179.5 160.5 181.2ZM297.2 184.7C294.5 188.5 291.1 191.5 290.4 190.7C289.6 189.9 293.6 184.8 296.3 183.3C299.3 181.6 299.4 181.7 297.2 184.7ZM1140.9 199.9C1135.8 212.2 1131.2 219.8 1132.4 214C1133.4 208.9 1134 194.5 1133 196.5C1132.5 197.6 1132.1 199.3 1132.1 200.3C1132 203.2 1117.7 234.3 1114.6 238.3C1113 240.4 1111.5 241.9 1111.3 241.6C1111.1 241.4 1113.9 231.8 1117.5 220.4C1125 196.8 1125.3 196.3 1138.6 188.4C1143.9 185.2 1145.6 184.6 1145.8 185.8C1146 186.6 1143.8 192.9 1140.9 199.9ZM457.3 197.7C456.1 204.8 455 210.6 455 210.7C455 210.8 453.6 211.7 451.9 212.5L448.8 214.2L449.4 205.3C449.8 198.4 449.7 197.3 449 200.5C448.4 202.7 446.8 207.3 445.4 210.6L442.8 216.8L436.8 214.9C433.5 213.9 430.6 212.9 430.3 212.6C429.2 211.5 456.7 185.1 459.1 185C459.4 185 458.6 190.7 457.3 197.7ZM830.2 188.2C829.4 189 829.3 188.6 829.7 186.9C830.1 185.6 830.5 185.1 830.8 185.9C831 186.6 830.7 187.7 830.2 188.2ZM899.6 188.7C895.9 198.8 894.2 201.7 891.5 202.2C889.6 202.6 889 202.4 889.4 201.4C890.1 199.5 899.9 185 900.5 185C900.7 185 900.3 186.7 899.6 188.7ZM358.6 193C357.3 196.8 355.8 199.2 354.6 199.6C353.6 199.9 350.7 202.3 348.2 204.9C345.7 207.4 344.1 208.8 344.5 208C346.5 204.5 359.8 187 360.5 187C360.6 187 359.8 189.7 358.6 193ZM492.6 196.8L488.2 205.5L483.4 205.1L478.6 204.8L487.2 196.4C492 191.8 496.2 188 496.5 188C496.8 188 495 191.9 492.6 196.8ZM944.9 196.2C944 200.1 943.6 200.7 941.9 200.3C940.1 199.8 940.1 199.5 941.3 197.6C942.1 196.5 943.2 194.4 943.9 193.2C945.7 189.8 946 190.8 944.9 196.2ZM128 192.9C128 193.4 125.2 194.9 121.8 196.3L115.5 198.7L111.7 196.8C109.5 195.7 108 194.7 108.3 194.4C109.8 192.9 128 191.5 128 192.9ZM290 192.6C290 193.6 284.5 201 283.8 201C283.4 201 284.3 199 285.8 196.5C288.2 192.5 290 190.8 290 192.6ZM336.3 199.9C333.4 203.5 330.7 205.9 329.5 205.9C328 205.9 329.2 204.4 334 200C337.6 196.7 340.6 194 340.8 194C340.9 194 338.9 196.7 336.3 199.9ZM716.4 197.1L720.2 200.3L713.3 203C709.6 204.4 706.4 205.6 706.2 205.5C706.1 205.4 706.4 203.1 707 200.4C708.7 193.1 710.6 192.4 716.4 197.1ZM72.3 200.1C71.8 202.4 69.8 205 66.5 208C63.2 211 62.1 211.7 63.1 210C64 208.6 66.5 204.7 68.6 201.2C72.7 194.7 73.5 194.4 72.3 200.1ZM124.5 198.5C122.9 199.8 120.9 200.9 120.1 201C118.4 201 119 200.3 122.7 197.9C126.8 195.3 127.9 195.6 124.5 198.5ZM1014.4 204.8C1010.7 210.1 1010.5 210.3 1010.2 207.7C1009.5 201.8 1010.3 199.7 1014 198.5C1016.1 197.8 1017.6 197.7 1017.9 198.2C1018.1 198.7 1016.5 201.7 1014.4 204.8ZM201.6 206.2C198.2 210.8 192.8 218.1 189.7 222.5C186.7 226.9 183 231.6 181.5 233L178.8 235.5L179.4 233C179.8 231.6 180.7 227.4 181.5 223.7C183 216.1 185.1 213 188.6 213C189.9 213 191.1 212.6 191.4 212.1C191.8 211.6 191 211.4 189.8 211.7C187.8 212.1 188 211.7 191 209C195.1 205.3 205.8 198 207.1 198C207.6 198 205.1 201.7 201.6 206.2ZM253.8 207C250.2 212.2 247.2 215.6 246.7 215.1C245.4 213.8 247.6 210.3 253.8 203.7C256.8 200.6 259.5 198 259.6 198C259.8 198 257.2 202 253.8 207ZM754.4 205.7C752.4 210 750.6 213.7 750.3 214C750.1 214.2 750.2 212 750.5 209C751.1 204.5 751.8 203 754.3 200.7C756 199.2 757.5 198 757.7 198C757.8 198 756.3 201.5 754.4 205.7ZM144.3 202.6C143.2 204.3 142.4 204.8 142.2 204C141.9 203.3 142.5 202.1 143.6 201.3C146.2 199.4 146.3 199.6 144.3 202.6ZM1006.5 206.6L1004.1 212.5L1004 207.2C1004 202.6 1004.3 201.8 1006.3 201.1C1007.5 200.6 1008.6 200.3 1008.7 200.4C1008.9 200.6 1007.9 203.3 1006.5 206.6ZM88.8 204.1C87.5 205.9 86.4 206.6 86.1 205.9C85.9 205.2 86.7 203.8 88 202.8C91.2 200.2 91.4 200.6 88.8 204.1ZM117.2 202.6C117.5 202.9 114.3 206.6 110.1 210.8C100.2 220.8 87.1 238.2 81.6 248.8C80.6 250.7 79.7 252 79.5 251.8C79.3 251.7 79.6 249.2 80 246.3C81.6 236.8 99.6 213.3 112 204.6C115.7 201.9 116.4 201.7 117.2 202.6ZM714.4 213.2C709.3 223.2 702 232.3 702 228.7C702 225 704.3 217 705.3 217C706.1 217 706.1 216.7 705.2 216.2C704.5 215.7 704.2 214.7 704.5 213.9C705 212.6 717.7 203.1 719.1 203C719.4 203 717.3 207.6 714.4 213.2ZM998.6 211.6C995.7 218.2 994.7 219.6 992.6 219.8L990.1 220.1L993.2 213C995.3 208.3 997.2 205.4 998.9 204.5C1000.3 203.8 1001.6 203.3 1001.7 203.4C1001.9 203.6 1000.5 207.2 998.6 211.6ZM591.8 215.7C588.2 226.2 580.4 242 578.9 242C578.6 242 579.2 236.3 580.3 229.2L582.2 216.5L588.3 210.2C591.7 206.8 594.8 204 595.2 204C595.6 204 594.1 209.3 591.8 215.7ZM888 205.4C888 205.6 887.2 206.4 886.3 207.1C884.7 208.4 884.6 208.3 885.9 206.7C887.2 205.1 888 204.6 888 205.4ZM829.4 210.8C829 212.8 828.3 213.7 827.4 213.3C826.3 212.9 826.3 212.3 827.6 209.8C829.5 206.2 830.2 206.6 829.4 210.8ZM327.4 211.2C326.2 213.2 319.8 222 319.6 222C319.5 222 319.6 220.3 319.8 218.2C320.3 214 323.4 210 326.2 210C327.5 210 327.9 210.4 327.4 211.2ZM792.3 215.6C791.4 218.3 788.4 223.2 785.7 226.5C779.8 233.7 778.1 235.3 780.1 232C787 220.5 793.5 210.2 793.7 210.4C793.9 210.5 793.2 212.9 792.3 215.6ZM483.5 216.1L480.9 221.2L476.7 220.5C474.4 220.1 472.3 219.6 472.2 219.5C472 219.3 472.1 217.8 472.5 216.2C473.2 213 476.6 211.3 482.8 211.1L486 211L483.5 216.1ZM506 218.2C504.8 221.7 503.4 225.5 502.9 226.7C502.3 228.3 501.5 228.7 500 228.3C498.2 227.8 497.9 227.2 498.4 224.7C499 221.6 506.9 210.5 507.8 211.5C508.1 211.7 507.3 214.8 506 218.2ZM1041 212C1041 212.5 1040.5 213 1039.9 213C1039.4 213 1039.2 212.5 1039.5 212C1039.8 211.4 1040.3 211 1040.6 211C1040.8 211 1041 211.4 1041 212ZM298.1 218.3C297.1 219.2 297 219.1 297.6 217.7C297.9 216.7 298.5 216.2 298.8 216.5C299.1 216.8 298.8 217.6 298.1 218.3ZM68.8 226C68.2 230.3 66.7 234.2 64.7 237.5C63 240.2 58.3 248.8 54.3 256.5L46.9 270.5L47.5 264.5C48.2 257.9 50.5 251.2 55.8 240.5C59 234 69 218.6 69.5 219.2C69.7 219.4 69.3 222.4 68.8 226ZM437.8 220.5C438 220.7 434.4 224.6 429.9 229.3C425.3 233.9 418.7 241.5 415.4 246.3C409.4 254.7 409.2 254.8 408.1 252.4C407.5 251 407 249.4 407 248.7C407 246.9 419.8 224 422.4 221.1C424.3 219 425 218.8 431 219.4C434.5 219.8 437.6 220.3 437.8 220.5ZM243.4 221.5C243.8 222.7 236.3 240 234.7 241.7C234.5 241.8 234.7 239.3 235.2 235.9C235.9 230.4 240.5 220 242.1 220C242.5 220 243 220.7 243.4 221.5ZM1040 224.6C1040 225.7 1039.5 226 1038.4 225.6C1037.5 225.3 1036.6 225 1036.4 225C1036.1 225 1036.2 224.5 1036.5 224C1037.5 222.4 1040 222.8 1040 224.6ZM881.6 228.2C880.2 230.6 878 234.5 876.5 237L873.9 241.5L874.5 237C875 233.6 876.2 231.5 879.3 228.2C881.6 225.9 883.6 224 883.8 224C883.9 224 883 225.9 881.6 228.2ZM724.6 231.4C724 234.4 722.3 238.2 720.8 240.1L718 243.5L719.9 238.5C722.7 231.1 725 226 725.4 226C725.6 226 725.2 228.4 724.6 231.4ZM849 235.4C847.8 240.6 846.3 244.1 843.9 247.1C842.1 249.4 840.4 250.8 840.2 250.2C840 249.6 840.6 245.7 841.5 241.5C843 235 843.7 233.6 846.8 231C848.8 229.3 850.5 228 850.6 228C850.7 228 850 231.3 849 235.4ZM1161 230.5C1161 231 1159 234.5 1157.4 236.9C1156.9 237.5 1147 233.8 1147 233C1147 231.7 1152.1 230.2 1156.8 230.1C1159.1 230 1161 230.2 1161 230.5ZM470.8 234C469.4 236.2 468.4 235.9 469.3 233.5C469.7 232.7 470.4 232 471 232C471.6 232 471.6 232.7 470.8 234ZM1039 233.5C1039 235.2 1038.8 235.3 1036.6 234.4C1034.3 233.5 1034.6 232 1037 232C1038.1 232 1039 232.7 1039 233.5ZM988.8 234.8C988.7 235.2 987.7 237.6 986.7 240.1C985.2 243.9 984.4 244.7 982.9 244.3C981.8 244 981.1 243.2 981.4 242.6C981.7 242 982.4 239.8 983.1 237.7C984.1 234.8 984.8 234 986.7 234C988.1 234 989 234.3 988.8 234.8ZM499 236.3C499 237.7 495.7 246 495.1 246C494.7 246 494.8 243.7 495.4 241C496 238.1 496.9 236 497.7 236C498.4 236 499 236.1 499 236.3ZM1034.9 240.1C1033.6 242.7 1032.9 242.2 1033.7 239.2C1034 238 1034.6 237.3 1035.1 237.6C1035.6 237.9 1035.5 239 1034.9 240.1ZM201.1 240.9C196.7 249 188.5 273.8 186 286.3C185 291.3 183.4 294.1 175.7 304.5C170.6 311.3 166.4 316.8 166.3 316.7C165.9 316.2 172.2 294.6 175.5 285.1C181 269.3 187.2 257.3 194.7 247.7C201.6 238.9 202.9 237.5 201.1 240.9ZM1151.1 240.2C1154.8 241.2 1154.9 241.5 1153.7 243.4C1152.9 244.6 1151 249.3 1149.5 254C1147.6 259.6 1145.5 263.9 1143.1 266.7C1141.1 268.9 1139.4 270.7 1139.2 270.5C1138.9 270.2 1143.7 242.8 1144.5 240.2C1145 238.7 1146.2 238.7 1151.1 240.2ZM984 248.2C984 250.2 976.2 261.5 975.3 260.7C975.1 260.4 976.1 257.1 977.6 253.1C979.6 247.7 980.7 246 982.1 246C983.4 246 984 246.7 984 248.2ZM491.9 255.9C489 263.9 488.4 263.2 491.1 255.1C492.3 251.7 493.4 249.1 493.7 249.4C494 249.6 493.2 252.6 491.9 255.9ZM404.3 264.1C402.3 267.8 401.1 269 399.3 269C398.1 269 397 268.8 397 268.5C397 268.2 398.4 265.2 400.1 261.9C403 256 403.2 255.9 405 257.5C406.9 259.3 406.9 259.4 404.3 264.1ZM327.1 263C326 266 324.7 268.6 324.1 268.8C323.5 269 323 268.9 323 268.6C323 267.7 328.4 257 328.7 257.3C328.8 257.5 328.1 260.1 327.1 263ZM693.3 267.2C690.4 277.2 683.6 305 682 314C680.5 321.7 675.8 330 672.8 330C671.4 330 671 329.5 671.4 328.5C671.7 327.7 676.6 312.5 682.4 294.8C694.4 257.8 694 259 695 259C695.4 259 694.7 262.7 693.3 267.2ZM560 263C560 264.1 559.6 265 559.1 265C558.6 265 558.4 264.1 558.7 263C559 261.9 559.4 261 559.6 261C559.8 261 560 261.9 560 263ZM263.5 268.2C262.6 272.5 261.9 273.1 259.6 271.5C257.9 270.2 257.9 270 260.3 267.6C263.7 264.2 264.3 264.3 263.5 268.2ZM716.3 272.2C715 277.9 709.6 286.9 708.2 285.6C707.7 285 716.6 266 717.3 266C717.5 266 717.1 268.8 716.3 272.2ZM558.6 271.2C558.3 273.6 557.8 277.8 557.4 280.5C557 284.1 556 286.5 553.8 288.9C552.2 290.7 550.7 292 550.4 291.7C550.2 291.5 551.5 286 553.5 279.7C555.4 273.3 557 267.8 557 267.5C557 267.2 557.5 267 558.1 267C558.8 267 559 268.4 558.6 271.2ZM400 271.5C400 273.9 391.1 289.5 390.3 288.6C389.9 288.2 394.5 272.8 395.6 270.8C396 270.3 400 270.9 400 271.5ZM771.5 277.7C770.2 281.5 767 288.5 764.5 293.3C760 301.9 759.8 302.1 758.3 300C756.3 297.1 756.8 295.6 764.7 282.4C772.5 269.3 775.1 267.5 771.5 277.7ZM1181.6 284.2L1187.1 292L1180.7 300.2C1174 308.9 1164.3 323.2 1159.6 331.2C1157 335.7 1156.5 336 1152.8 336C1149.4 336 1148.9 335.7 1149.5 334.2C1149.9 333.3 1154.7 319.2 1160.1 303C1165.5 286.8 1170.3 272.8 1170.6 272C1171.3 270.2 1173.1 272.3 1181.6 284.2ZM606.4 280.2C606 282.6 603.4 289.9 600.5 296.5C597.7 303.1 594.2 311.5 592.9 315.2C591.6 319 590.2 322 589.8 322C589.3 322 589 321.7 589 321.4C589 320.5 606.4 276 606.7 276C606.9 276 606.7 277.9 606.4 280.2ZM256.9 295.6C255.9 300.2 254.5 305.1 253.8 306.5C252.4 309 252.4 309 248.2 301.5L244 293.9L248 287L252.1 280.2L255.4 283.8L258.7 287.4L256.9 295.6ZM1035 287.2C1035 289 1034.8 289.2 1034.1 288C1033.5 287.2 1033.4 286.2 1033.6 285.8C1034.5 284.4 1035 284.9 1035 287.2ZM1031.8 295.6L1034 300.1L1027.3 312.6C1020.9 324.4 1018.3 327.3 1018.7 321.9C1018.8 320.6 1019.2 315.6 1019.5 310.8C1020.1 302.5 1020.4 301.7 1024.3 296.5C1026.5 293.5 1028.6 291 1029 291C1029.3 291 1030.6 293 1031.8 295.6ZM103.1 315.5C100.5 328.2 100.1 329.5 98 329.8C96.6 330 95.9 329.7 96.2 328.8C97.1 325.2 105.4 301 105.6 301.3C105.8 301.4 104.6 307.8 103.1 315.5ZM242.4 305.2C243.5 307 245.6 310.4 247.2 312.8L250 317.1L246.9 326.1C243.9 334.7 243.6 335.1 241.1 334.6C239.7 334.3 235.4 333.8 231.7 333.5L224.8 332.8L225.5 329.2C226.2 325.6 238.7 302 240 302C240.3 302 241.4 303.5 242.4 305.2ZM75.5 306.7C75.1 307.7 73.2 312.5 71.4 317.5C68.9 324 68.2 325.4 68.6 322.5C69.1 318.9 74.8 305 75.8 305C76 305 75.9 305.8 75.5 306.7ZM553.3 310.7C552.3 317.5 552 318 549.5 318C546.4 318 546.4 317.9 549.6 311.9C552.5 306.7 554 306.2 553.3 310.7ZM756 310.2C756 310.9 755.5 312.2 755 313C754.2 314.2 754 313.9 754 311.7C754 310.2 754.5 309 755 309C755.6 309 756 309.6 756 310.2ZM922.9 319.6C922.3 323.4 921.7 326.6 921.6 326.7C921.6 326.8 920.3 327.1 918.7 327.5C916.5 328.1 916 327.9 916 326.4C916 324.7 923.2 311.9 923.8 312.5C924 312.6 923.6 315.9 922.9 319.6ZM888.5 338C888.2 338.5 887.5 339 886.9 339C886.4 339 886 338.5 886 338C886 337.4 886.7 337 887.6 337C888.4 337 888.8 337.4 888.5 338Z" fill="#FAFAFA"/>
</svg>
