<svg fill="none" height="394" viewBox="0 0 2304 394" width="2304" xmlns="http://www.w3.org/2000/svg" xmlns:xlink="http://www.w3.org/1999/xlink"><clipPath id="a"><path d="m0 0h2304v394h-2304z"/></clipPath><g clip-path="url(#a)" fill="#fafafa"><path d="m853.2 2.79998c-.1 1.9-2.9 14.20002-6.3 27.50002-5.4 21.5-6.2 25.9-7.3 40.9-1.1 15.6-1.4 17-3.5 18.4-14.9 10.5-32.7 31.1-51.6 60.2-.1.1-2.9.9-6.1 1.8-3.2.8-8.9 2.9-12.7 4.6-3.7 1.7-7 2.9-7.2 2.6-.3-.3-.3-2.4.1-4.8l.7-4.2 6.4.4c6.8.4 6.5-.5-.5-1.7-2.4-.4-4.6-1.3-4.8-1.9-.3-.7.4-7.2 1.6-14.6 1.1-7.6 2-18.2 2-24.8v-11.5l4.8-4.5c4.2-3.9 13.6-11.4 18.8-15 4-2.7-3.1-.1-12.8 4.8l-9.8 4.8v-3c0-2.8.2-3 2.8-2.5l2.7.6-2.9-1.2c-2.8-1.2-2.8-1.2-2.4-7.9.3-3.8.1-6.8-.3-6.8-.5 0-.9 1.1-.9 2.4 0 2.4-1.8 8.6-2.9 9.8-.3.4-4.7 0-9.6-.9-16.9-2.9-34.3.1-48.4 8.4-13.4 8-28.1 24.6-37.5 42.3-7.7 14.6-9.2 13.7-4.8-2.9 1.8-6.5 3.2-12.2 3.2-12.7s-1.3 1.4-2.8 4.2c-5.1 9.6-8.7 15.4-9.4 15.4s-1.4-32.2-.8-37.4c.1-1.1-.3-1.5-.9-1.2-.6.4-1.1 1.9-1.1 3.4s-2.4 12.1-5.3 23.6l-5.3 20.9-3.7 1.3c-2.1.8-3.7.9-3.7.3 0-.5.9-5 2-10 2.2-9.7 2.2-12.8.1-5.7-.7 2.4-3.4 7.7-5.9 11.9-4.3 7.2-4.9 7.8-11.6 11-7.3 3.5-16.8 9.9-22.3 15.2l-3.3 3.1v-2.5c0-1.3.7-6.5 1.6-11.4 1.6-9.5 3.3-21.2 3.4-23.2 0-1.6 3.7-4 10.7-6.9 7-2.8 4.9-3.2-3.3-.5-3.2 1.1-5.9 1.9-6 1.8 0-.1.3-9.9.7-21.7s.8-25.6.7-30.5v-9l-1.3 6c-.7 3.3-1.9 7.3-2.5 9-4.9 12.3-13.5 39.3-14.4 45.5l-1.1 7.4-6.2 3.9-6.2 3.8-6-1.2c-3.4-.6-6.1-1.5-6.1-2 0-.4 6.1-16.4 13.5-35.4 11.7-30.3 14.3-37.9 20-60.2 3.6-14.1 6.4-25.7 6.2-26-.3-.2-.9.9-1.5 2.6-.6 1.6-6.8 12.2-13.7 23.5l-12.7 20.5-14.3 37.7-14.2 37.6-4.4 2c-2.4 1-5.9 3.4-7.7 5.1-3.1 3-3.8 3.2-10.5 3.3-5.3 0-8.3.6-11.3 2.2-4.2 2.1-12.2 10.2-18.4 18.5-1.9 2.5-3.7 4.7-4 4.7s-.1-7.1.4-15.7c.8-14.1 1.1-15.9 3-17.5l2.1-1.7-2.2.6c-1.7.4-2.1.1-1.8-1.4.2-1 .6-6.3.8-11.8l.5-10-1.8 6.5c-.9 3.6-3.1 9.6-4.7 13.5-2.7 6.5-3.4 7.2-8.9 10.3-3.2 1.8-7.6 4.5-9.6 5.9l-3.8 2.6-10.2-2.8c-5.7-1.6-10.7-3.2-11.1-3.5-1.8-1.6 7.3-13.9 18.8-25.4 12.1-12.2 24.7-22 34.3-26.6 2.8-1.4 5.1-2.8 5.2-3.2 0-.9-15.6 4-21.4 6.8-2.7 1.3-5.1 2.2-5.3 2-.7-.7 18.1-17.7 24-21.6 3.2-2.2 5.5-4 4.9-4-2.9 0-18.3 7.6-26.3 13.1-8.9 6-24 20.9-34.7 34.3-5.2 6.5-14.3 17-20.1 23.4-5.8 6.3-12.7 14.1-15.3 17.3-4.6 5.6-4.8 5.7-8.3 4.9-2-.5-3.8-1-4-1.2-.6-.6.6-4.8 1.4-4.8.4 0 1.6-.7 2.7-1.6 1.8-1.5 1.8-1.5-.3-.9-1.6.4-2.3.2-2.3-.8 0-1.1 4.8-25 6.7-33.5.9-3.7-.6-2.4-1.6 1.5-.6 2.1-5.9 11.9-11.9 21.8l-10.8 18h-15.7c-8.6 0-15.7-.1-15.7-.2s1.4-2.4 3.1-5.1l3.1-5 5.6 1.3c8.8 2 15.4 2.6 19.2 1.6 4.2-1 3.1-1.5-7.3-3.1-4.3-.6-9.4-1.7-11.3-2.3l-3.4-1.2 4.3-5.2c4.7-5.7 15.9-15.9 22.5-20.5 2.4-1.6 8-4.8 12.5-6.9 7.1-3.4 7.6-4.1 1.7-2.1-4.1 1.4 1.6-2.3 10.5-6.8 5.5-2.7 9.7-5 9.3-5-2.5 0-19.2 4.5-24.7 6.7-13 5.2-29.3 15.6-43.7 28.1l-8.1 7-5.4-.9c-10.8-1.8-20.6 1.4-26.7 8.8-3 3.5-6.3 5.7-16.7 10.7-7.1 3.5-15.6 7.3-18.7 8.5-6.8 2.4-21.1 9.5-25.1 12.3-1.6 1.1-3 1.9-3.2 1.7-.5-.6 13.4-17.1 24.2-28.8l9.6-10.3 5 .5c2.8.2 4.3.1 3.5-.4-.7-.5-2.2-.9-3.4-.9-1.1 0-2.3-.3-2.6-.6-1-.9 15.8-16.1 26.5-24.1 5.5-4 15-9.9 21.1-12.9 8.7-4.3 10.2-5.4 7.1-4.8-21.5 3.7-43.5 15-64.8 33.4l-5.9 5h-7.3c-10.4 0-21.8 2.4-30.4 6.5-4 1.9-6.9 2.9-6.3 2.2 2.2-2.6 20.8-11.6 29.2-14.1 4.7-1.4 7.3-2.5 5.8-2.5-5.6-.2-28.7 5.1-36.8 8.4-4.6 1.9-8.6 3.3-8.7 3.1-.2-.2.8-5.6 2.1-12.2 1.4-6.5 2.3-12 2.1-12.3-.3-.2-.5.2-.6 1 0 .8-.4.6-.9-.6-.7-1.8-.8-1.7-1.5 1-.4 1.6-4.3 9.4-8.8 17.1-6.5 11.5-8.3 14-9.8 13.7-2.3-.6-2.2 1.2-.4-21.2 1.5-17.3 1.5-24 .1-15.2-.3 2.2-3.7 11.1-7.5 19.8-6.7 15.1-7.1 15.8-11.3 17.9-2.4 1.2-7.2 5.2-10.8 8.8-3.5 3.6-6.7 6.6-7 6.6-.4 0-.1-3.5.6-7.8.7-4.2 1.3-8.3 1.3-9.1.1-1 1.3-1.2 5.4-.8l5.2.6-4.7-1.5c-3.5-1.1-4.8-2-4.8-3.4 0-1 3.1-22.9 6.9-48.7 6.9-46.6 6.9-46.9 7.4-73.3.3-14.6.3-25.20002 0-23.50002-.2 1.6-4.2 14.20002-8.8 28.00002l-8.3 25-6.3 45.8-6.3 45.8-4.6-.6c-8.6-1.2-22.6 1.6-35.4 7-1.6.7-1.8.5-1.3-.8 1-2.7 2.6-26.6 3-45.7l.4-17.5-1.7 6.5c-1 3.6-4.5 14.6-7.9 24.5-5 14.3-6.7 20.8-8.2 31.4l-1.9 13.3-6.9 7.3c-3.8 4-9.2 10.6-12.1 14.7l-5.2 7.3.7-8c.3-4.4 1.7-22 3.1-39 2.2-27.9 2.4-34 1.7-61-.5-21.3-1-28.7-1.6-25.5-.4 2.5-3.5 15.3-6.7 28.5l-5.9 24-2.6 35.5c-1.4 19.5-3.4 45.6-4.5 58l-1.8 22.5-6.6 19c-7.4 21.5-12.9 42.2-17.6 67-1.8 9.4-3.9 17.5-4.6 18.1-1 .8-1.4 3.4-1.4 8.1 0 3.9-1.1 16.4-2.5 27.9s-2.5 23.5-2.5 26.6c0 5.2.2 5.8 2.1 5.8 1.1 0 2.8.4 3.7.9.9.4 3.8 1.1 6.4 1.4 4.3.6 4.8.5 4.8-1.3 0-1.6.7-2 3-2 1.7 0 3 .4 3 1 0 1.1 6.4 3 10.3 3 2.1 0 2.7-.5 2.7-2.1 0-2.1.3-2.1 9.3-1.6 10.5.7 12.1 1 16 2.6 3.6 1.4 3.4 1.5 4-.9.5-1.8 1.4-2 8.1-2 5.2 0 9.2.6 12.8 2 4.4 1.7 5.5 1.8 6.2.7s1.8-1.2 6.4-.1c5.1 1.2 5.4 1.2 5.9-.7s1.2-2 12.2-1.6c6.4.2 13.4.8 15.6 1.4s6.1 1.4 8.8 1.8c4.3.6 4.7.4 4.7-1.4 0-2 .6-2.1 9.3-2.1 5.1 0 9.7.4 10.3.9 1.6 1.5 9.4 3 10 1.9.3-.5 1.3-.6 2.3-.3.9.4 6.3.9 11.9 1.1 9.7.4 10.4.3 10.9-1.6s1.4-2 15.2-2c11.9 0 15.7.4 20.5 2 5.8 2 7.5 1.7 7.6-1.3 0-.4 9.8-.7 21.8-.7 19 0 22.6.3 27.5 1.9 4 1.4 5.7 1.6 6 .8.3-.9 1.4-.9 4.8 0 4.1 1.1 4.5 1 6-.9 1.5-2 2.3-2.1 10.4-1.4 4.9.3 9.3 1 9.9 1.5.6.4 3 1.1 5.3 1.5 3.4.5 4.4.3 5.2-1.1.9-1.7 1.2-1.7 5.7 0 4.6 1.7 4.7 1.7 6.1-.3 1.3-1.9 2.5-2 16.4-2 12.4 0 16 .3 21 2 5.7 1.9 6.2 2 7.3.4 1-1.2 1.7-1.4 3.2-.7 1 .6 3.1 1.3 4.6 1.7 2.1.5 2.8.2 3.3-1.4.6-1.8 1.5-2 10.9-2 7.7 0 11.8.5 16.1 2 3.2 1.1 5.9 2 6 2 .2 0 .5-.9.8-2 .5-1.9 1.4-2 29.5-2 24.5 0 29.1.2 30.2 1.5 1.4 1.7 6 2 6 .4 0-.6.7-.3 1.6.5 2.3 2.4 5.4 2 5.4-.5 0-2 .4-2.1 12.3-1.8 7.4.3 13 .9 13.8 1.6.8.6 4 1.4 7.2 1.8 5.4.7 5.7.6 5.7-1.4s.4-2.1 14.9-2.1c10 0 17.2.5 21.7 1.6 3.7.8 10.2 1.7 14.6 1.9 7.4.4 7.8.3 7.8-1.6s.5-2 4.3-1.6c2.3.3 8 1.3 12.6 2.2 6 1.1 8.6 1.3 9.1.5s1.5-.8 3.4 0c3.5 1.3 3.3 1.4 3.9-1.1.6-2.1.9-2.2 13.9-1.7 7.3.3 14.4 1 15.8 1.5 1.4.6 4.4 1.3 6.8 1.7 3.8.6 4.2.4 4.2-1.4 0-1.6.7-2 3.4-2 1.9 0 3.7.4 4 .9s2.2 1.2 4.2 1.5c1.9.4 4.1.9 4.9 1.2.7.3 1.6-.3 2-1.5.5-1.8.9-1.9 3.8-.6 1.8.7 5.1 1.6 7.3 2 3.7.6 4.2.4 4.7-1.6.6-2.1 1-2.1 9.1-1.7 4.6.2 9 .9 9.8 1.5.7.6 3.2 1.3 5.4 1.7 3.7.5 4.2.3 4.7-1.5.5-1.9 1.1-2.1 4.4-1.5 2.1.3 4.7.7 5.8.9 1.1.1 2.2.5 2.5.8s1.7.9 3.3 1.3c2.3.5 2.7.3 2.7-1.5 0-2.2.2-2.2 10.6-1.6 5.8.3 11.1 1 11.7 1.5.7.5 3.1 1.2 5.4 1.6 3.6.5 4.4.3 5.3-1.4 1.1-2 7-3 7-1.1 0 .5 2.8 1.4 6.3 2 8.1 1.4 7.7 1.5 7.7-1 0-2.1.3-2.2 8.1-1.6 4.5.3 8.5.9 8.8 1.5.3.5 2.7 1.2 5.4 1.5 3.8.5 4.7.4 4.7-.9 0-1 .6-1.4 1.8-1 6 1.8 10.7 2.4 11.3 1.4.5-.8 1.6-.8 3.8 0 2.7 1 3.3.8 4.4-.8 1.5-2.5 3.9-2.5 11.2 0 3.2 1.1 5.9 2 6 2 .2 0 .5-.9.8-2 .7-2.6 3.2-2.5 9.8 0l5.2 2.1 1.4-2.1c1.3-1.9 2.4-2 20.6-2 15.4 0 20.5.4 25.7 1.8 7.8 2.2 12.9 2.1 14.2-.1.8-1.5 3.4-1.7 22.8-1.7 17.6 0 22.1.3 22.7 1.4.5.8 3.4 1.7 7.1 2.1 5.9.7 6.2.6 6.2-1.4 0-1.2.5-2.1 1-2.1.6 0 1 .4 1 1 0 1 6.3 3 9.7 3 1.3 0 2.4-.8 2.8-2 .8-2.4 6.1-2.8 7.9-.6.6.8 3.6 1.7 6.7 2.1 5.1.6 5.7.4 6.2-1.4.5-1.9 1.3-2.1 9.2-2.1 6.4 0 9 .4 10.2 1.5.8.8 2.7 1.5 4.1 1.4 1.5 0 4.6.3 7 .7 3.8.6 4.2.5 4.2-1.5 0-1.7.5-2 2.3-1.6 15.2 3.5 15 3.5 16.2 1.8 1.1-1.5 1.6-1.5 5.8 0 4.5 1.5 4.7 1.5 5.7-.4 1.4-2.6 9.2-2.6 16.2.1 2.9 1.1 5.4 2 5.4 2 .1 0 .4-.9.7-2 .5-1.9 1.4-2 12.1-2h11.6v-29.7-29.7l4.2-7c4.9-8.4 19.6-30.4 20.8-31.1.4-.3 2.8 1.9 5.4 4.9 3.7 4.4 11.9 10.6 13.9 10.6.2 0-2.8-5-6.9-11.2l-7.3-11.2 4-4.8c13.7-16.3 22.4-23.5 25.9-21.3 1.6 1 9.8 13.6 18 27.5 9.8 16.8 15.4 24.5 20.3 28.1 2.2 1.6 4.2 2.8 4.4 2.6.6-.6-17.8-33.9-22.7-41.2-6.2-9.1-10.5-13.1-21.4-19.9-13.4-8.3-15.3-7.9-29 6.5l-8.7 9.1-1.7-2.3c-3.2-4.7-11.3-12.6-14.7-14.5-1.9-1-3.3-2.3-3.1-2.9.3-.5 1.9-5.4 3.7-10.8 2.3-6.6 3.8-9.7 4.9-9.7s1.2-.2.2-.8c-1-.7-1-1.9 0-6.1l1.2-5.2 5.3.7c2.9.3 5.3.4 5.3.1s1.5-4.1 3.4-8.6l3.5-8-5.7 2.8c-3.1 1.6-6.7 3.2-7.9 3.6-2.1.6-2.2.4-1.6-2.7.4-1.8 2.1-10.3 3.8-18.8 1.8-8.5 3.1-15.6 3-15.8-.1-.1-1 1.9-2 4.4-1.7 4.5-14.5 26.7-15 26.2-.2-.2.3-3.2 1.1-6.8 1.8-8.6 1.7-10.4-.4-5.4-3.2 7.8-10.6 19.5-11.9 19-3-1.2-14.4-2.8-15.8-2.2-1 .3-1.5-.1-1.5-1.3 0-2.9 15.9-18.2 25.4-24.6 4.8-3.1 11.6-7 15.4-8.6 9.6-4.1 5.2-3.6-8.8 1.1-12.4 4.1-20.7 7.9-27.2 12.4l-3.8 2.5v-3.7c0-2 .3-6.7.6-10.4.6-5.4 1.1-6.8 2.8-7.7 2-1 2-1-.4-.7-2.3.3-4.9 1.1-7.5 2.4-3.6 1.8 2.3-2.5 9.5-6.9 4.7-2.8 7.6-4.9 6.5-4.5-9.5 2.7-18.7 6-22.2 8-2.4 1.4-4.3 2.1-4.3 1.7 0-1.5 17.6-17.7 22.9-21.1 2.8-1.9 4.9-3.5 4.8-3.7-.8-.7-15.3 6-20.8 9.6-6.4 4.3-6.5 4.2-4.8-4.1.8-4 1.7-5.9 3.3-6.6 1.7-.9 1.8-1.1.4-1.1-2.3-.1-2.3-.8 1.1-18.1 1.6-8 2.8-14.6 2.6-14.8s-.9 1.4-1.5 3.5c-1.5 4.6-17.5 32.6-19.7 34.5-1.4 1.1-1.5.9-1-1.7.4-1.7 1.6-8.4 2.8-15 2.1-11.5 2.4-12.2 7-18.1 13.2-16.7 28.9-27.5 46.5-31.9 7.3-1.8 24.1-2.4 30.4-1 1.9.4 3.2.4 2.9.1-1-1-19.8-5.3-26.6-6-3.5-.4-9.9-.2-14.4.4-15.3 2.1-27 7.8-39.1 18.9l-6.9 6.4-6.7-2.6c-7.2-2.9-16.6-5.2-24.7-6.3l-4.9-.6 2.4-1.9c5.1-4 20.2-10.8 27.5-12.4 5.4-1.2 10.8-1.6 19.4-1.4 6.6.2 11.8.3 11.7.1-.2-.1-4.5-1.2-9.7-2.3-13.8-3.1-30.9-3.2-40.9-.1-9.8 3.1-17.8 7.6-26.7 15.1l-7.3 6.1v-8.9-8.9l6.3-5c3.4-2.7 7.3-5.5 8.5-6.1 1.3-.7 2.2-1.4 2-1.7-.5-.4-9.7 3-13.8 5.1-2.6 1.3-2.8 1.3-3.4-.8-.3-1.2-.6-6.3-.7-11.2-.2-8.5-.2-8.7-.9-3.5-1.2 8.5-4.7 21.3-6.2 22.1-2.1 1.2-9.2 7-16.1 13.2l-6.5 5.8-5.8-1.3-5.9-1.3 6-3.8c3.3-2.1 7.7-4.5 9.7-5.5 2.1-.9 3.8-2 3.8-2.4 0-1.1-16.1 4.2-24.6 8.1-4.4 2.1-10.4 4.1-13.3 4.5-6.3.8-16.6 4.6-23.9 8.7-2.9 1.6-5.7 2.7-6.2 2.4-.6-.4-1 0-1 .8s-1.2 2.3-2.7 3.3c-1.6 1-5.2 4-8.2 6.8l-5.4 5.1.7-3.5c.4-1.9.9-4.4 1.2-5.5.4-2.2-.3-.7-4.1 8.1-1.3 2.9-5 8.5-8.3 12.5-8 9.8-17.3 24-24.7 37.6-5.7 10.5-6.3 11.2-11.4 13.7-2.9 1.5-5.5 2.5-5.7 2.4-.2-.2 0-3.7.3-7.7.6-6.7 1-7.8 5.2-13.4 7.4-9.9 22.9-25.4 31.8-31.9 4.6-3.3 8.3-6.2 8.3-6.3 0-.8-12.7 4.7-18.8 8-15.7 8.7-33.1 25.1-49.5 46.9-2 2.7-3.7 4.6-3.7 4.2 0-2.4 10.3-28.4 15.5-39.1 8.9-18.2 17.1-30.3 28.4-41.5 18.1-18 34.6-24.7 59.1-24.1 3.6.1 7.9.4 9.5.7 7 1.4 1-.9-8.6-3.2-10.1-2.5-11.3-2.6-44.9-2.7-37.8-.1-40.4.2-52.7 5.8-9.2 4.2-14.8 8.2-23.5 16.4l-7 6.6.7-11c1.5-21.2 1.2-20.4 7.7-24.9 3.2-2.2 5.6-4.1 5.4-4.3s-2.4.6-5 1.7-4.9 2-5.1 2-.1-10.2.1-22.8c.4-18.3-.9-65.50003-1.4-53.40002zm-93.7 77.20002c.4.6-.1 3.4-1.1 6.3-1.4 4.3-3.6 7-13.4 16.7-6.5 6.4-15.7 17-20.9 24-5.1 6.9-10.2 13.1-11.4 13.8-1.5.8-4.1 1.1-7.7.7-6.1-.7-27.3-4.5-27.8-5-.7-.7 7.9-14.5 13.9-22.4 16.9-22.5 38-33.9 64.6-35 1.7 0 3.5.4 3.8.9zm136.9 18.8c-7.5 5-12.4 9.5-18.6 17-4.6 5.5-7.8 8.2-12.1 10.4-3.3 1.6-6 2.8-6.2 2.6-.8-.8 11-13.8 17-18.8 6.1-5.1 20.7-14 23-14 .6 0-.8 1.2-3.1 2.8zm-60.4 21.2c-1.4 16.9-2 21.2-3.8 24.5-2.6 4.9-2.6 3.5-.2-8 1-4.9 1.7-9.1 1.6-9.3-.2-.1-1.3 2.4-2.5 5.5-2.8 7.6-10.4 19.8-12.2 19.6-2.7-.3-16.4-2.7-16.8-2.9-.6-.5 10.1-17.4 18-28.5 7.4-10.4 17-22.3 17.4-21.7.1.2-.6 9.5-1.5 20.8zm214.3-14.2c-1.7 6.6-1.8 6.7-5.8 5.2l-2.6-1 4.7-5.5c2.6-3.1 4.8-5.4 5-5.2.2.1-.4 3.1-1.3 6.5zm-143.4 2.4c-10.4 10-21.5 25.8-29.6 42.3-2.9 5.8-4.4 7.7-6.7 8.5-1.6.5-3.1 1-3.3 1s1.4-3.5 3.6-7.8c8.7-17.2 22.2-34.7 34.4-44.4 6.4-5 7.1-4.8 1.6.4zm112.2 12.5c-9 11.2-19.1 26.2-27.7 41-5.4 9.2-6.3 10.2-9.9 11.3-2.2.7-6.2 2.4-9 3.9-2.7 1.4-5.3 2.7-5.7 2.9-.3.2-.2-1.4.3-3.5s.9-5.8.9-8.3c.1-9.4.9-11.4 9.6-22.3 4.6-5.8 13.1-15.5 18.9-21.5 11.5-12 13.1-12.8 25.2-13.1l5.3-.1zm95.9-8.6c2.7.6 5 1.4 5 1.7-.1.4-1.3 2.1-2.8 3.8-2 2.3-4.6 3.8-9.9 5.3-17.1 5.1-32.2 12.6-42.4 21.2l-4.9 4.1.6-6.4c.3-3.4.7-7.7 1-9.5.6-4.1 8.7-15.1 12.2-16.5 10.7-4.3 30.1-6.1 41.2-3.7zm-67.8 1.8c.4.4-1.9 2.6-5.1 4.9-3.2 2.4-8 6.4-10.6 8.8-6 5.8-5.6 4.7 2.4-6.6 6.2-8.8 6.5-9.1 9.5-8.4 1.7.3 3.4.9 3.8 1.3zm-300.2 8.1c-.5 3-1.4 9.4-2 14.1l-1.2 8.6-7.6.6c-4.3.2-7.8.3-8 .2-.2-.2 1.5-3.3 3.8-7 5-8.1 15.1-22.7 15.5-22.3.2.2-.1 2.8-.5 5.8zm361.6 7.2c-5.3 7.7-14.3 24.6-18.6 34.9-3 7.5-3.2 7.7-7.6 8.8-2.4.6-6.9 2.2-9.9 3.6l-5.5 2.4-4.5-2c-2.6-1.2-4.5-2.7-4.5-3.6 0-2.6 4.5-7.7 10.4-11.8s6.8-5.7 1.7-3c-1.7.8-3.1 1.3-3.1.9 0-1.5 11.2-14.3 16.2-18.5 9.7-8.1 25.1-17.8 28.5-17.9.7 0-.7 2.8-3.1 6.2zm-249.2 13.4c-2.3 4.3-5.6 10.6-7.1 14-1.5 3.5-3.1 6.4-3.6 6.4-1.4 0-1.9-3-1.2-7.6.5-3.8 1.9-5.9 7.6-12.5 3.9-4.3 7.4-7.9 7.9-7.9.4 0-1.2 3.4-3.6 7.6zm176.8 4.1c-1.6 3.2-3.9 8.3-5.1 11.4-2.2 5.5-2.4 5.7-7.2 6.6-2.7.6-4.9.8-4.9.6 0-1.6 18.3-24.3 19.6-24.3.3 0-.9 2.6-2.4 5.7zm-477.7-3.7c2.1 0 1.6.7-3.4 5.5-3.2 3-6.3 5.5-6.9 5.5-1.5 0-1.5-.1.4-5.2 1.9-4.8 4.1-7.1 6.2-6.3.8.3 2.4.5 3.7.5zm144.6 1.3 8.6.2-1.5 2.3c-.8 1.2-3.6 3.4-6.3 4.8-5.5 3-21.5 21.1-31.4 35.4-3.3 4.7-7.4 10.3-9.2 12.6s-5.4 7.2-7.9 11c-4.5 6.9-4.5 6.9-3.8 2.9 1.1-6 6.1-25.5 6.7-26.2.3-.3 2.7.2 5.3 1.1 6.4 2.2 6.6 1.4.4-1.3-2.7-1.2-5-2.7-5-3.4 0-2 6.5-21.4 10-29.7 1.7-4.1 3.4-8.3 3.7-9.2.7-2.3 2.3-2.5 12.8-1.5 4.9.5 12.9.9 17.6 1zm-129.7 23.3c-1.8 12.4-3.8 23.2-4.5 24s-4.4 3.6-8.2 6.2c-7.8 5.2-19.2 16.1-26.3 25.3-2.6 3.2-4.9 5.8-5.1 5.6-1.6-1.7 19.6-52.7 21.9-52.7.5 0 .7-.3.4-.8-.2-.4 1.7-3.9 4.2-7.7 3.3-4.8 5.6-7.3 7.7-8 1.7-.5 3.2-1.2 3.5-1.6.3-.3 1.4-1.1 2.5-1.8 1.7-1 1.4-1.1-2-.6l-3.9.7 4.9-5.4c5.5-5.9 6.6-6.8 7.6-6.3.3.3-.9 10.6-2.7 23.1zm64.1-15.4c-.5 4.1-2.2 8.1-7.1 16.4-3.5 6-6.4 10.2-6.4 9.3 0-2.2 4.9-26.1 5.5-26.7 1.1-1.1 8-5 8.3-4.7.2.2.1 2.8-.3 5.7zm-168.1 1c-1.2 2.7-2.1 3.4-3.6 3-1.8-.4-1.6-.8 1.3-3.8 1.8-1.9 3.4-3.2 3.6-3s-.4 1.9-1.3 3.8zm-229 7c-4.9 5.1-9.1 9.3-9.4 9.3s-3.5-.7-7.2-1.4c-8-1.7-7.8-2.2 2.2-8.1 5.8-3.4 19.6-8.9 22.4-9 .5 0-3.1 4.2-8 9.2zm502.6-7.7c0 1.6-1.7 1.9-4.6.8-1.6-.6-1.6-.7.2-1.4 3-1.2 4.4-1 4.4.6zm-425.9 9.9c-4.3 4.4-8.3 7.6-9.9 7.9-1.5.3-2.8.4-2.9.3s1.7-2.7 4.1-5.8c3-3.7 6.2-6.4 9.7-8.2 2.9-1.4 5.5-2.4 5.7-2.1.3.2-2.8 3.8-6.7 7.9zm126.6-7.3c3.5.6 6.3 1.3 6.3 1.6s-3.2 3.5-7.1 7.1c-7.6 7-18.1 19.2-27.2 31.3-4.9 6.4-15.7 16.3-14.6 13.2.2-.6 3.5-7.6 7.3-15.7 6.6-13.9 7-14.5 9.5-14s2.6.5.4-.8-2.2-1.3 3.8-12.6l6-11.2h4.6c2.6 0 7.5.5 11 1.1zm-310.2 2.6c-.9 4.9-4.5 30.5-4.5 31.6 0 .9-4.6 1.2-15.8 1.2-12.4.1-16.6.5-20.1 1.8-2.4 1-4.6 1.6-4.8 1.3-.2-.2.2-4.5.9-9.5l1.2-9.2 6-4.6c7.6-5.8 20.5-11.9 28.8-13.7 8.9-2 8.8-2 8.3 1.1zm682-1.8c-5.4 1.3-7.9 3.2-19.8 15l-11.8 11.6 6.5-12.5c4-7.7 7.3-13 8.8-13.7 1.3-.8 5.8-1.2 10.8-1.2 5.8.1 7.5.3 5.5.8zm-300.7.9c-.1.4-2.2 3.9-4.6 7.9-3.8 6.3-4.9 7.3-9 8.7-2.5.9-4.7 1.6-4.9 1.6-1 0 8.9-12 12.6-15.3s6.8-4.9 5.9-2.9zm223.3 1.3 3.7.9-2.7 6.5c-2.2 5.5-2.9 6.5-4.6 6-1.1-.3-6.2-.8-11.2-1.2l-9.3-.6 2.7-4.9c4.5-8.3 9.4-9.8 21.4-6.7zm-272.1 2.9c0 1.2-1.2 2.6-3.2 3.6-1.8.9-6.1 3.6-9.6 6-7.2 5-7 4.2 1.1-5 4.7-5.3 6.4-6.6 8.8-6.6 2.2 0 2.9.5 2.9 2zm405.4 2.7c-.9 2.1-1.9 4.2-2.4 4.6-.9 1-5 0-5-1.2 0-.6 7.9-7.1 8.6-7.1.2 0-.4 1.7-1.2 3.7zm-345.6 3.1c-.7 1.8-1.6 3.2-2.1 3.2s-.7-.3-.5-.8c3.4-6.9 4.7-8.2 2.6-2.4zm-240 5.4c-3.4 4.6-6.9 8.9-7.8 9.5-2.3 2-12 6.6-12.5 6.1-.9-.9 12.8-13.9 16.6-15.9 2.2-1.1 3.9-2.2 3.9-2.5s-.6-.2-1.2.1c-.7.4.3-.7 2.2-2.4 5.8-5.2 5.4-3.5-1.2 5.1zm489.2-6.7c0 .3-2 4.1-4.4 8.3s-5.5 9.8-6.7 12.4c-1.9 4-3 5-6.6 6.2l-4.3 1.5.6-5.7c.8-7.4 1.9-9 11.7-16.7 7.6-6 9.7-7.3 9.7-6zm-166.6 4c-.9 1.4-2.7 5.4-3.9 8.8-2.2 6.2-2.3 6.2-6.5 6.5-3.8.3-4 .2-3.1-1.5 1-2 14-16.3 14.7-16.3.3 0-.3 1.1-1.2 2.5zm-388.5 13.6-9.8 11.5-9.8 3.7c-9.2 3.5-12.3 4.3-12.3 3.3 0-.3.9-2.1 2.1-4 1.8-3.1 2.5-3.5 4.7-3 1.5.4 3.5 1.1 4.5 1.6s2.1.7 2.5.4c.3-.4-1.3-1.4-3.6-2.3s-4.2-1.9-4.2-2.3c0-1.2 7.1-10.3 12.2-15.6l4.9-5.1 9.3.1 9.3.1zm241.7-7.9c-.5 3-1.5 3.8-7.3 6.7l-6.7 3.3 3.8-4.4c4.3-4.9 9.9-9.8 10.5-9.3.2.2.1 1.9-.3 3.7zm403.7 3.7c-1.4 3.6-4.2 11.9-6.2 18.5-3.4 10.9-3.9 11.9-6.9 13.2-2.7 1.1-3.2 1.1-3.2-.1 0-1.3 9.6-31 11.8-36.6.9-2.1 1.5-2.5 4-2.1l3 .4zm-517.7-5.4c-1.1.8-2.7 1.5-3.5 1.4-.9 0-.2-.7 1.4-1.4 3.9-1.8 4.5-1.8 2.1 0zm37.3 6.4c-1.9 2.7-3.5 4.8-3.7 4.6-.1-.1.3-2.3 1-4.8.9-3.4 1.8-4.7 3.2-4.9 1.2-.2 2.3-.3 2.5-.1.2.1-1.1 2.5-3 5.2zm350.7-2.4c-.4 1.9-3.1 6.7-6.1 10.7s-5.5 7.6-5.5 7.9c0 .4-3.4-.7-7.5-2.4-7.4-3.1-7.6-3.2-7.1-6.2l.5-3-1.1 2.7c-.7 1.6-1.5 2.8-1.9 2.8-1.9 0-1.8-2.2.3-6.4 1.9-4 2.9-4.8 7.2-6.2 2.8-1 8.6-2 13.1-2.4 4.4-.4 8.2-.8 8.4-.9.2 0 0 1.5-.3 3.4zm-393.7-1.8c0 .9-13 9.5-13.5 9-1-.9 3.3-5 7.4-7.2 5-2.6 6.2-2.9 6.1-1.8zm180.1.9c0 1.5-2.2 4.3-4.5 5.8l-2.6 1.7 1.7-3.3c1.6-3.2 3.1-4.8 4.7-4.8.4 0 .7.3.7.6zm500.1 7.6-2.8 8.3-5.4.6c-3 .4-6.9 1-8.6 1.3l-3.3.6 3.2-6.4c3.2-6.5 6-9 12.8-11.3 7.1-2.3 7.2-2.2 4.1 6.9zm40.6-6.1 2.8 1.1-3.5 1.8c-4.6 2.5-4.7 2.5-4.2-1 .5-3.3.8-3.5 4.9-1.9zm20.5 3.3c-1.2 3.1-5.4 8.3-13.8 17-6.7 6.8-12.5 12.2-12.8 11.9-.3-.4-.6-3.6-.6-7.3v-6.7l5.8-4.5c6.6-5.3 21.1-14.8 22.3-14.8.5 0 .1 2-.9 4.4zm-922.7-.2c-.8 3.6-2 4.8-4.8 4.8-1.5 0-1.2-.7 1.5-4 1.8-2.2 3.4-4 3.6-4s0 1.5-.3 3.2zm136.7 3.5c-2.7 3.8-6.1 6.8-6.8 6-.8-.8 3.2-5.9 5.9-7.4 3-1.7 3.1-1.6.9 1.4zm843.7 15.2c-5.1 12.3-9.7 19.9-8.5 14.1 1-5.1 1.6-19.5.6-17.5-.5 1.1-.9 2.8-.9 3.8-.1 2.9-14.4 34-17.5 38-1.6 2.1-3.1 3.6-3.3 3.3-.2-.2 2.6-9.8 6.2-21.2 7.5-23.6 7.8-24.1 21.1-32 5.3-3.2 7-3.8 7.2-2.6.2.8-2 7.1-4.9 14.1zm-683.6-2.2c-1.2 7.1-2.3 12.9-2.3 13s-1.4 1-3.1 1.8l-3.1 1.7.6-8.9c.4-6.9.3-8-.4-4.8-.6 2.2-2.2 6.8-3.6 10.1l-2.6 6.2-6-1.9c-3.3-1-6.2-2-6.5-2.3-1.1-1.1 26.4-27.5 28.8-27.6.3 0-.5 5.7-1.8 12.7zm372.9-9.5c-.8.8-.9.4-.5-1.3.4-1.3.8-1.8 1.1-1 .2.7-.1 1.8-.6 2.3zm69.4.5c-3.7 10.1-5.4 13-8.1 13.5-1.9.4-2.5.2-2.1-.8.7-1.9 10.5-16.4 11.1-16.4.2 0-.2 1.7-.9 3.7zm-541 4.3c-1.3 3.8-2.8 6.2-4 6.6-1 .3-3.9 2.7-6.4 5.3-2.5 2.5-4.1 3.9-3.7 3.1 2-3.5 15.3-21 16-21 .1 0-.7 2.7-1.9 6zm134 3.8-4.4 8.7-4.8-.4-4.8-.3 8.6-8.4c4.8-4.6 9-8.4 9.3-8.4s-1.5 3.9-3.9 8.8zm452.3-.6c-.9 3.9-1.3 4.5-3 4.1-1.8-.5-1.8-.8-.6-2.7.8-1.1 1.9-3.2 2.6-4.4 1.8-3.4 2.1-2.4 1 3zm-816.9-3.3c0 .5-2.8 2-6.2 3.4l-6.3 2.4-3.8-1.9c-2.2-1.1-3.7-2.1-3.4-2.4 1.5-1.5 19.7-2.9 19.7-1.5zm162-.3c0 1-5.5 8.4-6.2 8.4-.4 0 .5-2 2-4.5 2.4-4 4.2-5.7 4.2-3.9zm46.3 7.3c-2.9 3.6-5.6 6-6.8 6-1.5 0-.3-1.5 4.5-5.9 3.6-3.3 6.6-6 6.8-6 .1 0-1.9 2.7-4.5 5.9zm380.1-2.8 3.8 3.2-6.9 2.7c-3.7 1.4-6.9 2.6-7.1 2.5-.1-.1.2-2.4.8-5.1 1.7-7.3 3.6-8 9.4-3.3zm-644.1 3c-.5 2.3-2.5 4.9-5.8 7.9s-4.4 3.7-3.4 2c.9-1.4 3.4-5.3 5.5-8.8 4.1-6.5 4.9-6.8 3.7-1.1zm52.2-1.6c-1.6 1.3-3.6 2.4-4.4 2.5-1.7 0-1.1-.7 2.6-3.1 4.1-2.6 5.2-2.3 1.8.6zm889.9 6.3c-3.7 5.3-3.9 5.5-4.2 2.9-.7-5.9.1-8 3.8-9.2 2.1-.7 3.6-.8 3.9-.3.2.5-1.4 3.5-3.5 6.6zm-812.8 1.4c-3.4 4.6-8.8 11.9-11.9 16.3-3 4.4-6.7 9.1-8.2 10.5l-2.7 2.5.6-2.5c.4-1.4 1.3-5.6 2.1-9.3 1.5-7.6 3.6-10.7 7.1-10.7 1.3 0 2.5-.4 2.8-.9.4-.5-.4-.7-1.6-.4-2 .4-1.8 0 1.2-2.7 4.1-3.7 14.8-11 16.1-11 .5 0-2 3.7-5.5 8.2zm52.2.8c-3.6 5.2-6.6 8.6-7.1 8.1-1.3-1.3.9-4.8 7.1-11.4 3-3.1 5.7-5.7 5.8-5.7.2 0-2.4 4-5.8 9zm500.6-1.3c-2 4.3-3.8 8-4.1 8.3-.2.2-.1-2 .2-5 .6-4.5 1.3-6 3.8-8.3 1.7-1.5 3.2-2.7 3.4-2.7.1 0-1.4 3.5-3.3 7.7zm-610.1-3.1c-1.1 1.7-1.9 2.2-2.1 1.4-.3-.7.3-1.9 1.4-2.7 2.6-1.9 2.7-1.7.7 1.3zm862.2 4-2.4 5.9-.1-5.3c0-4.6.3-5.4 2.3-6.1 1.2-.5 2.3-.8 2.4-.7.2.2-.8 2.9-2.2 6.2zm-917.7-2.5c-1.3 1.8-2.4 2.5-2.7 1.8-.2-.7.6-2.1 1.9-3.1 3.2-2.6 3.4-2.2.8 1.3zm28.4-1.5c.3.3-2.9 4-7.1 8.2-9.9 10-23 27.4-28.5 38-1 1.9-1.9 3.2-2.1 3-.2-.1.1-2.6.5-5.5 1.6-9.5 19.6-33 32-41.7 3.7-2.7 4.4-2.9 5.2-2zm597.2 10.6c-5.1 10-12.4 19.1-12.4 15.5 0-3.7 2.3-11.7 3.3-11.7.8 0 .8-.3-.1-.8-.7-.5-1-1.5-.7-2.3.5-1.3 13.2-10.8 14.6-10.9.3 0-1.8 4.6-4.7 10.2zm284.2-1.6c-2.9 6.6-3.9 8-6 8.2l-2.5.3 3.1-7.1c2.1-4.7 4-7.6 5.7-8.5 1.4-.7 2.7-1.2 2.8-1.1.2.2-1.2 3.8-3.1 8.2zm-406.8 4.1c-3.6 10.5-11.4 26.3-12.9 26.3-.3 0 .3-5.7 1.4-12.8l1.9-12.7 6.1-6.3c3.4-3.4 6.5-6.2 6.9-6.2s-1.1 5.3-3.4 11.7zm296.2-10.3c0 .2-.8 1-1.7 1.7-1.6 1.3-1.7 1.2-.4-.4s2.1-2.1 2.1-1.3zm-58.6 5.4c-.4 2-1.1 2.9-2 2.5-1.1-.4-1.1-1 .2-3.5 1.9-3.6 2.6-3.2 1.8 1zm-502 .4c-1.2 2-7.6 10.8-7.8 10.8-.1 0 0-1.7.2-3.8.5-4.2 3.6-8.2 6.4-8.2 1.3 0 1.7.4 1.2 1.2zm464.9 4.4c-.9 2.7-3.9 7.6-6.6 10.9-5.9 7.2-7.6 8.8-5.6 5.5 6.9-11.5 13.4-21.8 13.6-21.6.2.1-.5 2.5-1.4 5.2zm-308.8.5-2.6 5.1-4.2-.7c-2.3-.4-4.4-.9-4.5-1-.2-.2-.1-1.7.3-3.3.7-3.2 4.1-4.9 10.3-5.1l3.2-.1zm22.5 2.1c-1.2 3.5-2.6 7.3-3.1 8.5-.6 1.6-1.4 2-2.9 1.6-1.8-.5-2.1-1.1-1.6-3.6.6-3.1 8.5-14.2 9.4-13.2.3.2-.5 3.3-1.8 6.7zm535-6.2c0 .5-.5 1-1.1 1-.5 0-.7-.5-.4-1 .3-.6.8-1 1.1-1 .2 0 .4.4.4 1zm-742.9 6.3c-1 .9-1.1.8-.5-.6.3-1 .9-1.5 1.2-1.2s0 1.1-.7 1.8zm-229.3 7.7c-.6 4.3-2.1 8.2-4.1 11.5-1.7 2.7-6.4 11.3-10.4 19l-7.4 14 .6-6c.7-6.6 3-13.3 8.3-24 3.2-6.5 13.2-21.9 13.7-21.3.2.2-.2 3.2-.7 6.8zm369-5.5c.2.2-3.4 4.1-7.9 8.8-4.6 4.6-11.2 12.2-14.5 17-6 8.4-6.2 8.5-7.3 6.1-.6-1.4-1.1-3-1.1-3.7 0-1.8 12.8-24.7 15.4-27.6 1.9-2.1 2.6-2.3 8.6-1.7 3.5.4 6.6.9 6.8 1.1zm-194.4 1c.4 1.2-7.1 18.5-8.7 20.2-.2.1 0-2.4.5-5.8.7-5.5 5.3-15.9 6.9-15.9.4 0 .9.7 1.3 1.5zm796.6 3.1c0 1.1-.5 1.4-1.6 1-.9-.3-1.8-.6-2-.6-.3 0-.2-.5.1-1 1-1.6 3.5-1.2 3.5.6zm-158.4 3.6c-1.4 2.4-3.6 6.3-5.1 8.8l-2.6 4.5.6-4.5c.5-3.4 1.7-5.5 4.8-8.8 2.3-2.3 4.3-4.2 4.5-4.2.1 0-.8 1.9-2.2 4.2zm-157 3.2c-.6 3-2.3 6.8-3.8 8.7l-2.8 3.4 1.9-5c2.8-7.4 5.1-12.5 5.5-12.5.2 0-.2 2.4-.8 5.4zm124.4 4c-1.2 5.2-2.7 8.7-5.1 11.7-1.8 2.3-3.5 3.7-3.7 3.1s.4-4.5 1.3-8.7c1.5-6.5 2.2-7.9 5.3-10.5 2-1.7 3.7-3 3.8-3s-.6 3.3-1.6 7.4zm312-4.9c0 .5-2 4-3.6 6.4-.5.6-10.4-3.1-10.4-3.9 0-1.3 5.1-2.8 9.8-2.9 2.3-.1 4.2.1 4.2.4zm-690.2 3.5c-1.4 2.2-2.4 1.9-1.5-.5.4-.8 1.1-1.5 1.7-1.5s.6.7-.2 2zm568.2-.5c0 1.7-.2 1.8-2.4.9-2.3-.9-2-2.4.4-2.4 1.1 0 2 .7 2 1.5zm-50.2 1.3c-.1.4-1.1 2.8-2.1 5.3-1.5 3.8-2.3 4.6-3.8 4.2-1.1-.3-1.8-1.1-1.5-1.7s1-2.8 1.7-4.9c1-2.9 1.7-3.7 3.6-3.7 1.4 0 2.3.3 2.1.8zm-489.8 1.5c0 1.4-3.3 9.7-3.9 9.7-.4 0-.3-2.3.3-5 .6-2.9 1.5-5 2.3-5 .7 0 1.3.1 1.3.3zm535.9 3.8c-1.3 2.6-2 2.1-1.2-.9.3-1.2.9-1.9 1.4-1.6s.4 1.4-.2 2.5zm-833.8.8c-4.4 8.1-12.6 32.9-15.1 45.4-1 5-2.6 7.8-10.3 18.2-5.1 6.8-9.3 12.3-9.4 12.2-.4-.5 5.9-22.1 9.2-31.6 5.5-15.8 11.7-27.8 19.2-37.4 6.9-8.8 8.2-10.2 6.4-6.8zm950-.7c3.7 1 3.8 1.3 2.6 3.2-.8 1.2-2.7 5.9-4.2 10.6-1.9 5.6-4 9.9-6.4 12.7-2 2.2-3.7 4-3.9 3.8-.3-.3 4.5-27.7 5.3-30.3.5-1.5 1.7-1.5 6.6 0zm-167.1 8c0 2-7.8 13.3-8.7 12.5-.2-.3.8-3.6 2.3-7.6 2-5.4 3.1-7.1 4.5-7.1 1.3 0 1.9.7 1.9 2.2zm-492.1 7.7c-2.9 8-3.5 7.3-.8-.8 1.2-3.4 2.3-6 2.6-5.7.3.2-.5 3.2-1.8 6.5zm-87.6 8.2c-2 3.7-3.2 4.9-5 4.9-1.2 0-2.3-.2-2.3-.5s1.4-3.3 3.1-6.6c2.9-5.9 3.1-6 4.9-4.4 1.9 1.8 1.9 1.9-.7 6.6zm-77.2-1.1c-1.1 3-2.4 5.6-3 5.8s-1.1.1-1.1-.2c0-.9 5.4-11.6 5.7-11.3.1.2-.6 2.8-1.6 5.7zm366.2 4.2c-2.9 10-9.7 37.8-11.3 46.8-1.5 7.7-6.2 16-9.2 16-1.4 0-1.8-.5-1.4-1.5.3-.8 5.2-16 11-33.7 12-37 11.6-35.8 12.6-35.8.4 0-.3 3.7-1.7 8.2zm-133.3-4.2c0 1.1-.4 2-.9 2s-.7-.9-.4-2 .7-2 .9-2 .4.9.4 2zm-296.5 5.2c-.9 4.3-1.6 4.9-3.9 3.3-1.7-1.3-1.7-1.5.7-3.9 3.4-3.4 4-3.3 3.2.6zm452.8 4c-1.3 5.7-6.7 14.7-8.1 13.4-.5-.6 8.4-19.6 9.1-19.6.2 0-.2 2.8-1 6.2zm-157.7-1c-.3 2.4-.8 6.6-1.2 9.3-.4 3.6-1.4 6-3.6 8.4-1.6 1.8-3.1 3.1-3.4 2.8-.2-.2 1.1-5.7 3.1-12 1.9-6.4 3.5-11.9 3.5-12.2s.5-.5 1.1-.5c.7 0 .9 1.4.5 4.2zm-158.6.3c0 2.4-8.9 18-9.7 17.1-.4-.4 4.2-15.8 5.3-17.8.4-.5 4.4.1 4.4.7zm371.5 6.2c-1.3 3.8-4.5 10.8-7 15.6-4.5 8.6-4.7 8.8-6.2 6.7-2-2.9-1.5-4.4 6.4-17.6 7.8-13.1 10.4-14.9 6.8-4.7zm410.1 6.5 5.5 7.8-6.4 8.2c-6.7 8.7-16.4 23-21.1 31-2.6 4.5-3.1 4.8-6.8 4.8-3.4 0-3.9-.3-3.3-1.8.4-.9 5.2-15 10.6-31.2s10.2-30.2 10.5-31c.7-1.8 2.5.3 11 12.2zm-575.2-4c-.4 2.4-3 9.7-5.9 16.3-2.8 6.6-6.3 15-7.6 18.7-1.3 3.8-2.7 6.8-3.1 6.8-.5 0-.8-.3-.8-.6 0-.9 17.4-45.4 17.7-45.4.2 0 0 1.9-.3 4.2zm-349.5 15.4c-1 4.6-2.4 9.5-3.1 10.9-1.4 2.5-1.4 2.5-5.6-5l-4.2-7.6 4-6.9 4.1-6.8 3.3 3.6 3.3 3.6zm778.1-8.4c0 1.8-.2 2-.9.8-.6-.8-.7-1.8-.5-2.2.9-1.4 1.4-.9 1.4 1.4zm-3.2 8.4 2.2 4.5-6.7 12.5c-6.4 11.8-9 14.7-8.6 9.3.1-1.3.5-6.3.8-11.1.6-8.3.9-9.1 4.8-14.3 2.2-3 4.3-5.5 4.7-5.5.3 0 1.6 2 2.8 4.6zm-928.7 19.9c-2.6 12.7-3 14-5.1 14.3-1.4.2-2.1-.1-1.8-1 .9-3.6 9.2-27.8 9.4-27.5.2.1-1 6.5-2.5 14.2zm139.3-10.3c1.1 1.8 3.2 5.2 4.8 7.6l2.8 4.3-3.1 9c-3 8.6-3.3 9-5.8 8.5-1.4-.3-5.7-.8-9.4-1.1l-6.9-.7.7-3.6c.7-3.6 13.2-27.2 14.5-27.2.3 0 1.4 1.5 2.4 3.2zm-166.9 1.5c-.4 1-2.3 5.8-4.1 10.8-2.5 6.5-3.2 7.9-2.8 5 .5-3.6 6.2-17.5 7.2-17.5.2 0 .1.8-.3 1.7zm477.8 4c-1 6.8-1.3 7.3-3.8 7.3-3.1 0-3.1-.1.1-6.1 2.9-5.2 4.4-5.7 3.7-1.2zm202.7-.5c0 .7-.5 2-1 2.8-.8 1.2-1 .9-1-1.3 0-1.5.5-2.7 1-2.7.6 0 1 .6 1 1.2zm166.9 9.4c-.6 3.8-1.2 7-1.3 7.1 0 .1-1.3.4-2.9.8-2.2.6-2.7.4-2.7-1.1 0-1.7 7.2-14.5 7.8-13.9.2.1-.2 3.4-.9 7.1zm-34.4 18.4c-.3.5-1 1-1.6 1-.5 0-.9-.5-.9-1 0-.6.7-1 1.6-1 .8 0 1.2.4.9 1z"/><path d="m1992.2 1.95803c-.1 1.9-2.9 14.19997-6.3 27.49997-5.4 21.5-6.2 25.9-7.3 40.9-1.1 15.6-1.4 17-3.5 18.4-14.9 10.5-32.7 31.1-51.6 60.2-.1.1-2.9.9-6.1 1.8-3.2.8-8.9 2.9-12.7 4.6-3.7 1.7-7 2.9-7.2 2.6-.3-.3-.3-2.4.1-4.8l.7-4.2 6.4.4c6.8.4 6.5-.5-.5-1.7-2.4-.4-4.6-1.3-4.8-1.9-.3-.7.4-7.2 1.6-14.6 1.1-7.6 2-18.2 2-24.8v-11.5l4.8-4.5c4.2-3.9 13.6-11.4 18.8-15 4-2.7-3.1-.0999-12.8 4.8001l-9.8 4.8v-3c0-2.8.2-3 2.8-2.5l2.7.6-2.9-1.2001c-2.8-1.2-2.8-1.1999-2.4-7.8999.3-3.8.1-6.8-.3-6.8-.5 0-.9 1.1-.9 2.4 0 2.4-1.8 8.5999-2.9 9.7999-.3.4-4.7.0001-9.6-.8999-16.9-2.9-34.3.0999-48.4 8.3999-13.4 8-28.1 24.6-37.5 42.3-7.7 14.6-9.2 13.7-4.8-2.9 1.8-6.5 3.2-12.2 3.2-12.7s-1.3 1.4-2.8 4.2c-5.1 9.6-8.7 15.4-9.4 15.4s-1.4-32.2-.8-37.4c.1-1.1-.3-1.4999-.9-1.1999-.6.4-1.1 1.9-1.1 3.4s-2.4 12.0999-5.3 23.5999l-5.3 20.9-3.7 1.3c-2.1.8-3.7.9-3.7.3 0-.5.9-5 2-10 2.2-9.7 2.2-12.8.1-5.7-.7 2.4-3.4 7.7-5.9 11.9-4.3 7.2-4.9 7.8-11.6 11-7.3 3.5-16.8 9.9-22.3 15.2l-3.3 3.1v-2.5c0-1.3.7-6.5 1.6-11.4 1.6-9.5 3.3-21.2 3.4-23.2 0-1.6 3.7-4 10.7-6.9 7-2.8 4.9-3.2-3.3-.5-3.2 1.1-5.9 1.9-6 1.8 0-.1.3-9.9.7-21.7.4-11.7999.8-25.5999.7-30.4999v-9.0001l-1.3 6.0001c-.7 3.3-1.9 7.3-2.5 9-4.9 12.3-13.5 39.2999-14.4 45.4999l-1.1 7.4-6.2 3.9-6.2 3.8-6-1.2c-3.4-.6-6.1-1.5-6.1-2 0-.4 6.1-16.4 13.5-35.3999 11.7-30.3 14.3-37.9001 20-60.2001 3.6-14.1 6.4-25.7 6.2-26-.3-.2-.9.9-1.5 2.6-.6 1.6-6.8 12.2-13.7 23.5l-12.7 20.5-14.3 37.7-14.2 37.6-4.4 2c-2.4 1-5.9 3.4-7.7 5.1-3.1 3-3.8 3.2-10.5 3.3-5.3 0-8.3.6-11.3 2.2-4.2 2.1-12.2 10.2-18.4 18.5-1.9 2.5-3.7 4.7-4 4.7s-.1-7.1.4-15.7c.8-14.1 1.1-15.9 3-17.5l2.1-1.7-2.2.6c-1.7.4-2.1.1-1.8-1.4.2-1 .6-6.3.8-11.8l.5-10-1.8 6.5c-.9 3.6-3.1 9.6-4.7 13.5-2.7 6.5-3.4 7.2-8.9 10.3-3.2 1.8-7.6 4.5-9.6 5.9l-3.8 2.6-10.2-2.8c-5.7-1.6-10.7-3.2-11.1-3.5-1.8-1.6 7.3-13.9 18.8-25.4 12.1-12.2 24.7-21.9999 34.3-26.5999 2.8-1.4 5.1-2.8 5.2-3.2 0-.9-15.6 3.9999-21.4 6.7999-2.7 1.3-5.1 2.2-5.3 2-.7-.7 18.1-17.6999 24-21.5999 3.2-2.2 5.5-4 4.9-4-2.9 0-18.3 7.5999-26.3 13.0999-8.9 6-24 20.9-34.7 34.3-5.2 6.5-14.3 17-20.1 23.4-5.8 6.3-12.7 14.1-15.3 17.3-4.6 5.6-4.8 5.7-8.3 4.9-2-.5-3.8-1-4-1.2-.6-.6.6-4.8 1.4-4.8.4 0 1.6-.7 2.7-1.6 1.8-1.5 1.8-1.5-.3-.9-1.6.4-2.3.2-2.3-.8 0-1.1 4.8-25 6.7-33.5.9-3.7-.6-2.4-1.6 1.5-.6 2.1-5.9 11.9-11.9 21.8l-10.8 18h-15.7c-8.6 0-15.7-.1-15.7-.2s1.4-2.4 3.1-5.1l3.1-5 5.6 1.3c8.8 2 15.4 2.6 19.2 1.6 4.2-1 3.1-1.5-7.3-3.1-4.3-.6-9.4-1.7-11.3-2.3l-3.4-1.2 4.3-5.2c4.7-5.7 15.9-15.9 22.5-20.5 2.4-1.6 8-4.8 12.5-6.9 7.1-3.4 7.6-4.1 1.7-2.1-4.1 1.4 1.6-2.3 10.5-6.8 5.5-2.7 9.7-5 9.3-5-2.5 0-19.2 4.5-24.7 6.7-13 5.2-29.3 15.6-43.7 28.1l-8.1 7-5.4-.9c-10.8-1.8-20.6 1.4-26.7 8.8-3 3.5-6.3 5.7-16.7 10.7-7.1 3.5-15.6 7.3-18.7 8.5-6.8 2.4-21.1 9.5-25.1 12.3-1.6 1.1-3 1.9-3.2 1.7-.5-.6 13.4-17.1 24.2-28.8l9.6-10.3 5 .5c2.8.2 4.3.1 3.5-.4-.7-.5-2.2-.9-3.4-.9-1.1 0-2.3-.3-2.6-.6-1-.9 15.8-16.1 26.5-24.1 5.5-4 15-9.9 21.1-12.9 8.7-4.3 10.2-5.4 7.1-4.8-21.5 3.7-43.5 15-64.8 33.4l-5.9 5h-7.3c-10.4 0-21.8 2.4-30.4 6.5-4 1.9-6.9 2.9-6.3 2.2 2.2-2.6 20.8-11.6 29.2-14.1 4.7-1.4 7.3-2.5 5.8-2.5-5.6-.2-28.7 5.1-36.8 8.4-4.6 1.9-8.6 3.3-8.7 3.1-.2-.2.8-5.6 2.1-12.2 1.4-6.5 2.3-12 2.1-12.3-.3-.2-.5.2-.6 1 0 .8-.4.6-.9-.6-.7-1.8-.8-1.7-1.5 1-.4 1.6-4.3 9.4-8.8 17.1-6.5 11.5-8.3 14-9.8 13.7-2.3-.6-2.2 1.2-.4-21.2 1.5-17.3 1.5-24 .1-15.2-.3 2.2-3.7 11.1-7.5 19.8-6.7 15.1-7.1 15.8-11.3 17.9-2.4 1.2-7.2 5.2-10.8 8.8-3.5 3.6-6.7 6.6-7 6.6-.4 0-.1-3.5.6-7.8.7-4.2 1.3-8.3 1.3-9.1.1-1 1.3-1.2 5.4-.8l5.2.6-4.7-1.5c-3.5-1.1-4.8-2-4.8-3.4 0-1 3.1-22.9 6.9-48.7 6.9-46.5999 6.9-46.9 7.4-73.3.3-14.6.3-25.19997 0-23.49997-.2 1.6-4.2 14.19997-8.8 27.99997l-8.3 25-6.3 45.8-6.3 45.8-4.6-.6c-8.6-1.2-22.6 1.6-35.4 7-1.6.7-1.8.5-1.3-.8 1-2.7 2.6-26.6 3-45.7l.4-17.4999-1.7 6.5c-1 3.5999-4.5 14.5999-7.9 24.4999-5 14.3-6.7 20.8-8.2 31.4l-1.9 13.3-6.9 7.3c-3.8 4-9.2 10.6-12.1 14.7l-5.2 7.3.7-8c.3-4.4 1.7-22 3.1-39 2.2-27.9 2.4-34 1.7-60.9999-.5-21.3-1-28.7001-1.6-25.5001-.4 2.5-3.5 15.3001-6.7 28.5001l-5.9 23.9999-2.6 35.5c-1.4 19.5-3.4 45.6-4.5 58l-1.8 22.5-6.6 19c-7.4 21.5-12.9 42.2-17.6 67-1.8 9.4-3.9 17.5-4.6 18.1-1 .8-1.4 3.4-1.4 8.1 0 3.9-1.1 16.4-2.5 27.9s-2.5 23.5-2.5 26.6c0 5.2.2 5.8 2.1 5.8 1.1 0 2.8.4 3.7.9.9.4 3.8 1.1 6.4 1.4 4.3.6 4.8.5 4.8-1.3 0-1.6.7-2 3-2 1.7 0 3 .4 3 1 0 1.1 6.4 3 10.3 3 2.1 0 2.7-.5 2.7-2.1 0-2.1.3-2.1 9.3-1.6 10.5.7 12.1 1 16 2.6 3.6 1.4 3.4 1.5 4-.9.5-1.8 1.4-2 8.1-2 5.2 0 9.2.6 12.8 2 4.4 1.7 5.5 1.8 6.2.7s1.8-1.2 6.4-.1c5.1 1.2 5.4 1.2 5.9-.7s1.2-2 12.2-1.6c6.4.2 13.4.8 15.6 1.4s6.1 1.4 8.8 1.8c4.3.6 4.7.4 4.7-1.4 0-2 .6-2.1 9.3-2.1 5.1 0 9.7.4 10.3.9 1.6 1.5 9.4 3 10 1.9.3-.5 1.3-.6 2.3-.3.9.4 6.3.9 11.9 1.1 9.7.4 10.4.3 10.9-1.6s1.4-2 15.2-2c11.9 0 15.7.4 20.5 2 5.8 2 7.5 1.7 7.6-1.3 0-.4 9.8-.7 21.8-.7 19 0 22.6.3 27.5 1.9 4 1.4 5.7 1.6 6 .8.3-.9 1.4-.9 4.8 0 4.1 1.1 4.5 1 6-.9 1.5-2 2.3-2.1 10.4-1.4 4.9.3 9.3 1 9.9 1.5.6.4 3 1.1 5.3 1.5 3.4.5 4.4.3 5.2-1.1.9-1.7 1.2-1.7 5.7 0 4.6 1.7 4.7 1.7 6.1-.3 1.3-1.9 2.5-2 16.4-2 12.4 0 16 .3 21 2 5.7 1.9 6.2 2 7.3.4 1-1.2 1.7-1.4 3.2-.7 1 .6 3.1 1.3 4.6 1.7 2.1.5 2.8.2 3.3-1.4.6-1.8 1.5-2 10.9-2 7.7 0 11.8.5 16.1 2 3.2 1.1 5.9 2 6 2 .2 0 .5-.9.8-2 .5-1.9 1.4-2 29.5-2 24.5 0 29.1.2 30.2 1.5 1.4 1.7 6 2 6 .4 0-.6.7-.3 1.6.5 2.3 2.4 5.4 2 5.4-.5 0-2 .4-2.1 12.3-1.8 7.4.3 13 .9 13.8 1.6.8.6 4 1.4 7.2 1.8 5.4.7 5.7.6 5.7-1.4s.4-2.1 14.9-2.1c10 0 17.2.5 21.7 1.6 3.7.8 10.2 1.7 14.6 1.9 7.4.4 7.8.3 7.8-1.6s.5-2 4.3-1.6c2.3.3 8 1.3 12.6 2.2 6 1.1 8.6 1.3 9.1.5s1.5-.8 3.4 0c3.5 1.3 3.3 1.4 3.9-1.1.6-2.1.9-2.2 13.9-1.7 7.3.3 14.4 1 15.8 1.5 1.4.6 4.4 1.3 6.8 1.7 3.8.6 4.2.4 4.2-1.4 0-1.6.7-2 3.4-2 1.9 0 3.7.4 4 .9s2.2 1.2 4.2 1.5c1.9.4 4.1.9 4.9 1.2.7.3 1.6-.3 2-1.5.5-1.8.9-1.9 3.8-.6 1.8.7 5.1 1.6 7.3 2 3.7.6 4.2.4 4.7-1.6.6-2.1 1-2.1 9.1-1.7 4.6.2 9 .9 9.8 1.5.7.6 3.2 1.3 5.4 1.7 3.7.5 4.2.3 4.7-1.5.5-1.9 1.1-2.1 4.4-1.5 2.1.3 4.7.7 5.8.9 1.1.1 2.2.5 2.5.8s1.7.9 3.3 1.3c2.3.5 2.7.3 2.7-1.5 0-2.2.2-2.2 10.6-1.6 5.8.3 11.1 1 11.7 1.5.7.5 3.1 1.2 5.4 1.6 3.6.5 4.4.3 5.3-1.4 1.1-2 7-3 7-1.1 0 .5 2.8 1.4 6.3 2 8.1 1.4 7.7 1.5 7.7-1 0-2.1.3-2.2 8.1-1.6 4.5.3 8.5.9 8.8 1.5.3.5 2.7 1.2 5.4 1.5 3.8.5 4.7.4 4.7-.9 0-1 .6-1.4 1.8-1 6 1.8 10.7 2.4 11.3 1.4.5-.8 1.6-.8 3.8 0 2.7 1 3.3.8 4.4-.8 1.5-2.5 3.9-2.5 11.2 0 3.2 1.1 5.9 2 6 2 .2 0 .5-.9.8-2 .7-2.6 3.2-2.5 9.8 0l5.2 2.1 1.4-2.1c1.3-1.9 2.4-2 20.6-2 15.4 0 20.5.4 25.7 1.8 7.8 2.2 12.9 2.1 14.2-.1.8-1.5 3.4-1.7 22.8-1.7 17.6 0 22.1.3 22.7 1.4.5.8 3.4 1.7 7.1 2.1 5.9.7 6.2.6 6.2-1.4 0-1.2.5-2.1 1-2.1.6 0 1 .4 1 1 0 1 6.3 3 9.7 3 1.3 0 2.4-.8 2.8-2 .8-2.4 6.1-2.8 7.9-.6.6.8 3.6 1.7 6.7 2.1 5.1.6 5.7.4 6.2-1.4.5-1.9 1.3-2.1 9.2-2.1 6.4 0 9 .4 10.2 1.5.8.8 2.7 1.5 4.1 1.4 1.5 0 4.6.3 7 .7 3.8.6 4.2.5 4.2-1.5 0-1.7.5-2 2.3-1.6 15.2 3.5 15 3.5 16.2 1.8 1.1-1.5 1.6-1.5 5.8 0 4.5 1.5 4.7 1.5 5.7-.4 1.4-2.6 9.2-2.6 16.2.1 2.9 1.1 5.4 2 5.4 2 .1 0 .4-.9.7-2 .5-1.9 1.4-2 12.1-2h11.6v-29.7-29.7l4.2-7c4.9-8.4 19.6-30.4 20.8-31.1.4-.3 2.8 1.9 5.4 4.9 3.7 4.4 11.9 10.6 13.9 10.6.2 0-2.8-5-6.9-11.2l-7.3-11.2 4-4.8c13.7-16.3 22.4-23.5 25.9-21.3 1.6 1 9.8 13.6 18 27.5 9.8 16.8 15.4 24.5 20.3 28.1 2.2 1.6 4.2 2.8 4.4 2.6.6-.6-17.8-33.9-22.7-41.2-6.2-9.1-10.5-13.1-21.4-19.9-13.4-8.3-15.3-7.9-29 6.5l-8.7 9.1-1.7-2.3c-3.2-4.7-11.3-12.6-14.7-14.5-1.9-1-3.3-2.3-3.1-2.9.3-.5 1.9-5.4 3.7-10.8 2.3-6.6 3.8-9.7 4.9-9.7s1.2-.2.2-.8c-1-.7-1-1.9 0-6.1l1.2-5.2 5.3.7c2.9.3 5.3.4 5.3.1s1.5-4.1 3.4-8.6l3.5-8-5.7 2.8c-3.1 1.6-6.7 3.2-7.9 3.6-2.1.6-2.2.4-1.6-2.7.4-1.8 2.1-10.3 3.8-18.8 1.8-8.5 3.1-15.6 3-15.8-.1-.1-1 1.9-2 4.4-1.7 4.5-14.5 26.7-15 26.2-.2-.2.3-3.2 1.1-6.8 1.8-8.6 1.7-10.4-.4-5.4-3.2 7.8-10.6 19.5-11.9 19-3-1.2-14.4-2.8-15.8-2.2-1 .3-1.5-.1-1.5-1.3 0-2.9 15.9-18.2 25.4-24.6 4.8-3.1 11.6-7 15.4-8.6 9.6-4.1 5.2-3.6-8.8 1.1-12.4 4.1-20.7 7.9-27.2 12.4l-3.8 2.5v-3.7c0-2 .3-6.7.6-10.4.6-5.4 1.1-6.8 2.8-7.7 2-1 2-1-.4-.7-2.3.3-4.9 1.1-7.5 2.4-3.6 1.8 2.3-2.5 9.5-6.9 4.7-2.8 7.6-4.9 6.5-4.5-9.5 2.7-18.7 6-22.2 8-2.4 1.4-4.3 2.1-4.3 1.7 0-1.5 17.6-17.7 22.9-21.1 2.8-1.9 4.9-3.5 4.8-3.7-.8-.7-15.3 6-20.8 9.6-6.4 4.3-6.5 4.2-4.8-4.1.8-4 1.7-5.9 3.3-6.6 1.7-.9 1.8-1.1.4-1.1-2.3-.1-2.3-.8 1.1-18.1 1.6-8 2.8-14.6 2.6-14.8s-.9 1.4-1.5 3.5c-1.5 4.6-17.5 32.6-19.7 34.5-1.4 1.1-1.5.9-1-1.7.4-1.7 1.6-8.4 2.8-15 2.1-11.5 2.4-12.2 7-18.1 13.2-16.7 28.9-27.4999 46.5-31.8999 7.3-1.8 24.1-2.4 30.4-1 1.9.4 3.2.3999 2.9.0999-1-1-19.8-5.3-26.6-6-3.5-.4-9.9-.1999-14.4.4001-15.3 2.1-27 7.8-39.1 18.8999l-6.9 6.4-6.7-2.6c-7.2-2.9-16.6-5.2-24.7-6.3l-4.9-.6 2.4-1.9c5.1-3.9999 20.2-10.7999 27.5-12.3999 5.4-1.2 10.8-1.6001 19.4-1.4001 6.6.2 11.8.3 11.7.1-.2-.1-4.5-1.1999-9.7-2.2999-13.8-3.1-30.9-3.2-40.9-.1-9.8 3.1-17.8 7.6-26.7 15.1l-7.3 6.0999v-8.9-8.9l6.3-5c3.4-2.7 7.3-5.5 8.5-6.1 1.3-.7 2.2-1.3999 2-1.6999-.5-.4-9.7 3-13.8 5.1-2.6 1.3-2.8 1.2999-3.4-.8001-.3-1.2-.6-6.2999-.7-11.1999-.2-8.5-.2-8.7-.9-3.5-1.2 8.5-4.7 21.2999-6.2 22.0999-2.1 1.2-9.2 7.0001-16.1 13.2001l-6.5 5.7999-5.8-1.3-5.9-1.3 6-3.8c3.3-2.1 7.7-4.5 9.7-5.5 2.1-.9 3.8-1.9999 3.8-2.3999 0-1.1-16.1 4.2-24.6 8.1-4.4 2.0999-10.4 4.0999-13.3 4.4999-6.3.8-16.6 4.6-23.9 8.7-2.9 1.6-5.7 2.7-6.2 2.4-.6-.4-1 0-1 .8s-1.2 2.3-2.7 3.3c-1.6 1-5.2 4-8.2 6.8l-5.4 5.1.7-3.5c.4-1.9.9-4.4 1.2-5.5.4-2.2-.3-.7-4.1 8.1-1.3 2.9-5 8.5-8.3 12.5-8 9.8-17.3 24-24.7 37.6-5.7 10.5-6.3 11.2-11.4 13.7-2.9 1.5-5.5 2.5-5.7 2.4-.2-.2 0-3.7.3-7.7.6-6.7 1-7.8 5.2-13.4 7.4-9.9 22.9-25.4 31.8-31.9 4.6-3.3 8.3-6.2 8.3-6.3 0-.8-12.7 4.7-18.8 8-15.7 8.7-33.1 25.1-49.5 46.9-2 2.7-3.7 4.6-3.7 4.2 0-2.4 10.3-28.4 15.5-39.1 8.9-18.2 17.1-30.3 28.4-41.5 18.1-17.9999 34.6-24.6999 59.1-24.0999 3.6.1 7.9.3999 9.5.6999 7 1.4 1-.8999-8.6-3.1999-10.1-2.5-11.3-2.6001-44.9-2.7001-37.8-.1-40.4.2001-52.7 5.8001-9.2 4.2-14.8 8.2-23.5 16.3999l-7 6.6.7-11c1.5-21.2 1.2-20.4 7.7-24.9 3.2-2.2 5.6-4.0999 5.4-4.2999s-2.4.6-5 1.7-4.9 2-5.1 2-.1-10.2001.1-22.8001c.4-18.3-.9-65.5-1.4-53.39997zm-93.7 77.20007c.4.6-.1 3.4-1.1 6.3-1.4 4.3-3.6 7-13.4 16.6999-6.5 6.4-15.7 17-20.9 24-5.1 6.9-10.2 13.1-11.4 13.8-1.5.8-4.1 1.1-7.7.7-6.1-.7-27.3-4.5-27.8-5-.7-.7 7.9-14.5 13.9-22.4 16.9-22.5 38-33.9 64.6-35 1.7 0 3.5.4001 3.8.9001zm136.9 18.8c-7.5 4.9999-12.4 9.4999-18.6 16.9999-4.6 5.5-7.8 8.2-12.1 10.4-3.3 1.6-6 2.8-6.2 2.6-.8-.8 11-13.8 17-18.8 6.1-5.1 20.7-13.9999 23-13.9999.6 0-.8 1.2-3.1 2.8zm-60.4 21.1999c-1.4 16.9-2 21.2-3.8 24.5-2.6 4.9-2.6 3.5-.2-8 1-4.9 1.7-9.1 1.6-9.3-.2-.1-1.3 2.4-2.5 5.5-2.8 7.6-10.4 19.8-12.2 19.6-2.7-.3-16.4-2.7-16.8-2.9-.6-.5 10.1-17.4 18-28.5 7.4-10.4 17-22.3 17.4-21.7.1.2-.6 9.5-1.5 20.8zm214.3-14.2c-1.7 6.6-1.8 6.7-5.8 5.2l-2.6-1 4.7-5.5c2.6-3.1 4.8-5.3999 5-5.1999.2.1-.4 3.0999-1.3 6.4999zm-143.4 2.4c-10.4 10-21.5 25.8-29.6 42.3-2.9 5.8-4.4 7.7-6.7 8.5-1.6.5-3.1 1-3.3 1s1.4-3.5 3.6-7.8c8.7-17.2 22.2-34.7 34.4-44.4 6.4-5 7.1-4.8 1.6.4zm112.2 12.5c-9 11.2-19.1 26.2-27.7 41-5.4 9.2-6.3 10.2-9.9 11.3-2.2.7-6.2 2.4-9 3.9-2.7 1.4-5.3 2.7-5.7 2.9-.3.2-.2-1.4.3-3.5s.9-5.8.9-8.3c.1-9.4.9-11.4 9.6-22.3 4.6-5.8 13.1-15.5 18.9-21.5 11.5-12 13.1-12.8 25.2-13.1l5.3-.1zm95.9-8.6c2.7.6 5 1.4 5 1.7-.1.4-1.3 2.1-2.8 3.8-2 2.3-4.6 3.8-9.9 5.3-17.1 5.1-32.2 12.6-42.4 21.2l-4.9 4.1.6-6.4c.3-3.4.7-7.7 1-9.5.6-4.1 8.7-15.1 12.2-16.5 10.7-4.3 30.1-6.1 41.2-3.7zm-67.8 1.8c.4.4-1.9 2.6-5.1 4.9-3.2 2.4-8 6.4-10.6 8.8-6 5.8-5.6 4.7 2.4-6.6 6.2-8.8 6.5-9.1 9.5-8.4 1.7.3 3.4.9 3.8 1.3zm-300.2 8.1c-.5 3-1.4 9.4-2 14.1l-1.2 8.6-7.6.6c-4.3.2-7.8.3-8 .2-.2-.2 1.5-3.3 3.8-7 5-8.1 15.1-22.7 15.5-22.3.2.2-.1 2.8-.5 5.8zm361.6 7.2c-5.3 7.7-14.3 24.6-18.6 34.9-3 7.5-3.2 7.7-7.6 8.8-2.4.6-6.9 2.2-9.9 3.6l-5.5 2.4-4.5-2c-2.6-1.2-4.5-2.7-4.5-3.6 0-2.6 4.5-7.7 10.4-11.8s6.8-5.7 1.7-3c-1.7.8-3.1 1.3-3.1.9 0-1.5 11.2-14.3 16.2-18.5 9.7-8.1 25.1-17.8 28.5-17.9.7 0-.7 2.8-3.1 6.2zm-249.2 13.4c-2.3 4.3-5.6 10.6-7.1 14-1.5 3.5-3.1 6.4-3.6 6.4-1.4 0-1.9-3-1.2-7.6.5-3.8 1.9-5.9 7.6-12.5 3.9-4.3 7.4-7.9 7.9-7.9.4 0-1.2 3.4-3.6 7.6zm176.8 4.1c-1.6 3.2-3.9 8.3-5.1 11.4-2.2 5.5-2.4 5.7-7.2 6.6-2.7.6-4.9.8-4.9.6 0-1.6 18.3-24.3 19.6-24.3.3 0-.9 2.6-2.4 5.7zm-477.7-3.7c2.1 0 1.6.7-3.4 5.5-3.2 3-6.3 5.5-6.9 5.5-1.5 0-1.5-.1.4-5.2 1.9-4.8 4.1-7.1 6.2-6.3.8.3 2.4.5 3.7.5zm144.6 1.3 8.6.2-1.5 2.3c-.8 1.2-3.6 3.4-6.3 4.8-5.5 3-21.5 21.1-31.4 35.4-3.3 4.7-7.4 10.3-9.2 12.6s-5.4 7.2-7.9 11c-4.5 6.9-4.5 6.9-3.8 2.9 1.1-6 6.1-25.5 6.7-26.2.3-.3 2.7.2 5.3 1.1 6.4 2.2 6.6 1.4.4-1.3-2.7-1.2-5-2.7-5-3.4 0-2 6.5-21.4 10-29.7 1.7-4.1 3.4-8.3 3.7-9.2.7-2.3 2.3-2.5 12.8-1.5 4.9.5 12.9.9 17.6 1zm-129.7 23.3c-1.8 12.4-3.8 23.2-4.5 24s-4.4 3.6-8.2 6.2c-7.8 5.2-19.2 16.1-26.3 25.3-2.6 3.2-4.9 5.8-5.1 5.6-1.6-1.7 19.6-52.7 21.9-52.7.5 0 .7-.3.4-.8-.2-.4 1.7-3.9 4.2-7.7 3.3-4.8 5.6-7.3 7.7-8 1.7-.5 3.2-1.2 3.5-1.6.3-.3 1.4-1.1 2.5-1.8 1.7-1 1.4-1.1-2-.6l-3.9.7 4.9-5.4c5.5-5.9 6.6-6.8 7.6-6.3.3.3-.9 10.6-2.7 23.1zm64.1-15.4c-.5 4.1-2.2 8.1-7.1 16.4-3.5 6-6.4 10.2-6.4 9.3 0-2.2 4.9-26.1 5.5-26.7 1.1-1.1 8-5 8.3-4.7.2.2.1 2.8-.3 5.7zm-168.1 1c-1.2 2.7-2.1 3.4-3.6 3-1.8-.4-1.6-.8 1.3-3.8 1.8-1.9 3.4-3.2 3.6-3s-.4 1.9-1.3 3.8zm-229 7c-4.9 5.1-9.1 9.3-9.4 9.3s-3.5-.7-7.2-1.4c-8-1.7-7.8-2.2 2.2-8.1 5.8-3.4 19.6-8.9 22.4-9 .5 0-3.1 4.2-8 9.2zm502.6-7.7c0 1.6-1.7 1.9-4.6.8-1.6-.6-1.6-.7.2-1.4 3-1.2 4.4-1 4.4.6zm-425.9 9.9c-4.3 4.4-8.3 7.6-9.9 7.9-1.5.3-2.8.4-2.9.3s1.7-2.7 4.1-5.8c3-3.7 6.2-6.4 9.7-8.2 2.9-1.4 5.5-2.4 5.7-2.1.3.2-2.8 3.8-6.7 7.9zm126.6-7.3c3.5.6 6.3 1.3 6.3 1.6s-3.2 3.5-7.1 7.1c-7.6 7-18.1 19.2-27.2 31.3-4.9 6.4-15.7 16.3-14.6 13.2.2-.6 3.5-7.6 7.3-15.7 6.6-13.9 7-14.5 9.5-14s2.6.5.4-.8-2.2-1.3 3.8-12.6l6-11.2h4.6c2.6 0 7.5.5 11 1.1zm-310.2 2.6c-.9 4.9-4.5 30.5-4.5 31.6 0 .9-4.6 1.2-15.8 1.2-12.4.1-16.6.5-20.1 1.8-2.4 1-4.6 1.6-4.8 1.3-.2-.2.2-4.5.9-9.5l1.2-9.2 6-4.6c7.6-5.8 20.5-11.9 28.8-13.7 8.9-2 8.8-2 8.3 1.1zm682-1.8c-5.4 1.3-7.9 3.2-19.8 15l-11.8 11.6 6.5-12.5c4-7.7 7.3-13 8.8-13.7 1.3-.8 5.8-1.2 10.8-1.2 5.8.1 7.5.3 5.5.8zm-300.7.9c-.1.4-2.2 3.9-4.6 7.9-3.8 6.3-4.9 7.3-9 8.7-2.5.9-4.7 1.6-4.9 1.6-1 0 8.9-12 12.6-15.3s6.8-4.9 5.9-2.9zm223.3 1.3 3.7.9-2.7 6.5c-2.2 5.5-2.9 6.5-4.6 6-1.1-.3-6.2-.8-11.2-1.2l-9.3-.6 2.7-4.9c4.5-8.3 9.4-9.8 21.4-6.7zm-272.1 2.9c0 1.2-1.2 2.6-3.2 3.6-1.8.9-6.1 3.6-9.6 6-7.2 5-7 4.2 1.1-5 4.7-5.3 6.4-6.6 8.8-6.6 2.2 0 2.9.5 2.9 2zm405.4 2.7c-.9 2.1-1.9 4.2-2.4 4.6-.9 1-5 0-5-1.2 0-.6 7.9-7.1 8.6-7.1.2 0-.4 1.7-1.2 3.7zm-345.6 3.1c-.7 1.8-1.6 3.2-2.1 3.2s-.7-.3-.5-.8c3.4-6.9 4.7-8.2 2.6-2.4zm-240 5.4c-3.4 4.6-6.9 8.9-7.8 9.5-2.3 2-12 6.6-12.5 6.1-.9-.9 12.8-13.9 16.6-15.9 2.2-1.1 3.9-2.2 3.9-2.5s-.6-.2-1.2.1c-.7.4.3-.7 2.2-2.4 5.8-5.2 5.4-3.5-1.2 5.1zm489.2-6.7c0 .3-2 4.1-4.4 8.3s-5.5 9.8-6.7 12.4c-1.9 4-3 5-6.6 6.2l-4.3 1.5.6-5.7c.8-7.4 1.9-9 11.7-16.7 7.6-6 9.7-7.3 9.7-6zm-166.6 4c-.9 1.4-2.7 5.4-3.9 8.8-2.2 6.2-2.3 6.2-6.5 6.5-3.8.3-4 .2-3.1-1.5 1-2 14-16.3 14.7-16.3.3 0-.3 1.1-1.2 2.5zm-388.5 13.6-9.8 11.5-9.8 3.7c-9.2 3.5-12.3 4.3-12.3 3.3 0-.3.9-2.1 2.1-4 1.8-3.1 2.5-3.5 4.7-3 1.5.4 3.5 1.1 4.5 1.6s2.1.7 2.5.4c.3-.4-1.3-1.4-3.6-2.3s-4.2-1.9-4.2-2.3c0-1.2 7.1-10.3 12.2-15.6l4.9-5.1 9.3.1 9.3.1zm241.7-7.9c-.5 3-1.5 3.8-7.3 6.7l-6.7 3.3 3.8-4.4c4.3-4.9 9.9-9.8 10.5-9.3.2.2.1 1.9-.3 3.7zm403.7 3.7c-1.4 3.6-4.2 11.9-6.2 18.5-3.4 10.9-3.9 11.9-6.9 13.2-2.7 1.1-3.2 1.1-3.2-.1 0-1.3 9.6-31 11.8-36.6.9-2.1 1.5-2.5 4-2.1l3 .4zm-517.7-5.4c-1.1.8-2.7 1.5-3.5 1.4-.9 0-.2-.7 1.4-1.4 3.9-1.8 4.5-1.8 2.1 0zm37.3 6.4c-1.9 2.7-3.5 4.8-3.7 4.6-.1-.1.3-2.3 1-4.8.9-3.4 1.8-4.7 3.2-4.9 1.2-.2 2.3-.3 2.5-.1.2.1-1.1 2.5-3 5.2zm350.7-2.4c-.4 1.9-3.1 6.7-6.1 10.7s-5.5 7.6-5.5 7.9c0 .4-3.4-.7-7.5-2.4-7.4-3.1-7.6-3.2-7.1-6.2l.5-3-1.1 2.7c-.7 1.6-1.5 2.8-1.9 2.8-1.9 0-1.8-2.2.3-6.4 1.9-4 2.9-4.8 7.2-6.2 2.8-1 8.6-2 13.1-2.4 4.4-.4 8.2-.8 8.4-.9.2 0 0 1.5-.3 3.4zm-393.7-1.8c0 .9-13 9.5-13.5 9-1-.9 3.3-5 7.4-7.2 5-2.6 6.2-2.9 6.1-1.8zm180.1.9c0 1.5-2.2 4.3-4.5 5.8l-2.6 1.7 1.7-3.3c1.6-3.2 3.1-4.8 4.7-4.8.4 0 .7.3.7.6zm500.1 7.6-2.8 8.3-5.4.6c-3 .4-6.9 1-8.6 1.3l-3.3.6 3.2-6.4c3.2-6.5 6-9 12.8-11.3 7.1-2.3 7.2-2.2 4.1 6.9zm40.6-6.1 2.8 1.1-3.5 1.8c-4.6 2.5-4.7 2.5-4.2-1 .5-3.3.8-3.5 4.9-1.9zm20.5 3.3c-1.2 3.1-5.4 8.3-13.8 17-6.7 6.8-12.5 12.2-12.8 11.9-.3-.4-.6-3.6-.6-7.3v-6.7l5.8-4.5c6.6-5.3 21.1-14.8 22.3-14.8.5 0 .1 2-.9 4.4zm-922.7-.2c-.8 3.6-2 4.8-4.8 4.8-1.5 0-1.2-.7 1.5-4 1.8-2.2 3.4-4 3.6-4s0 1.5-.3 3.2zm136.7 3.5c-2.7 3.8-6.1 6.8-6.8 6-.8-.8 3.2-5.9 5.9-7.4 3-1.7 3.1-1.6.9 1.4zm843.7 15.2c-5.1 12.3-9.7 19.9-8.5 14.1 1-5.1 1.6-19.5.6-17.5-.5 1.1-.9 2.8-.9 3.8-.1 2.9-14.4 34-17.5 38-1.6 2.1-3.1 3.6-3.3 3.3-.2-.2 2.6-9.8 6.2-21.2 7.5-23.6 7.8-24.1 21.1-32 5.3-3.2 7-3.8 7.2-2.6.2.8-2 7.1-4.9 14.1zm-683.6-2.2c-1.2 7.1-2.3 12.9-2.3 13s-1.4 1-3.1 1.8l-3.1 1.7.6-8.9c.4-6.9.3-8-.4-4.8-.6 2.2-2.2 6.8-3.6 10.1l-2.6 6.2-6-1.9c-3.3-1-6.2-2-6.5-2.3-1.1-1.1 26.4-27.5 28.8-27.6.3 0-.5 5.7-1.8 12.7zm372.9-9.5c-.8.8-.9.4-.5-1.3.4-1.3.8-1.8 1.1-1 .2.7-.1 1.8-.6 2.3zm69.4.5c-3.7 10.1-5.4 13-8.1 13.5-1.9.4-2.5.2-2.1-.8.7-1.9 10.5-16.4 11.1-16.4.2 0-.2 1.7-.9 3.7zm-541 4.3c-1.3 3.8-2.8 6.2-4 6.6-1 .3-3.9 2.7-6.4 5.3-2.5 2.5-4.1 3.9-3.7 3.1 2-3.5 15.3-21 16-21 .1 0-.7 2.7-1.9 6zm134 3.8-4.4 8.7-4.8-.4-4.8-.3 8.6-8.4c4.8-4.6 9-8.4 9.3-8.4s-1.5 3.9-3.9 8.8zm452.3-.6c-.9 3.9-1.3 4.5-3 4.1-1.8-.5-1.8-.8-.6-2.7.8-1.1 1.9-3.2 2.6-4.4 1.8-3.4 2.1-2.4 1 3zm-816.9-3.3c0 .5-2.8 2-6.2 3.4l-6.3 2.4-3.8-1.9c-2.2-1.1-3.7-2.1-3.4-2.4 1.5-1.5 19.7-2.9 19.7-1.5zm162-.3c0 1-5.5 8.4-6.2 8.4-.4 0 .5-2 2-4.5 2.4-4 4.2-5.7 4.2-3.9zm46.3 7.3c-2.9 3.6-5.6 6-6.8 6-1.5 0-.3-1.5 4.5-5.9 3.6-3.3 6.6-6 6.8-6 .1 0-1.9 2.7-4.5 5.9zm380.1-2.8 3.8 3.2-6.9 2.7c-3.7 1.4-6.9 2.6-7.1 2.5-.1-.1.2-2.4.8-5.1 1.7-7.3 3.6-8 9.4-3.3zm-644.1 3c-.5 2.3-2.5 4.9-5.8 7.9s-4.4 3.7-3.4 2c.9-1.4 3.4-5.3 5.5-8.8 4.1-6.5 4.9-6.8 3.7-1.1zm52.2-1.6c-1.6 1.3-3.6 2.4-4.4 2.5-1.7 0-1.1-.7 2.6-3.1 4.1-2.6 5.2-2.3 1.8.6zm889.9 6.3c-3.7 5.3-3.9 5.5-4.2 2.9-.7-5.9.1-8 3.8-9.2 2.1-.7 3.6-.8 3.9-.3.2.5-1.4 3.5-3.5 6.6zm-812.8 1.4c-3.4 4.6-8.8 11.9-11.9 16.3-3 4.4-6.7 9.1-8.2 10.5l-2.7 2.5.6-2.5c.4-1.4 1.3-5.6 2.1-9.3 1.5-7.6 3.6-10.7 7.1-10.7 1.3 0 2.5-.4 2.8-.9.4-.5-.4-.7-1.6-.4-2 .4-1.8 0 1.2-2.7 4.1-3.7 14.8-11 16.1-11 .5 0-2 3.7-5.5 8.2zm52.2.8c-3.6 5.2-6.6 8.6-7.1 8.1-1.3-1.3.9-4.8 7.1-11.4 3-3.1 5.7-5.7 5.8-5.7.2 0-2.4 4-5.8 9zm500.6-1.3c-2 4.3-3.8 8-4.1 8.3-.2.2-.1-2 .2-5 .6-4.5 1.3-6 3.8-8.3 1.7-1.5 3.2-2.7 3.4-2.7.1 0-1.4 3.5-3.3 7.7zm-610.1-3.1c-1.1 1.7-1.9 2.2-2.1 1.4-.3-.7.3-1.9 1.4-2.7 2.6-1.9 2.7-1.7.7 1.3zm862.2 4-2.4 5.9-.1-5.3c0-4.6.3-5.4 2.3-6.1 1.2-.5 2.3-.8 2.4-.7.2.2-.8 2.9-2.2 6.2zm-917.7-2.5c-1.3 1.8-2.4 2.5-2.7 1.8-.2-.7.6-2.1 1.9-3.1 3.2-2.6 3.4-2.2.8 1.3zm28.4-1.5c.3.3-2.9 4-7.1 8.2-9.9 10-23 27.4-28.5 38-1 1.9-1.9 3.2-2.1 3-.2-.1.1-2.6.5-5.5 1.6-9.5 19.6-33 32-41.7 3.7-2.7 4.4-2.9 5.2-2zm597.2 10.6c-5.1 10-12.4 19.1-12.4 15.5 0-3.7 2.3-11.7 3.3-11.7.8 0 .8-.3-.1-.8-.7-.5-1-1.5-.7-2.3.5-1.3 13.2-10.8 14.6-10.9.3 0-1.8 4.6-4.7 10.2zm284.2-1.6c-2.9 6.6-3.9 8-6 8.2l-2.5.3 3.1-7.1c2.1-4.7 4-7.6 5.7-8.5 1.4-.7 2.7-1.2 2.8-1.1.2.2-1.2 3.8-3.1 8.2zm-406.8 4.1c-3.6 10.5-11.4 26.3-12.9 26.3-.3 0 .3-5.7 1.4-12.8l1.9-12.7 6.1-6.3c3.4-3.4 6.5-6.2 6.9-6.2s-1.1 5.3-3.4 11.7zm296.2-10.3c0 .2-.8 1-1.7 1.7-1.6 1.3-1.7 1.2-.4-.4s2.1-2.1 2.1-1.3zm-58.6 5.4c-.4 2-1.1 2.9-2 2.5-1.1-.4-1.1-1 .2-3.5 1.9-3.6 2.6-3.2 1.8 1zm-502 .4c-1.2 2-7.6 10.8-7.8 10.8-.1 0 0-1.7.2-3.8.5-4.2 3.6-8.2 6.4-8.2 1.3 0 1.7.4 1.2 1.2zm464.9 4.4c-.9 2.7-3.9 7.6-6.6 10.9-5.9 7.2-7.6 8.8-5.6 5.5 6.9-11.5 13.4-21.8 13.6-21.6.2.1-.5 2.5-1.4 5.2zm-308.8.5-2.6 5.1-4.2-.7c-2.3-.4-4.4-.9-4.5-1-.2-.2-.1-1.7.3-3.3.7-3.2 4.1-4.9 10.3-5.1l3.2-.1zm22.5 2.1c-1.2 3.5-2.6 7.3-3.1 8.5-.6 1.6-1.4 2-2.9 1.6-1.8-.5-2.1-1.1-1.6-3.6.6-3.1 8.5-14.2 9.4-13.2.3.2-.5 3.3-1.8 6.7zm535-6.2c0 .5-.5 1-1.1 1-.5 0-.7-.5-.4-1 .3-.6.8-1 1.1-1 .2 0 .4.4.4 1zm-742.9 6.3c-1 .9-1.1.8-.5-.6.3-1 .9-1.5 1.2-1.2s0 1.1-.7 1.8zm-229.3 7.7c-.6 4.3-2.1 8.2-4.1 11.5-1.7 2.7-6.4 11.3-10.4 19l-7.4 14 .6-6c.7-6.6 3-13.3 8.3-24 3.2-6.5 13.2-21.9 13.7-21.3.2.2-.2 3.2-.7 6.8zm369-5.5c.2.2-3.4 4.1-7.9 8.8-4.6 4.6-11.2 12.2-14.5 17-6 8.4-6.2 8.5-7.3 6.1-.6-1.4-1.1-3-1.1-3.7 0-1.8 12.8-24.7 15.4-27.6 1.9-2.1 2.6-2.3 8.6-1.7 3.5.4 6.6.9 6.8 1.1zm-194.4 1c.4 1.2-7.1 18.5-8.7 20.2-.2.1 0-2.4.5-5.8.7-5.5 5.3-15.9 6.9-15.9.4 0 .9.7 1.3 1.5zm796.6 3.1c0 1.1-.5 1.4-1.6 1-.9-.3-1.8-.6-2-.6-.3 0-.2-.5.1-1 1-1.6 3.5-1.2 3.5.6zm-158.4 3.6c-1.4 2.4-3.6 6.3-5.1 8.8l-2.6 4.5.6-4.5c.5-3.4 1.7-5.5 4.8-8.8 2.3-2.3 4.3-4.2 4.5-4.2.1 0-.8 1.9-2.2 4.2zm-157 3.2c-.6 3-2.3 6.8-3.8 8.7l-2.8 3.4 1.9-5c2.8-7.4 5.1-12.5 5.5-12.5.2 0-.2 2.4-.8 5.4zm124.4 4c-1.2 5.2-2.7 8.7-5.1 11.7-1.8 2.3-3.5 3.7-3.7 3.1s.4-4.5 1.3-8.7c1.5-6.5 2.2-7.9 5.3-10.5 2-1.7 3.7-3 3.8-3s-.6 3.3-1.6 7.4zm312-4.9c0 .5-2 4-3.6 6.4-.5.6-10.4-3.1-10.4-3.9 0-1.3 5.1-2.8 9.8-2.9 2.3-.1 4.2.1 4.2.4zm-690.2 3.5c-1.4 2.2-2.4 1.9-1.5-.5.4-.8 1.1-1.5 1.7-1.5s.6.7-.2 2zm568.2-.5c0 1.7-.2 1.8-2.4.9-2.3-.9-2-2.4.4-2.4 1.1 0 2 .7 2 1.5zm-50.2 1.3c-.1.4-1.1 2.8-2.1 5.3-1.5 3.8-2.3 4.6-3.8 4.2-1.1-.3-1.8-1.1-1.5-1.7s1-2.8 1.7-4.9c1-2.9 1.7-3.7 3.6-3.7 1.4 0 2.3.3 2.1.8zm-489.8 1.5c0 1.4-3.3 9.7-3.9 9.7-.4 0-.3-2.3.3-5 .6-2.9 1.5-5 2.3-5 .7 0 1.3.1 1.3.3zm535.9 3.8c-1.3 2.6-2 2.1-1.2-.9.3-1.2.9-1.9 1.4-1.6s.4 1.4-.2 2.5zm-833.8.8c-4.4 8.1-12.6 32.9-15.1 45.4-1 5-2.6 7.8-10.3 18.2-5.1 6.8-9.3 12.3-9.4 12.2-.4-.5 5.9-22.1 9.2-31.6 5.5-15.8 11.7-27.8 19.2-37.4 6.9-8.8 8.2-10.2 6.4-6.8zm950-.7c3.7 1 3.8 1.3 2.6 3.2-.8 1.2-2.7 5.9-4.2 10.6-1.9 5.6-4 9.9-6.4 12.7-2 2.2-3.7 4-3.9 3.8-.3-.3 4.5-27.7 5.3-30.3.5-1.5 1.7-1.5 6.6 0zm-167.1 8c0 2-7.8 13.3-8.7 12.5-.2-.3.8-3.6 2.3-7.6 2-5.4 3.1-7.1 4.5-7.1 1.3 0 1.9.7 1.9 2.2zm-492.1 7.7c-2.9 8-3.5 7.3-.8-.8 1.2-3.4 2.3-6 2.6-5.7.3.2-.5 3.2-1.8 6.5zm-87.6 8.2c-2 3.7-3.2 4.9-5 4.9-1.2 0-2.3-.2-2.3-.5s1.4-3.3 3.1-6.6c2.9-5.9 3.1-6 4.9-4.4 1.9 1.8 1.9 1.9-.7 6.6zm-77.2-1.1c-1.1 3-2.4 5.6-3 5.8s-1.1.1-1.1-.2c0-.9 5.4-11.6 5.7-11.3.1.2-.6 2.8-1.6 5.7zm366.2 4.2c-2.9 10-9.7 37.8-11.3 46.8-1.5 7.7-6.2 16-9.2 16-1.4 0-1.8-.5-1.4-1.5.3-.8 5.2-16 11-33.7 12-37 11.6-35.8 12.6-35.8.4 0-.3 3.7-1.7 8.2zm-133.3-4.2c0 1.1-.4 2-.9 2s-.7-.9-.4-2 .7-2 .9-2 .4.9.4 2zm-296.5 5.2c-.9 4.3-1.6 4.9-3.9 3.3-1.7-1.3-1.7-1.5.7-3.9 3.4-3.4 4-3.3 3.2.6zm452.8 4c-1.3 5.7-6.7 14.7-8.1 13.4-.5-.6 8.4-19.6 9.1-19.6.2 0-.2 2.8-1 6.2zm-157.7-1c-.3 2.4-.8 6.6-1.2 9.3-.4 3.6-1.4 6-3.6 8.4-1.6 1.8-3.1 3.1-3.4 2.8-.2-.2 1.1-5.7 3.1-12 1.9-6.4 3.5-11.9 3.5-12.2s.5-.5 1.1-.5c.7 0 .9 1.4.5 4.2zm-158.6.3c0 2.4-8.9 18-9.7 17.1-.4-.4 4.2-15.8 5.3-17.8.4-.5 4.4.1 4.4.7zm371.5 6.2c-1.3 3.8-4.5 10.8-7 15.6-4.5 8.6-4.7 8.8-6.2 6.7-2-2.9-1.5-4.4 6.4-17.6 7.8-13.1 10.4-14.9 6.8-4.7zm410.1 6.5 5.5 7.8-6.4 8.2c-6.7 8.7-16.4 23-21.1 31-2.6 4.5-3.1 4.8-6.8 4.8-3.4 0-3.9-.3-3.3-1.8.4-.9 5.2-15 10.6-31.2s10.2-30.2 10.5-31c.7-1.8 2.5.3 11 12.2zm-575.2-4c-.4 2.4-3 9.7-5.9 16.3-2.8 6.6-6.3 15-7.6 18.7-1.3 3.8-2.7 6.8-3.1 6.8-.5 0-.8-.3-.8-.6 0-.9 17.4-45.4 17.7-45.4.2 0 0 1.9-.3 4.2zm-349.5 15.4c-1 4.6-2.4 9.5-3.1 10.9-1.4 2.5-1.4 2.5-5.6-5l-4.2-7.6 4-6.9 4.1-6.8 3.3 3.6 3.3 3.6zm778.1-8.4c0 1.8-.2 2-.9.8-.6-.8-.7-1.8-.5-2.2.9-1.4 1.4-.9 1.4 1.4zm-3.2 8.4 2.2 4.5-6.7 12.5c-6.4 11.8-9 14.7-8.6 9.3.1-1.3.5-6.3.8-11.1.6-8.3.9-9.1 4.8-14.3 2.2-3 4.3-5.5 4.7-5.5.3 0 1.6 2 2.8 4.6zm-928.7 19.9c-2.6 12.7-3 14-5.1 14.3-1.4.2-2.1-.1-1.8-1 .9-3.6 9.2-27.8 9.4-27.5.2.1-1 6.5-2.5 14.2zm139.3-10.3c1.1 1.8 3.2 5.2 4.8 7.6l2.8 4.3-3.1 9c-3 8.6-3.3 9-5.8 8.5-1.4-.3-5.7-.8-9.4-1.1l-6.9-.7.7-3.6c.7-3.6 13.2-27.2 14.5-27.2.3 0 1.4 1.5 2.4 3.2zm-166.9 1.5c-.4 1-2.3 5.8-4.1 10.8-2.5 6.5-3.2 7.9-2.8 5 .5-3.6 6.2-17.5 7.2-17.5.2 0 .1.8-.3 1.7zm477.8 4c-1 6.8-1.3 7.3-3.8 7.3-3.1 0-3.1-.1.1-6.1 2.9-5.2 4.4-5.7 3.7-1.2zm202.7-.5c0 .7-.5 2-1 2.8-.8 1.2-1 .9-1-1.3 0-1.5.5-2.7 1-2.7.6 0 1 .6 1 1.2zm166.9 9.4c-.6 3.8-1.2 7-1.3 7.1 0 .1-1.3.4-2.9.8-2.2.6-2.7.4-2.7-1.1 0-1.7 7.2-14.5 7.8-13.9.2.1-.2 3.4-.9 7.1zm-34.4 18.4c-.3.5-1 1-1.6 1-.5 0-.9-.5-.9-1 0-.6.7-1 1.6-1 .8 0 1.2.4.9 1z"/></g></svg>